<?xml version="1.0" encoding="UTF-8" ?>
<!DOCTYPE svg PUBLIC "-//W3C//DTD SVG 1.1//EN" "http://www.w3.org/Graphics/SVG/1.1/DTD/svg11.dtd">
<svg width="68pt" height="69pt" viewBox="0 0 68 69" version="1.1" xmlns="http://www.w3.org/2000/svg">
<g id="#ffffffff">
<path fill="#ffffff" opacity="1.00" d=" M 34.43 0.00 L 40.59 0.00 C 44.93 2.59 48.50 6.76 49.01 11.95 C 47.51 15.83 43.90 18.35 41.85 21.91 C 47.07 22.38 52.41 21.36 57.57 22.44 C 61.23 25.90 64.09 30.15 68.00 33.39 L 68.00 35.61 C 64.07 39.17 60.66 43.29 56.60 46.68 C 51.73 47.51 46.75 46.71 41.84 47.03 C 44.22 50.04 47.57 52.40 49.00 56.07 C 48.36 61.70 44.55 66.53 39.52 69.00 L 35.31 69.00 C 23.12 58.04 11.96 46.00 0.00 34.80 L 0.00 34.20 C 11.76 23.09 22.97 11.42 34.43 0.00 Z" />
</g>
</svg>
