<?xml version="1.0" encoding="UTF-8" ?>
<!DOCTYPE svg PUBLIC "-//W3C//DTD SVG 1.1//EN" "http://www.w3.org/Graphics/SVG/1.1/DTD/svg11.dtd">
<svg width="68pt" height="69pt" viewBox="0 0 68 69" version="1.1" xmlns="http://www.w3.org/2000/svg">
<g id="#ffae42ff">
<path fill="#ffae42" opacity="1.00" d=" M 34.58 0.00 L 40.57 0.00 C 44.76 2.66 48.67 6.69 48.91 11.93 C 47.33 15.74 44.12 18.53 41.86 21.92 C 46.54 22.18 51.24 21.65 55.90 22.19 C 57.66 22.31 58.84 23.77 60.00 24.92 C 62.60 27.86 65.30 30.71 68.00 33.55 L 68.00 35.54 C 64.17 39.19 60.85 43.47 56.46 46.48 C 51.72 47.64 46.77 46.77 41.94 47.01 C 44.34 49.96 47.44 52.50 48.91 56.09 C 48.54 61.78 44.40 66.41 39.55 69.00 L 35.40 69.00 C 23.10 58.14 12.01 46.00 0.00 34.82 L 0.00 34.18 C 11.84 23.11 22.93 11.26 34.58 0.00 Z" />
</g>
</svg>
