<?xml version="1.0" encoding="UTF-8" ?>
<!DOCTYPE svg PUBLIC "-//W3C//DTD SVG 1.1//EN" "http://www.w3.org/Graphics/SVG/1.1/DTD/svg11.dtd">
<svg width="68pt" height="69pt" viewBox="0 0 68 69" version="1.1" xmlns="http://www.w3.org/2000/svg">
<g id="#000000ff">
<path fill="#000000" opacity="1.00" d=" M 34.51 0.00 L 39.94 0.00 C 43.28 1.58 46.31 4.04 47.80 7.51 C 48.45 9.61 49.78 12.12 48.05 14.07 C 46.03 16.78 43.53 19.11 41.67 21.96 C 46.83 22.03 52.00 22.01 57.17 21.97 C 60.88 25.73 64.07 29.97 68.00 33.55 L 68.00 35.56 C 64.13 39.32 60.33 43.15 56.55 47.00 C 51.56 47.02 46.58 46.97 41.59 47.02 C 44.20 49.85 47.45 52.30 49.02 55.92 C 48.67 59.55 46.67 62.74 44.64 65.67 C 42.78 66.95 40.80 68.02 38.77 69.00 L 35.19 69.00 C 23.21 57.77 11.60 46.13 0.00 34.50 L 0.00 34.36 C 11.64 23.05 22.98 11.42 34.51 0.00 Z" />
</g>
</svg>
