<?xml version="1.0" encoding="UTF-8" ?>
<!DOCTYPE svg PUBLIC "-//W3C//DTD SVG 1.1//EN" "http://www.w3.org/Graphics/SVG/1.1/DTD/svg11.dtd">
<svg width="68pt" height="69pt" viewBox="0 0 68 69" version="1.1" xmlns="http://www.w3.org/2000/svg">
<g id="#040505ff">
<path fill="#040505" opacity="1.00" d=" M 34.59 0.00 L 39.00 0.00 L 39.25 0.75 C 39.71 0.75 40.63 0.74 41.09 0.74 C 43.22 1.87 45.21 3.33 46.48 5.44 L 46.61 5.64 L 46.79 5.86 L 47.26 6.51 C 47.35 6.66 47.53 6.97 47.62 7.12 C 47.74 7.82 47.97 9.23 48.08 9.93 C 48.19 10.75 48.40 12.38 48.51 13.19 C 46.39 16.25 43.89 19.03 41.59 21.96 C 46.82 22.02 52.04 22.03 57.27 21.94 C 60.77 25.89 64.23 29.88 68.00 33.58 L 68.00 35.57 C 64.29 39.13 60.74 42.86 57.07 46.46 C 51.70 46.68 46.33 46.51 40.96 46.68 C 43.33 49.25 45.72 51.80 48.08 54.38 L 48.51 54.95 C 48.37 55.71 48.10 57.24 47.97 58.00 C 47.89 58.59 47.74 59.77 47.66 60.37 C 47.63 60.45 47.57 60.62 47.54 60.71 C 46.66 62.33 45.74 63.94 44.62 65.41 C 44.56 65.46 44.45 65.57 44.39 65.63 C 43.70 66.09 42.33 67.01 41.64 67.47 L 41.49 67.56 L 41.36 67.65 C 40.74 67.98 39.50 68.66 38.87 69.00 L 35.31 69.00 C 23.16 57.89 11.61 46.13 0.00 34.45 L 0.00 34.37 C 11.67 23.06 22.93 11.32 34.59 0.00 M 35.41 3.31 C 24.95 13.32 15.14 23.97 4.80 34.09 C 8.33 38.90 13.14 42.53 17.10 46.97 C 22.16 52.57 27.82 57.57 32.99 63.06 C 34.08 64.15 35.26 65.50 36.98 65.30 C 41.98 65.31 46.01 60.30 44.93 55.39 C 41.04 51.34 37.32 47.11 33.18 43.30 C 40.78 42.69 48.42 42.83 56.04 42.74 C 58.56 39.67 61.50 36.98 64.32 34.19 C 63.82 33.54 63.30 32.89 62.78 32.25 C 59.95 30.07 57.40 27.55 54.47 25.51 C 47.61 25.68 40.74 25.64 33.89 25.36 C 37.41 20.76 42.19 17.16 45.15 12.13 C 45.53 7.01 40.50 2.35 35.41 3.31 Z" />
</g>
<g id="#6040c0fe">
<path fill="#6040c0" opacity="1.00" d=" M 35.41 3.31 C 40.50 2.35 45.53 7.01 45.15 12.13 C 42.19 17.16 37.41 20.76 33.89 25.36 C 40.74 25.64 47.61 25.68 54.47 25.51 C 57.40 27.55 59.95 30.07 62.78 32.25 C 63.30 32.89 63.82 33.54 64.32 34.19 C 61.50 36.98 58.56 39.67 56.04 42.74 C 48.42 42.83 40.78 42.69 33.18 43.30 C 37.32 47.11 41.04 51.34 44.93 55.39 C 46.01 60.30 41.98 65.31 36.98 65.30 C 35.26 65.50 34.08 64.15 32.99 63.06 C 27.82 57.57 22.16 52.57 17.10 46.97 C 13.14 42.53 8.33 38.90 4.80 34.09 C 15.14 23.97 24.95 13.32 35.41 3.31 M 10.14 34.14 C 17.43 41.80 24.99 49.20 32.33 56.80 C 33.67 58.24 35.87 58.01 37.60 58.60 C 37.85 57.07 38.10 55.55 38.34 54.02 C 34.74 50.44 31.12 46.89 27.49 43.35 C 27.49 42.12 27.50 40.90 27.50 39.67 C 25.73 37.86 23.97 36.03 22.23 34.19 C 23.93 32.49 25.65 30.80 27.39 29.13 C 27.38 27.99 27.36 26.86 27.33 25.72 C 30.39 22.31 33.82 19.28 36.99 15.98 C 38.52 14.62 38.00 12.36 38.33 10.56 C 36.78 10.50 35.22 10.45 33.66 10.40 C 25.78 18.28 18.03 26.28 10.14 34.14 M 24.17 34.12 C 25.51 35.62 26.84 37.12 28.16 38.64 C 32.50 38.70 36.85 38.67 41.20 38.62 C 39.95 37.15 38.70 35.69 37.46 34.21 C 38.71 32.78 39.94 31.35 41.15 29.89 C 36.97 29.80 32.79 29.86 28.61 29.69 C 27.12 31.15 25.64 32.62 24.17 34.12 M 39.38 34.29 C 40.72 35.68 41.98 37.18 43.51 38.38 C 46.49 38.94 49.57 38.53 52.58 38.52 C 53.77 37.08 54.95 35.63 56.12 34.17 C 54.95 32.87 53.77 31.57 52.59 30.27 C 49.72 30.15 46.83 29.70 43.97 30.16 C 42.17 31.19 40.87 32.87 39.38 34.29 Z" />
<path fill="#6040c0" opacity="1.00" d=" M 46.48 5.44 C 46.56 5.55 46.72 5.76 46.79 5.86 L 46.61 5.64 L 46.48 5.44 Z" />
<path fill="#6040c0" opacity="1.00" d=" M 47.26 6.51 L 47.58 6.84 L 47.62 7.12 C 47.53 6.97 47.35 6.66 47.26 6.51 Z" />
<path fill="#6040c0" opacity="1.00" d=" M 47.54 60.71 C 47.57 60.62 47.63 60.45 47.66 60.37 L 47.64 60.54 L 47.54 60.71 Z" />
<path fill="#6040c0" opacity="1.00" d=" M 44.39 65.63 C 44.45 65.57 44.56 65.46 44.62 65.41 L 44.53 65.54 L 44.39 65.63 Z" />
<path fill="#6040c0" opacity="1.00" d=" M 41.49 67.56 L 41.64 67.47 L 41.51 67.56 L 41.36 67.65 L 41.49 67.56 Z" />
</g>
<g id="#fcfcfbff">
<path fill="#fcfcfb" opacity="1.00" d=" M 10.14 34.14 C 18.03 26.28 25.78 18.28 33.66 10.40 C 35.22 10.45 36.78 10.50 38.33 10.56 C 38.00 12.36 38.52 14.62 36.99 15.98 C 33.82 19.28 30.39 22.31 27.33 25.72 C 27.36 26.86 27.38 27.99 27.39 29.13 C 25.65 30.80 23.93 32.49 22.23 34.19 C 23.97 36.03 25.73 37.86 27.50 39.67 C 27.50 40.90 27.49 42.12 27.49 43.35 C 31.12 46.89 34.74 50.44 38.34 54.02 C 38.10 55.55 37.85 57.07 37.60 58.60 C 35.87 58.01 33.67 58.24 32.33 56.80 C 24.99 49.20 17.43 41.80 10.14 34.14 Z" />
<path fill="#fcfcfb" opacity="1.00" d=" M 24.17 34.12 C 25.64 32.62 27.12 31.15 28.61 29.69 C 32.79 29.86 36.97 29.80 41.15 29.89 C 39.94 31.35 38.71 32.78 37.46 34.21 C 38.70 35.69 39.95 37.15 41.20 38.62 C 36.85 38.67 32.50 38.70 28.16 38.64 C 26.84 37.12 25.51 35.62 24.17 34.12 Z" />
<path fill="#fcfcfb" opacity="1.00" d=" M 39.38 34.29 C 40.87 32.87 42.17 31.19 43.97 30.16 C 46.83 29.70 49.72 30.15 52.59 30.27 C 53.77 31.57 54.95 32.87 56.12 34.17 C 54.95 35.63 53.77 37.08 52.58 38.52 C 49.57 38.53 46.49 38.94 43.51 38.38 C 41.98 37.18 40.72 35.68 39.38 34.29 Z" />
<path fill="#fcfcfb" opacity="1.00" d=" M 40.96 46.68 C 46.33 46.51 51.70 46.68 57.07 46.46 L 56.55 46.92 C 51.56 47.09 46.56 46.96 41.56 47.00 C 43.80 49.40 46.25 51.63 48.08 54.38 C 45.72 51.80 43.33 49.25 40.96 46.68 Z" />
</g>
</svg>
