<svg width="139pt" height="139pt" viewBox="0 0 139 139" version="1.1" xmlns="http://www.w3.org/2000/svg">
<path d=" M 39.96 45.09 C 43.01 31.23 56.84 20.86 71.02 21.86 C 84.13 22.29 96.15 32.26 99.02 45.06 C 101.80 55.86 97.82 67.72 89.59 75.11 C 95.22 78.06 101.85 79.85 106.01 84.97 C 111.32 91.31 112.70 99.95 112.34 107.97 C 102.79 118.54 89.54 125.95 75.26 127.36 C 57.17 129.45 38.85 121.43 26.87 107.97 C 26.47 99.99 27.86 91.39 33.10 85.07 C 37.22 79.91 43.85 78.12 49.48 75.17 C 41.19 67.80 37.21 55.91 39.96 45.09 M 63.39 28.58 C 52.58 31.19 44.51 41.94 45.14 53.06 C 45.28 64.92 55.30 75.56 67.12 76.47 C 78.86 77.88 90.67 69.43 93.20 57.90 C 95.34 49.42 92.41 39.93 85.87 34.13 C 79.94 28.64 71.19 26.53 63.39 28.58 M 41.62 85.63 C 35.84 88.86 33.51 95.73 32.91 101.98 C 32.88 103.43 32.24 105.23 33.63 106.27 C 43.08 115.90 56.45 121.87 70.02 121.62 C 83.80 121.66 97.14 115.25 106.55 105.33 C 106.19 98.64 104.83 91.11 99.24 86.72 C 94.49 83.55 88.99 81.75 84.00 79.00 C 75.08 83.68 64.06 83.74 55.13 79.06 C 50.68 81.36 46.04 83.27 41.62 85.63 Z" />
</svg>
