<svg width="768pt" height="320pt" viewBox="0 0 768 320" version="1.1" xmlns="http://www.w3.org/2000/svg">
<g id="#000000ff">
<path fill="#000000" opacity="1.00" d=" M 267.50 4.19 C 270.01 3.87 272.45 3.08 274.99 2.99 C 293.34 2.99 311.69 3.03 330.04 2.97 C 332.94 2.93 335.70 3.96 338.58 4.14 C 340.96 5.20 342.83 7.03 343.88 9.43 C 344.36 11.60 345.08 13.76 345.02 16.01 C 344.99 36.37 344.98 56.72 345.02 77.08 C 345.01 78.27 344.81 79.44 344.44 80.59 C 343.36 84.04 340.46 86.82 337.04 87.90 C 332.85 88.48 327.83 87.24 325.31 83.61 C 323.88 80.64 323.12 77.33 323.01 74.04 C 323.04 63.58 323.00 53.12 322.97 42.65 C 294.07 74.93 265.81 107.69 236.87 139.91 C 233.71 144.19 229.91 148.00 225.51 150.99 C 221.07 151.74 216.92 150.05 213.55 147.25 C 185.81 125.89 158.69 103.74 131.37 81.85 C 128.36 82.05 126.87 85.08 124.65 86.72 C 116.71 93.00 110.36 100.99 102.48 107.32 C 97.71 111.30 93.82 116.21 89.02 120.15 C 81.98 125.69 76.47 132.89 69.42 138.42 C 63.63 143.27 58.92 149.28 52.99 153.97 C 46.95 158.90 42.11 165.13 35.96 169.95 C 30.95 173.87 27.31 179.53 21.44 182.32 C 19.46 183.43 17.09 182.89 14.92 183.03 C 13.73 182.24 12.54 181.47 11.33 180.72 C 7.54 176.10 8.91 169.73 10.15 164.40 C 13.89 160.03 18.80 156.92 22.74 152.76 C 26.50 149.10 30.01 145.18 34.04 141.81 C 41.51 135.67 47.70 128.18 55.07 121.93 C 60.73 117.36 65.30 111.60 70.97 107.03 C 76.48 102.56 80.95 96.98 86.45 92.50 C 92.62 87.39 97.77 81.17 103.94 76.06 C 111.52 69.88 117.36 61.62 125.99 56.74 C 127.95 55.56 130.33 56.10 132.50 56.01 C 138.71 59.33 143.76 64.32 149.41 68.45 C 164.94 80.96 180.57 93.35 196.14 105.81 C 204.58 112.10 212.26 119.41 221.11 125.15 C 237.43 107.17 253.31 88.71 269.47 70.54 C 282.75 55.38 296.30 40.43 309.29 25.00 C 297.52 24.84 285.76 24.84 274.00 25.04 C 268.95 25.11 263.25 23.59 261.06 18.54 C 261.00 18.05 260.88 17.07 260.82 16.58 C 258.13 11.45 262.38 5.54 267.50 4.19 Z" />
<path fill="#000000" opacity="1.00" d=" M 606.88 3.96 C 615.52 3.81 624.30 4.03 632.59 6.71 C 634.90 7.18 637.19 7.73 639.49 8.26 C 644.58 9.79 649.65 11.41 654.43 13.78 C 655.78 14.29 657.14 14.79 658.52 15.24 C 671.76 21.05 684.36 28.41 695.98 37.02 C 701.90 41.38 707.16 46.51 712.73 51.29 C 717.29 56.82 722.40 61.91 726.18 68.07 C 687.56 97.19 648.53 125.77 610.14 155.20 C 609.01 156.04 607.74 156.70 606.51 157.38 C 607.11 106.25 606.37 55.09 606.88 3.96 Z" />
<path fill="#000000" opacity="1.00" d=" M 547.52 22.27 C 559.98 18.36 572.94 15.95 586.00 15.99 C 585.99 64.66 586.03 113.34 585.98 162.01 C 586.09 167.67 587.70 173.40 591.08 178.00 C 617.01 218.65 643.32 259.05 669.21 299.73 C 660.10 305.66 650.05 310.26 639.64 313.38 C 630.95 316.08 622.06 318.41 612.95 319.01 C 611.09 319.11 609.27 319.54 607.49 320.00 L 581.61 320.00 C 569.12 318.04 556.54 316.01 544.58 311.73 C 527.71 305.50 511.72 296.75 497.89 285.20 C 492.51 280.25 486.59 275.82 482.12 269.97 C 467.75 254.73 457.25 236.13 450.26 216.45 C 446.77 205.23 443.96 193.74 443.05 182.00 C 443.01 178.32 442.44 174.68 442.06 171.03 C 441.50 165.32 443.06 159.71 443.02 154.00 C 443.94 140.86 447.30 128.04 451.27 115.52 C 455.60 104.33 460.87 93.48 467.66 83.56 C 473.83 73.96 481.62 65.60 489.44 57.35 C 496.87 51.11 503.90 44.28 512.24 39.22 C 522.12 33.05 532.51 27.55 543.50 23.66 L 544.42 23.24 C 545.45 22.92 546.48 22.59 547.52 22.27 Z" />
<path fill="#000000" opacity="1.00" d=" M 618.67 173.73 C 658.16 144.23 697.75 114.85 736.99 85.02 C 741.67 91.73 745.20 99.13 748.73 106.48 C 749.17 107.86 749.68 109.21 750.22 110.56 C 756.27 125.07 759.30 140.82 760.40 156.46 C 761.47 162.92 760.97 169.54 760.88 176.05 C 759.72 180.62 760.34 185.37 759.28 189.95 C 758.41 197.57 756.65 205.05 754.73 212.46 C 754.36 213.45 754.00 214.45 753.67 215.46 C 752.17 221.66 749.81 227.61 747.26 233.44 C 744.87 239.75 741.46 245.55 738.28 251.47 C 727.67 269.74 713.34 285.83 696.32 298.32 C 695.25 299.25 694.05 300.00 692.62 300.12 C 685.80 288.76 678.38 277.77 671.20 266.63 C 652.04 237.13 633.04 207.52 613.96 177.98 C 614.71 175.95 617.07 175.06 618.67 173.73 Z" />
<path fill="#000000" opacity="1.00" d=" M 288.27 130.39 C 293.47 129.50 298.76 128.95 304.05 129.10 C 312.68 129.26 321.32 128.90 329.94 129.26 C 333.67 129.78 337.86 129.61 340.94 132.13 C 344.16 134.70 344.84 139.12 345.00 142.99 C 345.00 197.66 345.00 252.34 345.01 307.01 C 344.95 310.02 344.25 313.07 342.70 315.67 C 341.02 318.21 337.91 319.04 335.21 320.00 L 290.44 320.00 C 286.95 318.91 283.54 317.05 282.05 313.52 C 281.59 310.69 280.96 307.87 280.98 305.00 C 281.02 251.32 281.01 197.64 280.98 143.96 C 280.97 138.69 282.69 132.22 288.27 130.39 Z" />
<path fill="#000000" opacity="1.00" d=" M 99.58 167.62 C 101.97 161.40 109.48 161.59 115.01 161.03 C 125.67 161.02 136.34 160.86 147.00 161.12 C 151.38 161.80 156.77 161.42 159.79 165.30 C 162.61 169.26 161.96 174.39 162.02 178.98 C 161.99 221.98 161.99 264.98 162.02 307.98 C 162.01 310.30 161.44 312.56 160.94 314.81 C 158.75 317.27 156.03 319.23 152.78 320.00 L 107.89 320.00 C 104.44 319.00 100.56 317.30 99.49 313.52 C 98.49 309.09 98.47 304.50 98.33 299.99 C 97.84 264.67 97.93 229.35 98.16 194.03 C 98.67 185.24 97.64 176.26 99.58 167.62 Z" />
<path fill="#000000" opacity="1.00" d=" M 192.20 197.20 C 195.08 193.84 199.84 193.10 204.03 192.98 C 215.37 192.99 226.71 193.04 238.04 192.96 C 241.23 192.89 244.36 193.55 247.48 194.12 C 249.71 195.45 251.78 197.09 252.94 199.48 C 253.42 202.30 254.06 205.10 254.03 207.98 C 253.97 240.66 254.00 273.34 254.02 306.02 C 254.03 308.57 253.42 311.06 252.91 313.55 C 251.06 316.93 247.75 318.99 244.11 320.00 L 198.87 320.00 C 197.68 319.58 196.49 319.16 195.30 318.74 C 193.90 317.38 192.51 316.03 191.09 314.70 C 189.52 309.93 190.03 304.88 190.00 299.95 C 189.99 267.94 190.01 235.93 189.99 203.93 C 189.95 201.53 190.50 198.99 192.20 197.20 Z" />
<path fill="#000000" opacity="1.00" d=" M 14.25 225.30 C 17.13 224.75 20.08 225.03 22.99 224.98 C 36.49 225.00 49.99 225.03 63.49 224.97 C 67.55 227.19 71.03 231.03 70.96 235.92 C 71.06 260.31 70.97 284.71 71.00 309.11 C 71.05 314.31 67.03 318.72 62.12 320.00 L 16.29 320.00 C 13.80 318.94 10.93 318.06 9.32 315.71 C 7.61 312.79 6.93 309.35 6.97 305.99 C 7.04 286.33 6.98 266.67 7.00 247.02 C 7.10 241.43 6.40 235.70 8.18 230.30 C 10.05 228.48 11.71 226.22 14.25 225.30 Z" />
</g>
</svg>
