<?xml version="1.0" encoding="UTF-8" ?>
<!DOCTYPE svg PUBLIC "-//W3C//DTD SVG 1.1//EN" "http://www.w3.org/Graphics/SVG/1.1/DTD/svg11.dtd">
<svg width="104pt" height="34pt" viewBox="0 0 104 34" version="1.1" xmlns="http://www.w3.org/2000/svg">
<g id="#f7faf7ff">
<path fill="#f7faf7" opacity="1.00" d=" M 0.00 0.00 L 104.00 0.00 L 104.00 34.00 L 0.00 34.00 L 0.00 0.00 M 86.39 2.44 C 82.99 6.32 73.16 0.06 73.53 6.90 C 73.20 7.20 72.55 7.81 72.22 8.12 C 63.30 8.59 52.42 6.45 44.69 9.22 C 40.74 8.67 36.82 7.83 32.80 8.05 C 32.46 7.77 31.79 7.19 31.46 6.91 C 30.80 -1.97 16.99 3.11 11.32 2.26 C 6.58 5.31 0.56 9.77 0.93 16.00 C -0.04 21.86 4.21 29.19 9.65 30.81 C 16.77 33.71 30.13 32.24 37.31 30.75 C 39.12 30.45 40.93 30.29 42.74 30.59 C 42.88 32.41 45.17 32.02 46.39 32.59 C 59.12 32.12 71.88 32.93 84.65 32.54 C 89.29 30.62 99.20 35.03 99.64 28.43 C 100.83 22.38 103.85 12.74 101.67 5.77 C 101.22 -0.40 90.49 -0.31 86.39 2.44 Z" />
</g>
<g id="#c5d5c5ff">
<path fill="#c5d5c5" opacity="1.00" d=" M 86.39 2.44 C 90.49 -0.31 101.22 -0.40 101.67 5.77 C 100.20 13.20 98.12 20.82 99.64 28.43 C 99.20 35.03 89.29 30.62 84.65 32.54 C 71.88 32.93 59.12 32.12 46.39 32.59 C 45.17 32.02 42.88 32.41 42.74 30.59 C 60.71 30.55 79.88 32.39 97.31 30.17 C 83.87 29.14 70.45 29.71 56.99 29.75 L 56.80 28.91 C 59.63 23.51 63.75 31.08 68.03 29.04 C 71.50 30.62 74.03 28.45 76.45 26.68 C 80.17 29.11 84.63 28.94 88.76 27.73 C 91.79 29.03 96.59 29.90 97.68 25.71 C 96.66 19.15 99.28 12.74 98.93 6.18 C 95.10 4.52 87.62 3.15 87.09 8.98 C 87.02 9.77 86.87 11.34 86.80 12.12 C 83.90 10.10 81.15 6.82 77.32 7.07 C 75.97 9.27 75.01 11.82 72.79 13.32 C 63.73 11.23 54.37 12.02 45.15 12.06 C 48.98 10.79 53.20 11.03 57.21 10.58 C 61.69 8.14 74.81 14.86 73.53 6.90 C 73.16 0.06 82.99 6.32 86.39 2.44 M 89.03 2.04 C 89.89 4.20 94.60 2.57 96.97 2.96 C 96.10 0.80 91.40 2.43 89.03 2.04 M 85.31 5.30 C 77.93 6.01 88.66 10.08 85.31 5.30 Z" />
</g>
<g id="#adc5adff">
<path fill="#adc5ad" opacity="1.00" d=" M 11.32 2.26 C 16.99 3.11 30.80 -1.97 31.46 6.91 C 27.10 13.95 47.98 8.38 34.28 8.69 C 33.91 8.53 33.17 8.21 32.80 8.05 C 36.82 7.83 40.74 8.67 44.69 9.22 C 48.85 9.76 53.04 10.10 57.21 10.58 C 53.20 11.03 48.98 10.79 45.15 12.06 C 44.89 12.21 44.38 12.50 44.12 12.65 C 39.96 10.74 35.23 11.05 30.81 11.73 C 26.65 12.55 31.27 4.25 25.99 5.91 L 26.01 5.01 L 26.07 4.15 C 33.57 2.81 9.51 0.96 12.81 4.24 L 13.26 5.04 L 12.73 5.76 C 10.08 7.76 7.44 9.78 5.02 12.07 C 3.52 15.32 3.50 18.60 4.96 21.91 L 5.54 22.55 C 7.41 24.65 9.30 26.83 11.78 28.23 L 12.01 29.06 L 12.07 29.97 C 11.46 30.18 10.25 30.60 9.65 30.81 C 4.21 29.19 -0.04 21.86 0.93 16.00 C 0.56 9.77 6.58 5.31 11.32 2.26 Z" />
</g>
<g id="#7da57dff">
<path fill="#7da57d" opacity="1.00" d=" M 89.03 2.04 C 91.40 2.43 96.10 0.80 96.97 2.96 C 94.60 2.57 89.89 4.20 89.03 2.04 Z" />
</g>
<g id="#679667ff">
<path fill="#679667" opacity="1.00" d=" M 12.81 4.24 C 9.51 0.96 33.57 2.81 26.07 4.15 C 21.65 4.13 17.23 4.15 12.81 4.24 Z" />
</g>
<g id="#ffffffff">
<path fill="#ffffff" opacity="1.00" d=" M 12.81 4.24 C 17.23 4.15 21.65 4.13 26.07 4.15 L 26.01 5.01 C 21.76 5.02 17.51 5.00 13.26 5.04 L 12.81 4.24 Z" />
<path fill="#ffffff" opacity="1.00" d=" M 12.01 29.06 C 19.67 28.97 27.34 28.97 35.00 29.06 L 34.98 29.98 C 27.34 29.97 19.70 29.96 12.07 29.97 L 12.01 29.06 Z" />
<path fill="#ffffff" opacity="1.00" d=" M 45.11 29.07 C 49.00 29.03 52.90 28.98 56.80 28.91 L 56.99 29.75 C 52.98 29.88 48.98 29.96 44.97 30.00 L 45.11 29.07 Z" />
</g>
<g id="#446750ff">
<path fill="#446750" opacity="1.00" d=" M 13.26 5.04 C 17.51 5.00 21.76 5.02 26.01 5.01 L 25.99 5.91 C 21.57 5.91 17.15 5.87 12.73 5.76 L 13.26 5.04 Z" />
</g>
<g id="#669566ff">
<path fill="#669566" opacity="1.00" d=" M 85.31 5.30 C 88.66 10.08 77.93 6.01 85.31 5.30 Z" />
</g>
<g id="#154118ff">
<path fill="#154118" opacity="1.00" d=" M 87.09 8.98 C 87.62 3.15 95.10 4.52 98.93 6.18 C 99.28 12.74 96.66 19.15 97.68 25.71 C 96.59 29.90 91.79 29.03 88.76 27.73 C 84.63 28.94 80.17 29.11 76.45 26.68 C 74.03 28.45 71.50 30.62 68.03 29.04 C 63.75 31.08 59.63 23.51 56.80 28.91 C 52.90 28.98 49.00 29.03 45.11 29.07 C 44.18 27.64 43.26 26.21 42.38 24.76 C 41.64 21.25 36.81 20.92 37.67 25.23 L 36.98 24.80 C 35.97 20.81 39.37 21.25 41.79 19.93 C 41.71 19.46 41.54 18.52 41.45 18.05 C 39.92 15.76 39.56 11.54 34.97 14.01 C 27.25 10.40 30.57 18.35 29.96 22.04 C 29.91 23.45 29.85 24.86 29.78 26.28 C 28.83 26.44 27.89 26.60 26.94 26.75 L 26.96 25.90 C 26.97 25.19 27.00 23.77 27.02 23.06 C 30.98 12.65 21.54 14.74 15.02 15.06 C 13.87 19.28 16.83 19.86 20.96 19.11 C 22.70 24.75 16.23 23.40 13.05 21.42 C 11.96 17.93 10.91 13.73 14.77 11.78 C 17.71 10.34 25.82 14.40 27.02 10.95 C 27.01 10.22 27.01 8.74 27.01 8.01 C 24.35 5.70 15.87 6.90 12.00 8.01 C 7.05 11.40 6.92 16.94 6.69 22.33 L 5.54 22.55 L 4.96 21.91 C 4.94 18.63 4.92 15.35 5.02 12.07 C 7.44 9.78 10.08 7.76 12.73 5.76 C 17.15 5.87 21.57 5.91 25.99 5.91 C 31.27 4.25 26.65 12.55 30.81 11.73 C 35.82 7.25 41.08 16.91 44.12 12.65 C 44.38 12.50 44.89 12.21 45.15 12.06 C 54.37 12.02 63.73 11.23 72.79 13.32 C 75.01 11.82 75.97 9.27 77.32 7.07 C 81.15 6.82 83.90 10.10 86.80 12.12 C 87.10 12.36 87.69 12.84 87.99 13.08 C 88.05 14.57 88.12 16.06 88.21 17.54 C 80.21 18.60 90.25 31.16 89.29 22.17 C 89.83 21.37 90.39 20.58 90.95 19.79 C 91.19 20.39 91.68 21.59 91.92 22.19 C 89.73 23.76 89.46 27.52 92.99 27.05 C 96.40 27.66 96.91 23.36 94.09 22.19 C 97.10 17.83 96.33 12.03 97.02 7.03 C 92.36 6.18 87.34 6.05 89.17 11.72 C 88.88 12.06 88.29 12.74 87.99 13.08 C 88.49 11.66 88.16 10.05 87.09 8.98 M 76.54 12.49 C 72.20 15.40 79.58 20.33 78.03 23.11 C 77.86 26.92 83.21 28.37 86.15 26.98 C 85.04 23.56 81.32 21.56 83.02 17.14 C 92.40 17.07 75.93 3.14 76.54 12.49 M 43.81 18.04 C 41.64 18.38 43.74 22.49 44.22 24.14 C 44.89 30.09 53.19 25.74 56.98 26.98 C 58.98 20.94 51.36 23.43 48.02 22.54 C 51.13 20.73 58.17 24.58 57.25 19.05 C 55.57 16.76 51.15 18.33 48.76 17.20 C 51.86 16.47 58.57 19.22 56.98 14.04 C 52.41 14.60 44.09 11.25 43.81 18.04 M 59.01 14.02 C 57.48 19.89 66.58 15.23 69.02 17.50 C 66.90 18.24 61.89 15.92 61.95 19.02 C 58.99 18.05 57.81 22.95 61.01 22.94 C 60.82 24.24 61.45 26.13 63.05 25.98 C 62.98 28.61 74.11 27.28 73.94 26.00 C 73.37 24.04 76.37 16.83 73.07 18.16 C 71.38 11.71 64.02 14.18 59.01 14.02 Z" />
</g>
<g id="#90b390ff">
<path fill="#90b390" opacity="1.00" d=" M 99.64 28.43 C 98.12 20.82 100.20 13.20 101.67 5.77 C 103.85 12.74 100.83 22.38 99.64 28.43 Z" />
</g>
<g id="#52ae44ff">
<path fill="#52ae44" opacity="1.00" d=" M 12.00 8.01 C 15.87 6.90 24.35 5.70 27.01 8.01 C 22.00 8.01 17.00 7.92 12.00 8.01 Z" />
</g>
<g id="#6c9a6cff">
<path fill="#6c9a6c" opacity="1.00" d=" M 34.28 8.69 C 47.98 8.38 27.10 13.95 31.46 6.91 C 31.79 7.19 32.46 7.77 32.80 8.05 C 33.17 8.21 33.91 8.53 34.28 8.69 Z" />
</g>
<g id="#78a278ff">
<path fill="#78a278" opacity="1.00" d=" M 73.53 6.90 C 74.81 14.86 61.69 8.14 57.21 10.58 C 53.04 10.10 48.85 9.76 44.69 9.22 C 53.72 8.30 63.58 10.38 72.22 8.12 C 72.55 7.81 73.20 7.20 73.53 6.90 Z" />
</g>
<g id="#c8fbadff">
<path fill="#c8fbad" opacity="1.00" d=" M 89.17 11.72 C 87.34 6.05 92.36 6.18 97.02 7.03 C 96.33 12.03 97.10 17.83 94.09 22.19 C 93.55 22.19 92.47 22.19 91.92 22.19 C 91.68 21.59 91.19 20.39 90.95 19.79 C 90.51 17.06 89.81 14.39 89.17 11.72 Z" />
</g>
<g id="#d2feb5ff">
<path fill="#d2feb5" opacity="1.00" d=" M 12.00 8.01 C 17.00 7.92 22.00 8.01 27.01 8.01 C 27.01 8.74 27.01 10.22 27.02 10.95 C 23.07 11.68 18.47 9.82 14.77 11.78 C 10.91 13.73 11.96 17.93 13.05 21.42 C 11.29 21.74 9.53 21.99 7.76 22.22 L 6.69 22.33 C 6.92 16.94 7.05 11.40 12.00 8.01 Z" />
</g>
<g id="#bfd3bfff">
<path fill="#bfd3bf" opacity="1.00" d=" M 44.69 9.22 C 52.42 6.45 63.30 8.59 72.22 8.12 C 63.58 10.38 53.72 8.30 44.69 9.22 Z" />
</g>
<g id="#c1f1a5ff">
<path fill="#c1f1a5" opacity="1.00" d=" M 76.54 12.49 C 75.93 3.14 92.40 17.07 83.02 17.14 C 81.40 19.23 83.14 24.61 78.03 23.11 C 79.58 20.33 72.20 15.40 76.54 12.49 Z" />
</g>
<g id="#668972ff">
<path fill="#668972" opacity="1.00" d=" M 87.09 8.98 C 88.16 10.05 88.49 11.66 87.99 13.08 C 87.69 12.84 87.10 12.36 86.80 12.12 C 86.87 11.34 87.02 9.77 87.09 8.98 Z" />
</g>
<g id="#82b56dff">
<path fill="#82b56d" opacity="1.00" d=" M 14.77 11.78 C 18.47 9.82 23.07 11.68 27.02 10.95 C 25.82 14.40 17.71 10.34 14.77 11.78 Z" />
</g>
<g id="#e0e5e0ff">
<path fill="#e0e5e0" opacity="1.00" d=" M 30.81 11.73 C 35.23 11.05 39.96 10.74 44.12 12.65 C 41.08 16.91 35.82 7.25 30.81 11.73 Z" />
</g>
<g id="#e5eae7ff">
<path fill="#e5eae7" opacity="1.00" d=" M 4.96 21.91 C 3.50 18.60 3.52 15.32 5.02 12.07 C 4.92 15.35 4.94 18.63 4.96 21.91 Z" />
</g>
<g id="#3a743aff">
<path fill="#3a743a" opacity="1.00" d=" M 89.17 11.72 C 89.81 14.39 90.51 17.06 90.95 19.79 C 90.39 20.58 89.83 21.37 89.29 22.17 C 88.98 20.61 88.62 19.07 88.21 17.54 C 88.12 16.06 88.05 14.57 87.99 13.08 C 88.29 12.74 88.88 12.06 89.17 11.72 Z" />
</g>
<g id="#cafbabff">
<path fill="#cafbab" opacity="1.00" d=" M 29.96 22.04 C 30.57 18.35 27.25 10.40 34.97 14.01 C 39.56 11.54 39.92 15.76 41.45 18.05 C 40.34 18.42 39.22 18.80 38.11 19.18 C 37.79 18.88 37.15 18.28 36.82 17.98 C 33.89 14.45 35.10 20.21 35.06 22.91 C 33.37 22.56 31.66 22.34 29.96 22.04 Z" />
</g>
<g id="#cdfcadff">
<path fill="#cdfcad" opacity="1.00" d=" M 43.81 18.04 C 44.09 11.25 52.41 14.60 56.98 14.04 C 58.57 19.22 51.86 16.47 48.76 17.20 C 45.24 19.79 53.88 18.93 56.32 19.12 C 54.61 21.99 43.10 23.72 43.81 18.04 Z" />
</g>
<g id="#d9febaff">
<path fill="#d9feba" opacity="1.00" d=" M 59.01 14.02 C 64.02 14.18 71.38 11.71 73.07 18.16 C 73.06 18.65 73.03 19.61 73.01 20.09 C 72.16 19.60 71.30 19.11 70.45 18.63 C 70.09 18.34 69.37 17.78 69.02 17.50 C 66.58 15.23 57.48 19.89 59.01 14.02 Z" />
</g>
<g id="#c8faa8ff">
<path fill="#c8faa8" opacity="1.00" d=" M 15.02 15.06 C 21.54 14.74 30.98 12.65 27.02 23.06 C 24.63 22.31 22.15 21.52 20.96 19.11 C 16.83 19.86 13.87 19.28 15.02 15.06 Z" />
</g>
<g id="#3e9230ff">
<path fill="#3e9230" opacity="1.00" d=" M 35.06 22.91 C 35.10 20.21 33.89 14.45 36.82 17.98 C 36.35 20.72 36.31 23.60 35.24 26.22 C 35.20 25.39 35.11 23.74 35.06 22.91 Z" />
</g>
<g id="#419535ff">
<path fill="#419535" opacity="1.00" d=" M 56.32 19.12 C 53.88 18.93 45.24 19.79 48.76 17.20 C 51.15 18.33 55.57 16.76 57.25 19.05 L 56.32 19.12 Z" />
</g>
<g id="#51a442ff">
<path fill="#51a442" opacity="1.00" d=" M 69.02 17.50 C 69.37 17.78 70.09 18.34 70.45 18.63 C 67.61 18.77 64.78 18.90 61.95 19.02 C 61.89 15.92 66.90 18.24 69.02 17.50 Z" />
</g>
<g id="#59d844ff">
<path fill="#59d844" opacity="1.00" d=" M 78.03 23.11 C 83.14 24.61 81.40 19.23 83.02 17.14 C 81.32 21.56 85.04 23.56 86.15 26.98 C 83.21 28.37 77.86 26.92 78.03 23.11 Z" />
</g>
<g id="#082408ff">
<path fill="#082408" opacity="1.00" d=" M 35.24 26.22 C 36.31 23.60 36.35 20.72 36.82 17.98 C 37.15 18.28 37.79 18.88 38.11 19.18 C 38.99 20.31 40.55 20.17 41.79 19.93 C 39.37 21.25 35.97 20.81 36.98 24.80 C 36.88 26.29 37.12 28.19 35.07 28.20 C 27.31 27.96 19.54 27.92 11.78 28.23 C 9.30 26.83 7.41 24.65 5.54 22.55 L 6.69 22.33 L 7.76 22.22 C 9.09 23.57 10.34 25.01 11.84 26.16 C 16.70 27.39 21.95 27.31 26.94 26.75 C 27.89 26.60 28.83 26.44 29.78 26.28 C 31.15 26.26 33.88 26.23 35.24 26.22 Z" />
</g>
<g id="#78c862ff">
<path fill="#78c862" opacity="1.00" d=" M 41.45 18.05 C 41.54 18.52 41.71 19.46 41.79 19.93 C 40.55 20.17 38.99 20.31 38.11 19.18 C 39.22 18.80 40.34 18.42 41.45 18.05 Z" />
</g>
<g id="#98f577ff">
<path fill="#98f577" opacity="1.00" d=" M 44.22 24.14 C 43.74 22.49 41.64 18.38 43.81 18.04 C 43.10 23.72 54.61 21.99 56.32 19.12 L 57.25 19.05 C 58.17 24.58 51.13 20.73 48.02 22.54 C 46.73 23.03 45.50 23.63 44.22 24.14 Z" />
</g>
<g id="#6bf452ff">
<path fill="#6bf452" opacity="1.00" d=" M 73.07 18.16 C 76.37 16.83 73.37 24.04 73.94 26.00 C 70.30 26.00 66.68 26.03 63.05 25.98 C 61.45 26.13 60.82 24.24 61.01 22.94 C 62.24 22.95 63.46 22.97 64.69 22.99 C 66.51 23.81 68.46 23.71 70.33 23.07 C 72.51 23.33 73.43 22.23 73.01 20.09 C 73.03 19.61 73.06 18.65 73.07 18.16 Z" />
</g>
<g id="#cbd7caff">
<path fill="#cbd7ca" opacity="1.00" d=" M 89.29 22.17 C 90.25 31.16 80.21 18.60 88.21 17.54 C 88.62 19.07 88.98 20.61 89.29 22.17 Z" />
</g>
<g id="#74fb5aff">
<path fill="#74fb5a" opacity="1.00" d=" M 20.96 19.11 C 22.15 21.52 24.63 22.31 27.02 23.06 C 27.00 23.77 26.97 25.19 26.96 25.90 C 21.92 25.98 16.88 26.04 11.84 26.16 C 10.34 25.01 9.09 23.57 7.76 22.22 C 9.53 21.99 11.29 21.74 13.05 21.42 C 16.23 23.40 22.70 24.75 20.96 19.11 Z" />
</g>
<g id="#b0fc8dff">
<path fill="#b0fc8d" opacity="1.00" d=" M 61.01 22.94 C 57.81 22.95 58.99 18.05 61.95 19.02 C 64.78 18.90 67.61 18.77 70.45 18.63 C 71.30 19.11 72.16 19.60 73.01 20.09 C 73.43 22.23 72.51 23.33 70.33 23.07 C 68.92 23.05 66.10 23.01 64.69 22.99 C 63.46 22.97 62.24 22.95 61.01 22.94 Z" />
</g>
<g id="#63ee4cff">
<path fill="#63ee4c" opacity="1.00" d=" M 29.96 22.04 C 31.66 22.34 33.37 22.56 35.06 22.91 C 35.11 23.74 35.20 25.39 35.24 26.22 C 33.88 26.23 31.15 26.26 29.78 26.28 C 29.85 24.86 29.91 23.45 29.96 22.04 Z" />
</g>
<g id="#ddeadbff">
<path fill="#ddeadb" opacity="1.00" d=" M 37.67 25.23 C 36.81 20.92 41.64 21.25 42.38 24.76 C 42.06 25.11 41.41 25.82 41.08 26.17 C 40.58 26.17 39.56 26.15 39.06 26.15 C 38.71 25.92 38.01 25.46 37.67 25.23 Z" />
</g>
<g id="#50da3dff">
<path fill="#50da3d" opacity="1.00" d=" M 44.22 24.14 C 45.50 23.63 46.73 23.03 48.02 22.54 C 51.36 23.43 58.98 20.94 56.98 26.98 C 53.19 25.74 44.89 30.09 44.22 24.14 Z" />
</g>
<g id="#206a18ff">
<path fill="#206a18" opacity="1.00" d=" M 64.69 22.99 C 66.10 23.01 68.92 23.05 70.33 23.07 C 68.46 23.71 66.51 23.81 64.69 22.99 Z" />
</g>
<g id="#50d03dff">
<path fill="#50d03d" opacity="1.00" d=" M 91.92 22.19 C 92.47 22.19 93.55 22.19 94.09 22.19 C 96.91 23.36 96.40 27.66 92.99 27.05 C 89.46 27.52 89.73 23.76 91.92 22.19 Z" />
</g>
<g id="#acc2acff">
<path fill="#acc2ac" opacity="1.00" d=" M 36.98 24.80 L 37.67 25.23 C 38.01 25.46 38.71 25.92 39.06 26.15 C 37.89 28.71 42.06 28.77 41.08 26.17 C 41.41 25.82 42.06 25.11 42.38 24.76 C 43.26 26.21 44.18 27.64 45.11 29.07 L 44.97 30.00 C 44.42 30.15 43.30 30.44 42.74 30.59 C 40.93 30.29 39.12 30.45 37.31 30.75 C 36.73 30.56 35.56 30.17 34.98 29.98 L 35.00 29.06 L 35.07 28.20 C 37.12 28.19 36.88 26.29 36.98 24.80 Z" />
</g>
<g id="#2fc022ff">
<path fill="#2fc022" opacity="1.00" d=" M 11.84 26.16 C 16.88 26.04 21.92 25.98 26.96 25.90 L 26.94 26.75 C 21.95 27.31 16.70 27.39 11.84 26.16 Z" />
</g>
<g id="#387638ff">
<path fill="#387638" opacity="1.00" d=" M 39.06 26.15 C 39.56 26.15 40.58 26.17 41.08 26.17 C 42.06 28.77 37.89 28.71 39.06 26.15 Z" />
</g>
<g id="#2fbc22ff">
<path fill="#2fbc22" opacity="1.00" d=" M 63.05 25.98 C 66.68 26.03 70.30 26.00 73.94 26.00 C 74.11 27.28 62.98 28.61 63.05 25.98 Z" />
</g>
<g id="#234c32ff">
<path fill="#234c32" opacity="1.00" d=" M 11.78 28.23 C 19.54 27.92 27.31 27.96 35.07 28.20 L 35.00 29.06 C 27.34 28.97 19.67 28.97 12.01 29.06 L 11.78 28.23 Z" />
</g>
<g id="#719d72ff">
<path fill="#719d72" opacity="1.00" d=" M 56.99 29.75 C 70.45 29.71 83.87 29.14 97.31 30.17 C 79.88 32.39 60.71 30.55 42.74 30.59 C 43.30 30.44 44.42 30.15 44.97 30.00 C 48.98 29.96 52.98 29.88 56.99 29.75 Z" />
</g>
<g id="#6e9b6eff">
<path fill="#6e9b6e" opacity="1.00" d=" M 9.65 30.81 C 10.25 30.60 11.46 30.18 12.07 29.97 C 19.70 29.96 27.34 29.97 34.98 29.98 C 35.56 30.17 36.73 30.56 37.31 30.75 C 28.09 31.10 18.87 31.04 9.65 30.81 Z" />
</g>
<g id="#a4c0a4ff">
<path fill="#a4c0a4" opacity="1.00" d=" M 9.65 30.81 C 18.87 31.04 28.09 31.10 37.31 30.75 C 30.13 32.24 16.77 33.71 9.65 30.81 Z" />
</g>
</svg>
