<?xml version="1.0" encoding="UTF-8" ?>
<!DOCTYPE svg PUBLIC "-//W3C//DTD SVG 1.1//EN" "http://www.w3.org/Graphics/SVG/1.1/DTD/svg11.dtd">
<svg width="138pt" height="34pt" viewBox="0 0 138 34" version="1.1" xmlns="http://www.w3.org/2000/svg">
<g id="#ffffffff">
<path fill="#ffffff" opacity="1.00" d=" M 0.00 0.00 L 138.00 0.00 L 138.00 34.00 L 0.00 34.00 L 0.00 0.00 M 107.03 5.30 C 105.04 4.73 103.05 4.07 100.99 3.83 C 97.15 3.78 94.98 8.25 91.03 7.71 C 84.26 8.53 77.37 9.13 70.69 7.29 C 68.03 5.66 65.40 3.33 62.01 3.85 C 58.49 3.74 55.61 5.92 53.44 8.46 C 45.71 8.51 37.97 8.51 30.25 8.18 C 26.28 7.98 24.72 3.15 20.87 2.56 C 15.47 1.47 9.48 1.05 4.36 3.44 C 0.30 5.75 1.19 11.01 1.05 14.93 C 1.30 19.67 0.40 24.63 1.95 29.22 C 3.22 32.99 7.83 32.65 11.01 32.50 C 14.87 32.53 16.02 26.98 20.01 27.37 C 22.49 26.84 23.86 29.16 25.50 30.51 C 27.71 32.78 31.15 32.35 34.03 32.45 C 40.33 32.14 47.25 33.69 52.72 29.67 C 54.34 30.75 55.84 32.44 57.93 32.44 C 69.61 32.48 81.29 32.38 92.97 32.46 C 95.35 32.56 97.59 31.42 99.95 31.57 C 107.48 33.25 115.27 32.26 122.90 31.98 C 125.83 32.30 129.07 32.67 131.56 30.70 C 134.80 28.63 135.47 24.54 135.35 20.99 C 135.19 16.91 136.23 12.95 136.60 8.92 C 136.23 4.34 131.61 0.80 127.10 1.27 C 123.04 1.52 118.98 1.31 114.92 1.27 C 111.73 1.08 109.40 3.57 107.03 5.30 Z" />
</g>
<g id="#fff090ff">
<path fill="#fff090" opacity="1.00" d=" M 107.03 5.30 C 109.40 3.57 111.73 1.08 114.92 1.27 C 118.98 1.31 123.04 1.52 127.10 1.27 C 131.61 0.80 136.23 4.34 136.60 8.92 C 136.23 12.95 135.19 16.91 135.35 20.99 C 135.47 24.54 134.80 28.63 131.56 30.70 C 129.07 32.67 125.83 32.30 122.90 31.98 C 115.27 32.26 107.48 33.25 99.95 31.57 C 97.59 31.42 95.35 32.56 92.97 32.46 C 81.29 32.38 69.61 32.48 57.93 32.44 C 55.84 32.44 54.34 30.75 52.72 29.67 C 47.25 33.69 40.33 32.14 34.03 32.45 C 31.15 32.35 27.71 32.78 25.50 30.51 C 23.86 29.16 22.49 26.84 20.01 27.37 C 16.02 26.98 14.87 32.53 11.01 32.50 C 7.83 32.65 3.22 32.99 1.95 29.22 C 0.40 24.63 1.30 19.67 1.05 14.93 C 1.19 11.01 0.30 5.75 4.36 3.44 C 9.48 1.05 15.47 1.47 20.87 2.56 C 24.72 3.15 26.28 7.98 30.25 8.18 C 37.97 8.51 45.71 8.51 53.44 8.46 C 55.61 5.92 58.49 3.74 62.01 3.85 C 65.40 3.33 68.03 5.66 70.69 7.29 C 77.37 9.13 84.26 8.53 91.03 7.71 C 94.98 8.25 97.15 3.78 100.99 3.83 C 103.05 4.07 105.04 4.73 107.03 5.30 M 114.36 3.31 C 111.77 4.25 110.06 6.58 107.72 7.94 C 105.26 8.46 103.37 6.13 100.99 5.97 C 98.41 5.63 97.26 8.44 95.76 10.00 C 92.04 10.08 88.25 9.66 84.61 10.63 C 79.50 12.05 74.47 9.27 69.29 9.98 C 67.58 8.18 65.74 6.00 63.02 5.96 C 59.19 5.68 56.15 8.50 53.64 11.02 C 51.32 11.15 49.05 10.71 46.77 10.33 C 44.24 10.37 41.72 11.61 39.18 10.75 C 35.27 9.70 31.22 10.02 27.22 10.02 C 24.41 7.66 21.70 4.59 17.81 4.20 C 13.92 3.91 9.79 3.54 6.07 5.00 C 3.66 5.86 2.94 8.74 3.01 11.03 C 3.02 15.68 2.93 20.34 3.05 24.99 C 3.05 26.88 4.28 28.43 5.10 30.04 C 7.65 29.99 10.20 29.99 12.75 29.97 C 14.23 28.29 15.73 26.62 17.22 24.96 C 19.29 25.04 21.44 24.77 23.44 25.43 C 25.40 26.49 26.73 28.36 28.23 29.96 C 35.05 30.03 41.87 30.03 48.69 29.94 C 49.72 28.90 50.75 27.85 51.77 26.79 C 52.05 26.96 52.60 27.29 52.88 27.46 C 54.41 28.52 55.92 30.02 57.92 29.98 C 69.60 30.05 81.29 29.97 92.97 30.01 C 95.39 30.20 97.64 28.90 100.04 29.07 C 105.89 30.55 112.02 30.02 117.98 29.83 C 121.86 28.30 125.71 30.61 129.69 29.96 C 130.76 28.86 131.83 27.77 132.93 26.69 C 132.85 20.66 132.96 14.51 134.99 8.75 C 134.14 7.13 133.09 5.62 131.91 4.22 C 129.26 3.43 126.51 2.69 123.82 3.75 C 120.64 4.94 117.52 2.18 114.36 3.31 Z" />
</g>
<g id="#e5e3daff">
<path fill="#e5e3da" opacity="1.00" d=" M 114.36 3.31 C 117.52 2.18 120.64 4.94 123.82 3.75 C 126.51 2.69 129.26 3.43 131.91 4.22 C 133.09 5.62 134.14 7.13 134.99 8.75 C 132.96 14.51 132.85 20.66 132.93 26.69 C 131.83 27.77 130.76 28.86 129.69 29.96 C 125.71 30.61 121.86 28.30 117.98 29.83 C 112.02 30.02 105.89 30.55 100.04 29.07 C 97.64 28.90 95.39 30.20 92.97 30.01 C 81.29 29.97 69.60 30.05 57.92 29.98 C 55.92 30.02 54.41 28.52 52.88 27.46 C 53.72 26.61 53.00 22.83 51.79 24.80 C 51.79 25.30 51.78 26.30 51.77 26.79 C 50.75 27.85 49.72 28.90 48.69 29.94 C 41.87 30.03 35.05 30.03 28.23 29.96 C 26.73 28.36 25.40 26.49 23.44 25.43 C 21.44 24.77 19.29 25.04 17.22 24.96 C 15.73 26.62 14.23 28.29 12.75 29.97 C 10.20 29.99 7.65 29.99 5.10 30.04 C 4.28 28.43 3.05 26.88 3.05 24.99 C 2.93 20.34 3.02 15.68 3.01 11.03 C 2.94 8.74 3.66 5.86 6.07 5.00 C 9.79 3.54 13.92 3.91 17.81 4.20 C 21.70 4.59 24.41 7.66 27.22 10.02 C 31.22 10.02 35.27 9.70 39.18 10.75 C 41.72 11.61 44.24 10.37 46.77 10.33 C 49.05 10.71 51.32 11.15 53.64 11.02 C 56.15 8.50 59.19 5.68 63.02 5.96 C 65.74 6.00 67.58 8.18 69.29 9.98 C 74.47 9.27 79.50 12.05 84.61 10.63 C 88.25 9.66 92.04 10.08 95.76 10.00 C 97.26 8.44 98.41 5.63 100.99 5.97 C 103.37 6.13 105.26 8.46 107.72 7.94 C 110.06 6.58 111.77 4.25 114.36 3.31 M 110.24 7.85 C 111.13 11.35 111.53 14.95 112.47 18.44 C 113.46 21.19 112.23 24.01 112.18 26.80 L 111.46 26.77 C 112.69 29.82 116.19 29.05 118.80 28.83 C 121.80 27.99 121.96 24.39 120.88 21.98 C 121.36 19.89 121.72 17.76 122.36 15.71 C 122.67 17.88 122.97 20.05 123.33 22.21 L 122.64 22.74 C 122.59 24.51 122.60 26.27 122.52 28.04 C 124.54 29.24 126.88 29.00 129.12 29.02 C 130.11 27.79 132.20 26.83 131.90 25.01 C 131.06 19.51 132.66 14.08 133.57 8.70 C 132.03 3.37 125.40 4.76 121.29 5.53 C 117.55 4.70 112.33 3.62 110.24 7.85 M 5.40 6.45 C 4.30 9.09 4.90 12.12 4.75 14.92 C 4.96 19.51 4.28 24.18 5.26 28.70 C 7.52 29.23 9.89 28.99 12.20 28.92 C 14.15 28.18 14.19 25.87 14.53 24.14 C 18.12 23.88 21.75 24.22 25.33 23.64 C 26.33 25.48 26.85 28.22 29.06 28.91 C 35.47 29.13 41.90 28.92 48.31 29.02 C 50.56 27.43 50.07 24.63 50.24 22.22 C 51.78 22.14 53.31 21.94 54.85 21.88 C 55.13 20.83 55.38 19.79 55.62 18.73 C 55.39 21.82 55.25 24.92 54.97 28.01 C 57.63 29.43 60.90 29.24 63.75 28.63 C 64.75 26.92 64.57 24.89 64.57 22.99 C 65.18 24.98 65.14 27.61 66.97 28.90 C 71.63 29.12 76.30 28.94 80.97 29.00 C 81.36 28.09 81.74 27.18 82.12 26.27 C 82.83 27.15 83.53 28.03 84.24 28.91 C 87.53 29.05 90.81 28.99 94.10 29.00 C 95.57 29.18 97.67 28.55 97.83 26.82 L 97.90 27.46 C 98.00 26.85 98.20 25.64 98.30 25.04 C 99.75 26.44 101.00 28.42 103.11 28.87 C 105.35 29.09 107.62 29.05 109.87 28.91 C 112.58 26.38 109.20 24.13 107.16 22.83 C 107.02 21.51 106.93 20.18 106.88 18.85 C 108.18 18.48 109.44 18.01 110.74 17.64 C 110.46 15.90 111.77 13.17 109.61 12.32 C 106.82 10.83 104.60 8.46 101.68 7.21 C 100.41 6.48 99.23 7.78 98.08 8.13 C 97.96 9.35 97.83 10.56 97.70 11.77 C 92.51 11.87 86.14 9.74 82.00 13.82 C 78.03 10.47 72.30 12.18 67.55 12.06 C 67.36 10.81 67.15 9.57 66.94 8.33 C 64.73 7.76 62.40 6.79 60.11 7.60 C 57.08 8.36 55.77 11.85 52.77 12.61 C 50.20 12.22 47.62 11.73 45.01 11.94 C 39.16 12.45 33.24 11.11 27.45 12.38 C 24.57 9.88 22.17 5.78 17.91 5.79 C 13.77 5.78 9.37 5.18 5.40 6.45 M 108.36 19.37 C 108.43 20.41 108.50 21.45 108.58 22.49 C 109.52 22.58 110.46 22.67 111.41 22.77 C 111.46 21.70 111.51 20.64 111.56 19.57 C 110.49 19.50 109.43 19.44 108.36 19.37 Z" />
</g>
<g id="#412408ff">
<path fill="#412408" opacity="1.00" d=" M 110.24 7.85 C 112.33 3.62 117.55 4.70 121.29 5.53 C 125.40 4.76 132.03 3.37 133.57 8.70 C 132.66 14.08 131.06 19.51 131.90 25.01 C 132.20 26.83 130.11 27.79 129.12 29.02 C 126.88 29.00 124.54 29.24 122.52 28.04 C 122.60 26.27 122.59 24.51 122.64 22.74 L 123.33 22.21 C 123.73 21.91 124.53 21.31 124.93 21.01 C 125.45 22.97 128.54 23.60 129.12 21.33 C 130.10 17.99 130.62 14.52 131.13 11.08 C 131.24 9.71 131.23 8.33 131.22 6.96 C 128.29 6.88 125.36 6.99 122.50 7.65 C 118.46 6.48 114.24 6.51 110.24 7.85 M 124.12 23.69 C 124.18 24.47 124.30 26.02 124.36 26.80 C 125.90 26.81 127.43 26.85 128.97 26.73 C 129.22 25.87 129.72 24.14 129.97 23.28 C 128.01 23.34 126.06 23.49 124.12 23.69 Z" />
</g>
<g id="#4f2305ff">
<path fill="#4f2305" opacity="1.00" d=" M 5.40 6.45 C 9.37 5.18 13.77 5.78 17.91 5.79 C 22.17 5.78 24.57 9.88 27.45 12.38 C 33.24 11.11 39.16 12.45 45.01 11.94 C 47.62 11.73 50.20 12.22 52.77 12.61 C 55.77 11.85 57.08 8.36 60.11 7.60 C 62.40 6.79 64.73 7.76 66.94 8.33 C 67.15 9.57 67.36 10.81 67.55 12.06 C 72.30 12.18 78.03 10.47 82.00 13.82 C 86.14 9.74 92.51 11.87 97.70 11.77 C 97.83 10.56 97.96 9.35 98.08 8.13 C 99.23 7.78 100.41 6.48 101.68 7.21 C 104.60 8.46 106.82 10.83 109.61 12.32 C 111.77 13.17 110.46 15.90 110.74 17.64 C 109.44 18.01 108.18 18.48 106.88 18.85 C 106.93 20.18 107.02 21.51 107.16 22.83 C 109.20 24.13 112.58 26.38 109.87 28.91 C 107.62 29.05 105.35 29.09 103.11 28.87 C 101.00 28.42 99.75 26.44 98.30 25.04 C 98.62 22.77 98.65 20.48 98.74 18.20 C 97.37 18.43 96.01 18.66 94.65 18.88 C 93.02 19.11 91.41 19.48 89.84 19.98 C 89.95 20.44 90.19 21.36 90.30 21.82 C 92.35 21.89 94.71 21.10 96.48 22.50 C 97.74 23.54 97.52 25.37 97.83 26.82 C 97.67 28.55 95.57 29.18 94.10 29.00 C 90.81 28.99 87.53 29.05 84.24 28.91 C 83.53 28.03 82.83 27.15 82.12 26.27 C 81.74 27.18 81.36 28.09 80.97 29.00 C 76.30 28.94 71.63 29.12 66.97 28.90 C 65.14 27.61 65.18 24.98 64.57 22.99 C 64.57 24.89 64.75 26.92 63.75 28.63 C 60.90 29.24 57.63 29.43 54.97 28.01 C 55.25 24.92 55.39 21.82 55.62 18.73 C 55.38 19.79 55.13 20.83 54.85 21.88 C 53.31 21.94 51.78 22.14 50.24 22.22 C 50.07 24.63 50.56 27.43 48.31 29.02 C 41.90 28.92 35.47 29.13 29.06 28.91 C 26.85 28.22 26.33 25.48 25.33 23.64 C 21.75 24.22 18.12 23.88 14.53 24.14 C 14.19 25.87 14.15 28.18 12.20 28.92 C 9.89 28.99 7.52 29.23 5.26 28.70 C 4.28 24.18 4.96 19.51 4.75 14.92 C 4.90 12.12 4.30 9.09 5.40 6.45 M 6.39 8.16 C 6.74 14.43 6.18 20.71 6.75 26.97 C 8.51 26.95 10.27 26.92 12.03 26.91 C 12.02 25.44 11.99 23.97 11.96 22.50 C 15.55 21.40 19.35 21.99 23.04 21.97 C 23.71 20.70 24.45 19.47 25.09 18.19 C 25.78 16.89 26.36 15.54 27.01 14.23 C 24.92 12.20 23.05 9.84 20.50 8.36 L 21.60 8.20 C 16.56 7.63 11.44 7.70 6.39 8.16 M 99.94 8.87 C 99.81 10.39 99.70 11.90 99.59 13.42 C 97.48 13.29 97.22 14.88 97.20 16.54 C 97.84 16.71 99.13 17.04 99.77 17.21 C 99.71 17.83 99.58 19.06 99.52 19.68 C 99.66 21.11 99.83 22.54 100.02 23.97 L 100.62 23.90 C 101.94 27.47 105.73 27.02 108.82 26.91 C 107.88 25.67 106.91 24.46 105.96 23.22 L 105.25 23.32 C 105.17 21.67 105.08 20.02 104.98 18.37 C 105.02 16.38 107.09 17.05 108.40 16.82 C 108.44 16.05 108.51 14.51 108.55 13.75 C 107.75 13.74 106.15 13.73 105.35 13.72 C 105.26 13.05 105.06 11.70 104.97 11.03 C 103.44 10.00 101.75 9.23 99.94 8.87 M 56.44 13.48 C 53.64 13.95 53.73 17.61 56.71 17.56 C 56.73 18.89 56.75 20.22 56.79 21.55 C 56.73 22.21 56.63 23.52 56.57 24.18 C 56.66 24.86 56.83 26.24 56.92 26.92 C 58.61 26.92 60.30 26.91 62.00 26.91 C 62.07 26.22 62.22 24.86 62.29 24.18 C 62.25 23.54 62.17 22.26 62.12 21.62 C 62.18 20.17 62.21 18.72 62.25 17.27 C 63.02 17.25 64.56 17.21 65.33 17.19 C 65.32 16.42 65.29 14.87 65.28 14.10 C 64.36 13.92 62.52 13.54 61.60 13.35 C 62.85 12.95 64.15 12.69 65.44 12.44 C 65.35 11.76 65.17 10.41 65.08 9.73 C 63.37 9.57 61.65 9.55 59.93 9.48 C 58.69 10.76 57.53 12.09 56.44 13.48 M 29.18 14.15 C 28.42 15.75 27.61 17.33 26.88 18.96 C 26.17 20.95 27.16 22.88 27.79 24.74 C 28.12 25.26 28.77 26.30 29.10 26.82 C 32.92 27.19 36.76 26.90 40.58 26.91 L 40.98 26.90 C 40.87 25.23 40.71 23.56 40.59 21.89 C 40.56 21.13 40.50 19.59 40.47 18.83 C 37.24 18.87 34.01 18.94 30.78 18.73 C 33.25 16.13 37.41 17.96 40.57 17.47 C 40.55 16.62 40.51 14.92 40.49 14.07 C 36.72 14.11 32.95 14.09 29.18 14.15 M 42.57 26.69 C 44.36 26.73 46.16 26.79 47.95 26.82 C 48.09 24.65 48.18 22.49 48.24 20.32 C 48.29 19.41 48.38 17.58 48.43 16.67 C 49.12 17.69 49.83 18.69 50.52 19.70 C 51.28 19.79 52.81 19.97 53.58 20.06 C 52.92 17.98 52.11 15.95 51.11 14.00 C 48.27 14.00 45.43 13.97 42.60 13.97 C 42.28 18.20 42.48 22.45 42.57 26.69 M 68.13 14.11 C 67.49 15.49 66.93 16.91 66.32 18.31 L 65.77 18.26 C 65.55 20.46 65.94 22.62 66.78 24.65 C 66.98 25.13 67.40 26.09 67.60 26.57 C 71.62 27.45 75.80 26.85 79.88 26.91 C 79.73 25.25 79.65 23.58 79.58 21.91 C 79.57 21.14 79.56 19.59 79.55 18.82 C 76.19 18.88 72.83 18.94 69.48 18.57 C 72.43 16.48 76.25 17.75 79.59 17.47 C 79.54 16.61 79.46 14.89 79.42 14.04 C 75.66 14.13 71.90 14.11 68.13 14.11 M 81.49 17.81 C 81.54 19.49 81.57 21.17 81.61 22.85 C 83.01 24.16 84.17 25.98 86.03 26.66 C 89.24 26.99 92.47 26.73 95.69 26.73 C 95.62 25.64 95.56 24.55 95.50 23.46 C 93.94 23.48 92.38 23.49 90.83 23.52 C 89.66 22.23 88.36 20.92 88.41 19.04 C 89.79 16.23 93.07 16.81 95.64 16.74 C 95.70 16.02 95.82 14.59 95.88 13.87 C 92.56 13.74 89.21 13.49 85.90 13.82 C 84.00 14.53 82.89 16.43 81.49 17.81 Z" />
<path fill="#4f2305" opacity="1.00" d=" M 12.17 12.19 C 14.28 12.25 16.44 12.06 18.51 12.51 C 19.95 13.26 20.34 14.99 21.12 16.28 C 18.11 16.46 15.09 16.42 12.08 16.46 C 12.11 15.04 12.13 13.61 12.17 12.19 M 13.44 14.26 C 13.56 15.95 21.29 14.52 17.27 13.56 C 15.84 13.21 14.56 13.44 13.44 14.26 Z" />
</g>
<g id="#60410dff">
<path fill="#60410d" opacity="1.00" d=" M 110.24 7.85 C 114.24 6.51 118.46 6.48 122.50 7.65 C 122.80 9.18 123.13 10.71 123.42 12.25 C 123.89 15.18 124.37 18.10 124.93 21.01 C 124.53 21.31 123.73 21.91 123.33 22.21 C 122.97 20.05 122.67 17.88 122.36 15.71 C 121.72 17.76 121.36 19.89 120.88 21.98 C 120.27 23.73 119.51 25.41 118.81 27.13 C 116.60 27.00 114.39 26.89 112.18 26.80 C 112.23 24.01 113.46 21.19 112.47 18.44 C 111.53 14.95 111.13 11.35 110.24 7.85 M 112.63 8.95 C 113.05 13.33 113.58 17.77 114.99 21.95 C 116.03 23.69 118.58 22.54 118.74 20.83 C 119.73 16.39 120.71 11.88 120.70 7.31 C 117.87 7.08 115.07 7.42 112.63 8.95 M 113.85 23.60 C 113.93 24.32 114.10 25.76 114.19 26.48 C 116.39 27.37 120.11 26.97 119.31 23.73 C 117.50 23.41 115.67 23.53 113.85 23.60 Z" />
</g>
<g id="#d8b03eff">
<path fill="#d8b03e" opacity="1.00" d=" M 122.50 7.65 C 125.36 6.99 128.29 6.88 131.22 6.96 C 131.23 8.33 131.24 9.71 131.13 11.08 C 131.06 10.50 130.90 9.33 130.82 8.74 C 128.44 8.62 126.06 8.64 123.67 8.64 C 123.61 9.54 123.48 11.35 123.42 12.25 C 123.13 10.71 122.80 9.18 122.50 7.65 Z" />
</g>
<g id="#e58947ff">
<path fill="#e58947" opacity="1.00" d=" M 6.39 8.16 C 11.44 7.70 16.56 7.63 21.60 8.20 L 20.50 8.36 C 15.95 8.66 11.40 8.50 6.85 8.59 C 6.71 12.36 6.60 16.15 6.76 19.93 C 6.87 21.25 7.00 22.57 7.13 23.89 C 8.74 23.42 10.35 22.96 11.96 22.50 C 11.99 23.97 12.02 25.44 12.03 26.91 C 10.27 26.92 8.51 26.95 6.75 26.97 C 6.18 20.71 6.74 14.43 6.39 8.16 Z" />
<path fill="#e58947" opacity="1.00" d=" M 56.57 24.18 C 58.48 24.18 60.39 24.18 62.29 24.18 C 62.22 24.86 62.07 26.22 62.00 26.91 C 60.30 26.91 58.61 26.92 56.92 26.92 C 56.83 26.24 56.66 24.86 56.57 24.18 Z" />
</g>
<g id="#fdfa50ff">
<path fill="#fdfa50" opacity="1.00" d=" M 112.63 8.95 C 115.07 7.42 117.87 7.08 120.70 7.31 C 120.71 11.88 119.73 16.39 118.74 20.83 C 118.58 22.54 116.03 23.69 114.99 21.95 C 113.58 17.77 113.05 13.33 112.63 8.95 Z" />
</g>
<g id="#fdfb51ff">
<path fill="#fdfb51" opacity="1.00" d=" M 6.85 8.59 C 11.40 8.50 15.95 8.66 20.50 8.36 C 23.05 9.84 24.92 12.20 27.01 14.23 C 26.36 15.54 25.78 16.89 25.09 18.19 C 23.76 17.56 22.44 16.92 21.12 16.28 C 20.34 14.99 19.95 13.26 18.51 12.51 C 16.44 12.06 14.28 12.25 12.17 12.19 C 12.13 13.61 12.11 15.04 12.08 16.46 C 9.82 16.75 8.13 18.20 6.76 19.93 C 6.60 16.15 6.71 12.36 6.85 8.59 Z" />
<path fill="#fdfb51" opacity="1.00" d=" M 123.67 8.64 C 126.06 8.64 128.44 8.62 130.82 8.74 C 130.90 9.33 131.06 10.50 131.13 11.08 C 130.62 14.52 130.10 17.99 129.12 21.33 C 128.54 23.60 125.45 22.97 124.93 21.01 C 124.37 18.10 123.89 15.18 123.42 12.25 C 123.48 11.35 123.61 9.54 123.67 8.64 Z" />
</g>
<g id="#fffd51ff">
<path fill="#fffd51" opacity="1.00" d=" M 99.94 8.87 C 101.75 9.23 103.44 10.00 104.97 11.03 C 105.06 11.70 105.26 13.05 105.35 13.72 C 106.15 13.73 107.75 13.74 108.55 13.75 C 108.51 14.51 108.44 16.05 108.40 16.82 C 107.09 17.05 105.02 16.38 104.98 18.37 C 103.05 18.27 101.19 18.71 99.52 19.68 C 99.58 19.06 99.71 17.83 99.77 17.21 C 99.13 17.04 97.84 16.71 97.20 16.54 C 97.22 14.88 97.48 13.29 99.59 13.42 C 99.70 11.90 99.81 10.39 99.94 8.87 Z" />
</g>
<g id="#fcf850ff">
<path fill="#fcf850" opacity="1.00" d=" M 56.44 13.48 C 57.53 12.09 58.69 10.76 59.93 9.48 C 61.65 9.55 63.37 9.57 65.08 9.73 C 65.17 10.41 65.35 11.76 65.44 12.44 C 64.15 12.69 62.85 12.95 61.60 13.35 C 62.52 13.54 64.36 13.92 65.28 14.10 C 65.29 14.87 65.32 16.42 65.33 17.19 C 64.56 17.21 63.02 17.25 62.25 17.27 C 62.21 18.72 62.18 20.17 62.12 21.62 C 60.36 21.26 58.56 21.24 56.79 21.55 C 56.75 20.22 56.73 18.89 56.71 17.56 C 53.73 17.61 53.64 13.95 56.44 13.48 Z" />
</g>
<g id="#ffff52ff">
<path fill="#ffff52" opacity="1.00" d=" M 13.44 14.26 C 14.56 13.44 15.84 13.21 17.27 13.56 C 21.29 14.52 13.56 15.95 13.44 14.26 Z" />
<path fill="#ffff52" opacity="1.00" d=" M 29.18 14.15 C 32.95 14.09 36.72 14.11 40.49 14.07 C 40.51 14.92 40.55 16.62 40.57 17.47 C 37.41 17.96 33.25 16.13 30.78 18.73 C 34.01 18.94 37.24 18.87 40.47 18.83 C 40.50 19.59 40.56 21.13 40.59 21.89 L 39.65 21.75 C 35.68 20.75 31.59 20.63 27.52 20.59 C 27.36 20.18 27.04 19.37 26.88 18.96 C 27.61 17.33 28.42 15.75 29.18 14.15 Z" />
<path fill="#ffff52" opacity="1.00" d=" M 68.13 14.11 C 71.90 14.11 75.66 14.13 79.42 14.04 C 79.46 14.89 79.54 16.61 79.59 17.47 C 76.25 17.75 72.43 16.48 69.48 18.57 C 68.43 18.48 67.37 18.39 66.32 18.31 C 66.93 16.91 67.49 15.49 68.13 14.11 Z" />
</g>
<g id="#eab749ff">
<path fill="#eab749" opacity="1.00" d=" M 42.57 26.69 C 42.48 22.45 42.28 18.20 42.60 13.97 C 42.81 16.24 43.00 18.51 43.18 20.79 C 44.87 20.63 46.56 20.49 48.24 20.32 C 48.18 22.49 48.09 24.65 47.95 26.82 C 46.16 26.79 44.36 26.73 42.57 26.69 Z" />
</g>
<g id="#fbf450ff">
<path fill="#fbf450" opacity="1.00" d=" M 42.60 13.97 C 45.43 13.97 48.27 14.00 51.11 14.00 C 52.11 15.95 52.92 17.98 53.58 20.06 C 52.81 19.97 51.28 19.79 50.52 19.70 C 49.83 18.69 49.12 17.69 48.43 16.67 C 48.38 17.58 48.29 19.41 48.24 20.32 C 46.56 20.49 44.87 20.63 43.18 20.79 C 43.00 18.51 42.81 16.24 42.60 13.97 Z" />
</g>
<g id="#fbf44fff">
<path fill="#fbf44f" opacity="1.00" d=" M 81.49 17.81 C 82.89 16.43 84.00 14.53 85.90 13.82 C 89.21 13.49 92.56 13.74 95.88 13.87 C 95.82 14.59 95.70 16.02 95.64 16.74 C 93.07 16.81 89.79 16.23 88.41 19.04 C 88.13 20.03 87.87 21.03 87.64 22.04 C 85.63 22.29 83.62 22.59 81.61 22.85 C 81.57 21.17 81.54 19.49 81.49 17.81 Z" />
</g>
<g id="#f6e64fff">
<path fill="#f6e64f" opacity="1.00" d=" M 12.08 16.46 C 15.09 16.42 18.11 16.46 21.12 16.28 C 22.44 16.92 23.76 17.56 25.09 18.19 C 24.45 19.47 23.71 20.70 23.04 21.97 C 19.35 21.99 15.55 21.40 11.96 22.50 C 10.35 22.96 8.74 23.42 7.13 23.89 C 7.00 22.57 6.87 21.25 6.76 19.93 C 8.13 18.20 9.82 16.75 12.08 16.46 Z" />
</g>
<g id="#f6e450ff">
<path fill="#f6e450" opacity="1.00" d=" M 65.77 18.26 L 66.32 18.31 C 67.37 18.39 68.43 18.48 69.48 18.57 C 72.83 18.94 76.19 18.88 79.55 18.82 C 79.56 19.59 79.57 21.14 79.58 21.91 C 76.18 21.91 72.78 21.90 69.39 22.15 C 71.64 25.13 75.76 23.71 78.95 24.27 C 79.07 24.61 79.31 25.28 79.44 25.62 C 75.39 24.09 71.01 24.40 66.78 24.65 C 65.94 22.62 65.55 20.46 65.77 18.26 Z" />
</g>
<g id="#7a6e53ff">
<path fill="#7a6e53" opacity="1.00" d=" M 94.65 18.88 C 96.01 18.66 97.37 18.43 98.74 18.20 C 98.65 20.48 98.62 22.77 98.30 25.04 C 98.20 25.64 98.00 26.85 97.90 27.46 L 97.83 26.82 C 97.52 25.37 97.74 23.54 96.48 22.50 C 94.71 21.10 92.35 21.89 90.30 21.82 C 90.19 21.36 89.95 20.44 89.84 19.98 C 92.40 21.01 95.15 21.42 97.85 21.92 C 97.79 21.15 97.67 19.61 97.61 18.84 C 96.87 18.85 95.39 18.87 94.65 18.88 Z" />
</g>
<g id="#f1da4dff">
<path fill="#f1da4d" opacity="1.00" d=" M 99.52 19.68 C 101.19 18.71 103.05 18.27 104.98 18.37 C 105.08 20.02 105.17 21.67 105.25 23.32 C 103.71 23.52 102.16 23.69 100.62 23.90 L 100.02 23.97 C 99.83 22.54 99.66 21.11 99.52 19.68 Z" />
</g>
<g id="#eecb4aff">
<path fill="#eecb4a" opacity="1.00" d=" M 27.79 24.74 C 27.16 22.88 26.17 20.95 26.88 18.96 C 27.04 19.37 27.36 20.18 27.52 20.59 C 31.59 20.63 35.68 20.75 39.65 21.75 C 36.78 22.25 32.98 21.04 30.71 23.07 C 33.61 24.57 36.99 23.98 40.13 24.09 C 40.19 24.48 40.31 25.26 40.37 25.65 C 36.30 24.35 31.99 24.47 27.79 24.74 Z" />
</g>
<g id="#e69f48ff">
<path fill="#e69f48" opacity="1.00" d=" M 87.64 22.04 C 87.87 21.03 88.13 20.03 88.41 19.04 C 88.36 20.92 89.66 22.23 90.83 23.52 C 92.38 23.49 93.94 23.48 95.50 23.46 C 95.56 24.55 95.62 25.64 95.69 26.73 C 92.47 26.73 89.24 26.99 86.03 26.66 C 84.17 25.98 83.01 24.16 81.61 22.85 C 83.62 22.59 85.63 22.29 87.64 22.04 Z" />
</g>
<g id="#f2f2ecff">
<path fill="#f2f2ec" opacity="1.00" d=" M 89.84 19.98 C 91.41 19.48 93.02 19.11 94.65 18.88 C 95.39 18.87 96.87 18.85 97.61 18.84 C 97.67 19.61 97.79 21.15 97.85 21.92 C 95.15 21.42 92.40 21.01 89.84 19.98 Z" />
</g>
<g id="#ffdd00ff">
<path fill="#ffdd00" opacity="1.00" d=" M 108.36 19.37 C 109.43 19.44 110.49 19.50 111.56 19.57 C 111.51 20.64 111.46 21.70 111.41 22.77 C 110.46 22.67 109.52 22.58 108.58 22.49 C 108.50 21.45 108.43 20.41 108.36 19.37 Z" />
</g>
<g id="#efc84aff">
<path fill="#efc84a" opacity="1.00" d=" M 56.79 21.55 C 58.56 21.24 60.36 21.26 62.12 21.62 C 62.17 22.26 62.25 23.54 62.29 24.18 C 60.39 24.18 58.48 24.18 56.57 24.18 C 56.63 23.52 56.73 22.21 56.79 21.55 Z" />
</g>
<g id="#834811ff">
<path fill="#834811" opacity="1.00" d=" M 30.71 23.07 C 32.98 21.04 36.78 22.25 39.65 21.75 L 40.59 21.89 C 40.71 23.56 40.87 25.23 40.98 26.90 L 40.58 26.91 L 40.37 25.65 C 40.31 25.26 40.19 24.48 40.13 24.09 C 36.99 23.98 33.61 24.57 30.71 23.07 Z" />
</g>
<g id="#814711ff">
<path fill="#814711" opacity="1.00" d=" M 69.39 22.15 C 72.78 21.90 76.18 21.91 79.58 21.91 C 79.65 23.58 79.73 25.25 79.88 26.91 L 79.44 25.62 C 79.31 25.28 79.07 24.61 78.95 24.27 C 75.76 23.71 71.64 25.13 69.39 22.15 Z" />
</g>
<g id="#e58a47ff">
<path fill="#e58a47" opacity="1.00" d=" M 105.25 23.32 L 105.96 23.22 C 106.91 24.46 107.88 25.67 108.82 26.91 C 105.73 27.02 101.94 27.47 100.62 23.90 C 102.16 23.69 103.71 23.52 105.25 23.32 Z" />
</g>
<g id="#28190cff">
<path fill="#28190c" opacity="1.00" d=" M 118.81 27.13 C 119.51 25.41 120.27 23.73 120.88 21.98 C 121.96 24.39 121.80 27.99 118.80 28.83 C 116.19 29.05 112.69 29.82 111.46 26.77 L 112.18 26.80 C 114.39 26.89 116.60 27.00 118.81 27.13 Z" />
</g>
<g id="#ffde06ff">
<path fill="#ffde06" opacity="1.00" d=" M 51.79 24.80 C 53.00 22.83 53.72 26.61 52.88 27.46 C 52.60 27.29 52.05 26.96 51.77 26.79 C 51.78 26.30 51.79 25.30 51.79 24.80 Z" />
</g>
<g id="#e99948ff">
<path fill="#e99948" opacity="1.00" d=" M 113.85 23.60 C 115.67 23.53 117.50 23.41 119.31 23.73 C 120.11 26.97 116.39 27.37 114.19 26.48 C 114.10 25.76 113.93 24.32 113.85 23.60 Z" />
</g>
<g id="#e68a48ff">
<path fill="#e68a48" opacity="1.00" d=" M 124.12 23.69 C 126.06 23.49 128.01 23.34 129.97 23.28 C 129.72 24.14 129.22 25.87 128.97 26.73 C 127.43 26.85 125.90 26.81 124.36 26.80 C 124.30 26.02 124.18 24.47 124.12 23.69 Z" />
</g>
<g id="#de7f45ff">
<path fill="#de7f45" opacity="1.00" d=" M 27.79 24.74 C 31.99 24.47 36.30 24.35 40.37 25.65 L 40.58 26.91 C 36.76 26.90 32.92 27.19 29.10 26.82 C 28.77 26.30 28.12 25.26 27.79 24.74 Z" />
</g>
<g id="#db7d43ff">
<path fill="#db7d43" opacity="1.00" d=" M 66.78 24.65 C 71.01 24.40 75.39 24.09 79.44 25.62 L 79.88 26.91 C 75.80 26.85 71.62 27.45 67.60 26.57 C 67.40 26.09 66.98 25.13 66.78 24.65 Z" />
</g>
</svg>
