<?xml version="1.0" encoding="UTF-8" ?>
<!DOCTYPE svg PUBLIC "-//W3C//DTD SVG 1.1//EN" "http://www.w3.org/Graphics/SVG/1.1/DTD/svg11.dtd">
<svg width="225pt" height="225pt" viewBox="0 0 225 225" version="1.1" xmlns="http://www.w3.org/2000/svg">
<g id="#6b6b6bff">
<path fill="#6b6b6b" opacity="1.00" d=" M 99.98 0.00 L 110.44 0.00 C 107.01 0.76 103.52 1.15 100.00 1.09 L 99.98 0.00 Z" />
<path fill="#6b6b6b" opacity="1.00" d=" M 114.55 0.00 L 125.01 0.00 L 125.09 1.07 C 121.54 1.17 118.02 0.76 114.55 0.00 Z" />
</g>
<g id="#010002ff">
<path fill="#010002" opacity="1.00" d=" M 110.44 0.00 L 114.55 0.00 C 118.02 0.76 121.54 1.17 125.09 1.07 C 125.79 1.09 127.17 1.12 127.87 1.14 C 128.96 2.27 130.57 2.32 132.04 2.11 C 132.49 2.10 133.40 2.07 133.85 2.06 C 134.71 3.10 135.80 3.47 137.11 3.15 C 137.54 3.13 138.41 3.10 138.84 3.08 C 139.42 3.29 140.58 3.71 141.15 3.92 C 141.74 4.06 142.92 4.35 143.51 4.49 C 143.65 4.53 143.92 4.62 144.06 4.67 C 144.53 4.83 145.46 5.15 145.93 5.31 C 146.09 5.37 146.42 5.48 146.59 5.54 C 147.17 5.73 148.35 6.11 148.94 6.30 C 149.18 6.38 149.68 6.55 149.92 6.64 C 158.93 9.74 167.46 14.16 175.39 19.43 C 175.44 19.47 175.56 19.54 175.61 19.58 C 177.69 21.02 179.73 22.52 181.72 24.07 C 182.09 25.26 182.91 25.89 184.19 25.97 C 185.68 27.32 187.16 28.69 188.64 30.05 C 190.67 32.25 192.81 34.35 194.99 36.40 C 206.68 48.97 215.35 64.34 220.12 80.83 C 220.32 81.40 220.71 82.56 220.91 83.14 C 220.91 83.54 220.92 84.33 220.92 84.73 C 221.17 85.30 221.67 86.45 221.91 87.02 C 221.92 87.48 221.93 88.39 221.94 88.85 C 222.18 89.41 222.67 90.53 222.91 91.08 C 222.90 91.81 222.89 93.26 222.88 93.99 C 222.68 95.45 222.76 97.04 223.86 98.15 C 223.88 98.85 223.92 100.26 223.94 100.96 C 223.99 104.52 223.86 108.14 225.00 111.57 L 225.00 116.39 C 224.02 119.17 223.91 122.12 223.91 125.04 C 223.92 125.75 223.93 127.19 223.93 127.90 C 222.79 128.70 222.50 129.80 223.08 131.20 C 223.03 131.89 222.92 133.28 222.86 133.97 C 222.63 134.54 222.16 135.69 221.93 136.26 C 221.92 136.91 221.89 138.20 221.88 138.85 C 221.68 139.43 221.27 140.58 221.06 141.15 C 220.93 141.70 220.66 142.80 220.53 143.35 C 220.51 143.42 220.47 143.57 220.45 143.65 C 220.29 144.20 219.97 145.30 219.81 145.85 C 219.55 146.59 219.03 148.08 218.77 148.82 L 218.59 149.30 C 218.56 149.38 218.50 149.54 218.47 149.62 C 213.42 164.03 205.41 177.42 195.00 188.60 C 192.79 190.67 190.64 192.80 188.56 195.01 C 185.97 197.53 183.15 199.78 180.29 201.98 C 178.82 201.72 177.96 202.35 177.71 203.86 C 177.18 204.25 176.13 205.03 175.60 205.42 C 175.55 205.46 175.44 205.53 175.39 205.57 C 167.44 210.83 158.88 215.20 149.88 218.37 C 149.64 218.45 149.15 218.63 148.90 218.72 C 148.36 218.90 147.26 219.25 146.71 219.43 C 146.62 219.46 146.45 219.51 146.37 219.54 C 145.84 219.69 144.79 219.98 144.27 220.13 C 143.68 220.33 142.50 220.74 141.91 220.94 L 141.09 220.88 C 140.53 221.13 139.43 221.62 138.87 221.86 C 138.20 221.88 136.85 221.92 136.17 221.94 C 135.61 222.17 134.48 222.63 133.92 222.85 C 133.24 222.91 131.90 223.02 131.22 223.07 C 129.82 222.53 128.70 222.81 127.86 223.91 C 127.15 223.91 125.74 223.91 125.04 223.92 C 121.49 223.83 117.98 224.25 114.52 225.00 L 111.38 225.00 C 107.58 224.38 103.77 223.79 99.92 223.92 C 99.22 223.91 97.82 223.88 97.13 223.87 C 96.01 222.76 94.39 222.64 92.92 222.87 C 92.47 222.90 91.57 222.96 91.13 222.99 C 90.38 221.88 89.31 221.53 87.92 221.93 C 87.47 221.92 86.57 221.90 86.12 221.89 C 85.53 221.69 84.34 221.30 83.75 221.11 C 83.23 220.97 82.18 220.68 81.65 220.54 C 81.58 220.52 81.43 220.48 81.35 220.46 C 80.81 220.30 79.73 220.00 79.18 219.85 C 78.61 219.61 77.47 219.13 76.91 218.89 L 76.08 218.95 C 75.50 218.70 74.33 218.21 73.74 217.96 L 72.70 217.58 C 72.58 217.53 72.35 217.45 72.23 217.40 C 63.15 213.90 54.53 209.22 46.61 203.57 C 46.56 203.53 46.45 203.45 46.40 203.42 C 45.14 202.46 43.87 201.52 42.61 200.57 C 42.56 200.53 42.46 200.45 42.41 200.41 C 40.68 199.01 39.05 197.51 37.40 196.02 C 34.68 193.14 31.83 190.37 28.98 187.61 C 27.99 186.48 26.98 185.36 25.97 184.24 C 26.23 182.72 25.59 181.87 24.06 181.71 C 23.23 180.68 22.39 179.64 21.59 178.60 C 21.55 178.55 21.47 178.44 21.43 178.39 C 20.96 177.69 20.03 176.31 19.57 175.62 C 19.53 175.57 19.45 175.45 19.42 175.39 C 14.27 167.86 10.14 159.64 6.99 151.08 C 6.76 150.53 6.28 149.43 6.04 148.88 L 6.13 148.08 C 5.85 147.54 5.31 146.46 5.04 145.92 L 5.12 145.04 C 4.86 144.49 4.34 143.40 4.08 142.85 C 4.08 142.42 4.07 141.55 4.06 141.11 C 3.82 140.55 3.33 139.42 3.09 138.85 C 3.09 138.41 3.09 137.52 3.09 137.07 C 3.47 135.69 3.11 134.62 2.00 133.87 C 2.03 133.42 2.10 132.51 2.13 132.06 C 2.34 130.59 2.26 128.97 1.14 127.87 C 1.12 127.18 1.09 125.80 1.08 125.10 C 1.15 121.88 0.84 118.67 0.00 115.56 L 0.00 105.14 C 1.47 103.47 1.42 101.00 0.93 98.97 C 3.95 76.67 13.28 55.15 28.32 38.34 C 31.79 34.80 35.31 31.30 38.85 27.83 C 55.94 13.07 77.53 3.51 100.00 1.09 C 103.52 1.15 107.01 0.76 110.44 0.00 M 99.21 19.01 C 98.44 19.07 96.90 19.20 96.12 19.27 C 95.65 19.23 94.70 19.17 94.23 19.14 L 94.09 19.96 C 93.33 20.02 91.82 20.13 91.07 20.19 C 90.61 20.18 89.70 20.17 89.24 20.16 L 89.12 20.99 L 88.06 20.87 C 77.29 24.10 66.81 28.63 57.70 35.31 C 57.58 35.39 57.34 35.56 57.22 35.64 C 56.22 36.50 54.70 37.00 54.21 38.31 C 52.61 37.98 51.87 38.57 52.00 40.09 C 49.98 40.71 48.70 42.89 47.07 44.23 C 45.11 43.22 42.20 46.13 43.26 48.08 C 42.21 49.36 40.39 50.35 40.07 52.04 C 38.57 51.88 37.98 52.60 38.29 54.21 C 36.20 55.50 35.20 58.06 33.68 59.94 C 29.87 65.98 25.93 72.29 24.05 79.18 C 23.69 79.43 22.98 79.94 22.62 80.19 L 22.96 81.01 L 22.98 82.10 L 22.12 82.26 C 22.10 82.71 22.07 83.60 22.06 84.04 L 22.04 85.14 L 21.18 85.25 C 21.17 85.71 21.14 86.62 21.13 87.07 C 21.09 87.58 21.00 88.59 20.96 89.09 L 20.13 89.24 C 20.15 89.70 20.17 90.62 20.19 91.08 C 20.15 91.58 20.07 92.60 20.03 93.11 C 18.60 93.62 18.33 94.60 19.23 96.07 C 19.17 96.61 19.06 97.68 19.01 98.22 C 17.34 98.65 17.51 101.80 18.26 103.09 C 17.60 108.60 17.66 114.53 18.24 120.07 C 17.69 121.65 17.19 125.08 19.00 125.81 C 19.05 126.35 19.14 127.41 19.19 127.94 C 18.30 129.43 18.58 130.42 20.02 130.91 C 20.07 131.65 20.17 133.12 20.22 133.86 C 20.21 134.32 20.17 135.24 20.15 135.71 L 20.98 135.85 C 21.06 136.41 21.23 137.53 21.31 138.10 C 21.37 138.27 21.49 138.62 21.55 138.80 C 21.69 139.34 21.97 140.40 22.11 140.94 C 22.13 141.39 22.17 142.30 22.19 142.75 L 23.05 142.83 C 25.38 151.61 30.10 159.81 35.30 167.26 C 35.39 167.39 35.57 167.64 35.66 167.77 C 36.51 168.78 37.00 170.33 38.34 170.80 C 37.96 172.38 38.54 173.10 40.08 172.96 C 40.38 174.63 42.19 175.63 43.26 176.88 C 41.98 178.43 44.46 181.02 46.07 179.82 C 49.48 183.34 53.19 186.57 57.21 189.38 C 57.34 189.46 57.58 189.63 57.70 189.72 C 65.18 194.93 73.37 199.60 82.17 201.97 L 82.31 202.84 L 83.30 203.28 L 84.12 202.81 C 85.77 203.23 87.37 204.42 89.13 204.01 L 89.24 204.84 C 89.69 204.84 90.61 204.83 91.07 204.83 C 91.81 204.89 93.30 205.01 94.04 205.07 L 94.21 205.89 C 94.68 205.84 95.63 205.75 96.11 205.71 C 96.88 205.78 98.43 205.91 99.21 205.98 C 99.94 207.78 103.37 207.35 104.95 206.76 C 109.84 207.33 115.12 207.41 119.98 206.74 C 121.26 207.37 124.51 207.74 124.87 206.03 C 125.64 205.96 127.19 205.82 127.96 205.75 C 129.45 206.66 130.44 206.40 130.93 204.98 C 131.44 204.95 132.44 204.90 132.95 204.88 C 134.43 205.69 135.39 205.38 135.83 203.95 L 137.06 204.24 L 138.05 203.66 C 138.23 203.58 138.58 203.43 138.76 203.35 C 147.83 200.87 156.46 196.82 164.29 191.64 C 164.41 191.56 164.65 191.40 164.77 191.32 C 165.38 190.90 166.61 190.06 167.23 189.64 C 167.34 189.57 167.55 189.42 167.66 189.35 C 168.74 188.59 169.90 187.87 170.75 186.84 C 172.45 187.34 173.22 186.73 173.07 185.01 C 180.14 179.27 186.33 172.33 191.36 164.70 C 191.44 164.59 191.60 164.35 191.68 164.23 C 196.77 156.39 200.94 147.84 203.38 138.79 C 203.44 138.62 203.58 138.26 203.65 138.09 C 203.74 137.52 203.92 136.39 204.01 135.83 L 204.84 135.68 C 204.82 135.21 204.78 134.28 204.76 133.82 C 204.81 133.09 204.91 131.63 204.96 130.91 C 206.40 130.49 206.67 129.51 205.78 127.97 C 205.83 127.43 205.95 126.36 206.00 125.83 C 207.68 124.98 207.40 121.65 206.76 120.05 C 207.43 115.80 207.27 111.26 206.78 106.97 C 207.27 105.01 207.75 101.38 205.99 100.18 C 206.06 99.60 206.19 98.44 206.26 97.86 L 205.73 97.16 C 206.65 95.66 206.40 94.67 204.96 94.20 C 204.92 93.66 204.85 92.58 204.82 92.04 C 204.83 91.58 204.85 90.67 204.86 90.21 L 204.04 90.06 C 203.99 89.55 203.90 88.54 203.85 88.03 C 203.85 87.57 203.85 86.67 203.85 86.22 L 203.02 86.09 C 202.93 85.54 202.74 84.43 202.65 83.87 C 202.58 83.71 202.45 83.37 202.38 83.20 C 202.19 82.60 201.80 81.39 201.60 80.79 C 201.55 80.65 201.46 80.36 201.41 80.21 C 198.94 73.39 195.63 66.86 191.67 60.79 C 191.59 60.67 191.43 60.42 191.35 60.30 C 190.91 59.65 190.04 58.36 189.61 57.72 C 189.53 57.61 189.39 57.40 189.31 57.29 C 183.29 49.05 176.03 41.67 167.75 35.69 C 167.63 35.61 167.40 35.45 167.28 35.37 C 166.66 34.95 165.41 34.10 164.79 33.68 C 164.66 33.60 164.40 33.42 164.27 33.34 C 156.46 28.12 147.79 24.12 138.75 21.59 C 138.57 21.52 138.21 21.38 138.03 21.31 C 137.50 21.23 136.42 21.05 135.88 20.96 L 135.69 20.13 C 135.23 20.16 134.30 20.23 133.84 20.26 C 133.10 20.20 131.64 20.09 130.91 20.04 C 130.49 18.59 129.51 18.32 127.97 19.23 C 127.41 19.17 126.30 19.06 125.75 19.01 C 124.95 17.24 121.63 17.61 120.06 18.24 C 115.16 17.64 109.90 17.62 105.01 18.24 C 103.39 17.59 100.10 17.30 99.21 19.01 Z" />
</g>
<g id="#2626266e">
<path fill="#262626" opacity="0.43" d=" M 127.87 1.14 C 129.26 0.56 131.36 0.42 132.04 2.11 C 130.57 2.32 128.96 2.27 127.87 1.14 Z" />
<path fill="#262626" opacity="0.43" d=" M 139.36 121.90 C 141.82 120.17 144.42 118.64 147.22 117.53 C 145.38 119.85 142.18 121.25 139.36 121.90 Z" />
</g>
<g id="#25252572">
<path fill="#252525" opacity="0.45" d=" M 133.85 2.06 C 135.30 1.47 136.39 1.84 137.11 3.15 C 135.80 3.47 134.71 3.10 133.85 2.06 Z" />
</g>
<g id="#2b2b2b61">
<path fill="#2b2b2b" opacity="0.38" d=" M 138.84 3.08 C 139.42 3.29 140.58 3.71 141.15 3.92 C 140.58 3.71 139.42 3.29 138.84 3.08 Z" />
<path fill="#2b2b2b" opacity="0.38" d=" M 20.13 89.24 L 20.96 89.09 C 20.77 89.59 20.38 90.58 20.19 91.08 C 20.17 90.62 20.15 89.70 20.13 89.24 Z" />
</g>
<g id="#31313174">
<path fill="#313131" opacity="0.45" d=" M 143.51 4.49 C 143.65 4.53 143.92 4.62 144.06 4.67 C 143.92 4.62 143.65 4.53 143.51 4.49 Z" />
<path fill="#313131" opacity="0.45" d=" M 175.39 19.43 C 175.44 19.47 175.56 19.54 175.61 19.58 C 175.56 19.54 175.44 19.47 175.39 19.43 Z" />
<path fill="#313131" opacity="0.45" d=" M 164.27 33.34 C 164.40 33.42 164.66 33.60 164.79 33.68 C 164.66 33.60 164.40 33.42 164.27 33.34 Z" />
<path fill="#313131" opacity="0.45" d=" M 201.41 80.21 C 201.46 80.36 201.55 80.65 201.60 80.79 C 201.55 80.65 201.46 80.36 201.41 80.21 Z" />
<path fill="#313131" opacity="0.45" d=" M 35.30 167.26 C 35.39 167.39 35.57 167.64 35.66 167.77 C 35.57 167.64 35.39 167.39 35.30 167.26 Z" />
<path fill="#313131" opacity="0.45" d=" M 46.40 203.42 C 46.45 203.45 46.56 203.53 46.61 203.57 C 46.56 203.53 46.45 203.45 46.40 203.42 Z" />
<path fill="#313131" opacity="0.45" d=" M 138.05 203.66 C 138.23 203.58 138.58 203.43 138.76 203.35 C 138.58 203.43 138.23 203.58 138.05 203.66 Z" />
<path fill="#313131" opacity="0.45" d=" M 81.35 220.46 C 81.43 220.48 81.58 220.52 81.65 220.54 C 81.58 220.52 81.43 220.48 81.35 220.46 Z" />
</g>
<g id="#2f2f2f87">
<path fill="#2f2f2f" opacity="0.53" d=" M 145.93 5.31 C 146.09 5.37 146.42 5.48 146.59 5.54 C 146.42 5.48 146.09 5.37 145.93 5.31 Z" />
</g>
<g id="#2f2f2f83">
<path fill="#2f2f2f" opacity="0.51" d=" M 148.94 6.30 C 149.18 6.38 149.68 6.55 149.92 6.64 C 149.68 6.55 149.18 6.38 148.94 6.30 Z" />
<path fill="#2f2f2f" opacity="0.51" d=" M 167.28 35.37 C 167.40 35.45 167.63 35.61 167.75 35.69 C 167.63 35.61 167.40 35.45 167.28 35.37 Z" />
<path fill="#2f2f2f" opacity="0.51" d=" M 191.35 60.30 C 191.43 60.42 191.59 60.67 191.67 60.79 C 191.59 60.67 191.43 60.42 191.35 60.30 Z" />
<path fill="#2f2f2f" opacity="0.51" d=" M 218.47 149.62 C 218.50 149.54 218.56 149.38 218.59 149.30 C 218.56 149.38 218.50 149.54 218.47 149.62 Z" />
<path fill="#2f2f2f" opacity="0.51" d=" M 72.23 217.40 C 72.35 217.45 72.58 217.53 72.70 217.58 C 72.58 217.53 72.35 217.45 72.23 217.40 Z" />
</g>
<g id="#24242466">
<path fill="#242424" opacity="0.40" d=" M 99.21 19.01 C 100.10 17.30 103.39 17.59 105.01 18.24 C 103.26 19.31 101.18 19.49 99.21 19.01 Z" />
<path fill="#242424" opacity="0.40" d=" M 120.06 18.24 C 121.63 17.61 124.95 17.24 125.75 19.01 C 123.82 19.53 121.77 19.29 120.06 18.24 Z" />
</g>
<g id="#2e2e2e64">
<path fill="#2e2e2e" opacity="0.39" d=" M 94.23 19.14 C 94.70 19.17 95.65 19.23 96.12 19.27 C 95.61 19.44 94.60 19.79 94.09 19.96 L 94.23 19.14 Z" />
</g>
<g id="#2727274e">
<path fill="#272727" opacity="0.31" d=" M 127.97 19.23 C 129.51 18.32 130.49 18.59 130.91 20.04 C 129.78 20.35 128.80 20.08 127.97 19.23 Z" />
</g>
<g id="#2b2b2b75">
<path fill="#2b2b2b" opacity="0.46" d=" M 89.24 20.16 C 89.70 20.17 90.61 20.18 91.07 20.19 C 90.58 20.39 89.60 20.79 89.12 20.99 L 89.24 20.16 Z" />
<path fill="#2b2b2b" opacity="0.46" d=" M 133.84 20.26 C 134.30 20.23 135.23 20.16 135.69 20.13 L 135.88 20.96 C 135.37 20.79 134.35 20.44 133.84 20.26 Z" />
</g>
<g id="#30303064">
<path fill="#303030" opacity="0.39" d=" M 138.03 21.31 C 138.21 21.38 138.57 21.52 138.75 21.59 C 138.57 21.52 138.21 21.38 138.03 21.31 Z" />
<path fill="#303030" opacity="0.39" d=" M 57.21 189.38 C 57.34 189.46 57.58 189.63 57.70 189.72 C 57.58 189.63 57.34 189.46 57.21 189.38 Z" />
</g>
<g id="#1e1e1e41">
<path fill="#1e1e1e" opacity="0.25" d=" M 181.72 24.07 C 183.24 23.77 184.06 24.40 184.19 25.97 C 182.91 25.89 182.09 25.26 181.72 24.07 Z" />
<path fill="#1e1e1e" opacity="0.25" d=" M 38.34 170.80 C 39.52 171.07 40.10 171.79 40.08 172.96 C 38.54 173.10 37.96 172.38 38.34 170.80 Z" />
</g>
<g id="#15151523">
<path fill="#151515" opacity="0.14" d=" M 188.64 30.05 C 191.77 30.70 194.22 33.34 194.99 36.40 C 192.81 34.35 190.67 32.25 188.64 30.05 Z" />
<path fill="#151515" opacity="0.14" d=" M 188.56 195.01 C 190.64 192.80 192.79 190.67 195.00 188.60 C 194.11 191.66 191.76 194.34 188.56 195.01 Z" />
</g>
<g id="#3030306e">
<path fill="#303030" opacity="0.43" d=" M 57.22 35.64 C 57.34 35.56 57.58 35.39 57.70 35.31 C 57.58 35.39 57.34 35.56 57.22 35.64 Z" />
<path fill="#303030" opacity="0.43" d=" M 202.38 83.20 C 202.45 83.37 202.58 83.71 202.65 83.87 C 202.58 83.71 202.45 83.37 202.38 83.20 Z" />
<path fill="#303030" opacity="0.43" d=" M 203.38 138.79 C 203.44 138.62 203.58 138.26 203.65 138.09 C 203.58 138.26 203.44 138.62 203.38 138.79 Z" />
<path fill="#303030" opacity="0.43" d=" M 220.45 143.65 C 220.47 143.57 220.51 143.42 220.53 143.35 C 220.51 143.42 220.47 143.57 220.45 143.65 Z" />
<path fill="#303030" opacity="0.43" d=" M 21.43 178.39 C 21.47 178.44 21.55 178.55 21.59 178.60 C 21.55 178.55 21.47 178.44 21.43 178.39 Z" />
<path fill="#303030" opacity="0.43" d=" M 42.41 200.41 C 42.46 200.45 42.56 200.53 42.61 200.57 C 42.56 200.53 42.46 200.45 42.41 200.41 Z" />
<path fill="#303030" opacity="0.43" d=" M 175.39 205.57 C 175.44 205.53 175.55 205.46 175.60 205.42 C 175.55 205.46 175.44 205.53 175.39 205.57 Z" />
</g>
<g id="#1d1d1d3b">
<path fill="#1d1d1d" opacity="0.23" d=" M 52.00 40.09 C 51.87 38.57 52.61 37.98 54.21 38.31 C 53.92 39.50 53.19 40.09 52.00 40.09 Z" />
<path fill="#1d1d1d" opacity="0.23" d=" M 38.29 54.21 C 37.98 52.60 38.57 51.88 40.07 52.04 C 40.08 53.23 39.49 53.95 38.29 54.21 Z" />
</g>
<g id="#161616bd">
<path fill="#161616" opacity="0.74" d=" M 43.26 48.08 C 42.20 46.13 45.11 43.22 47.07 44.23 C 45.96 45.66 44.68 46.95 43.26 48.08 Z" />
</g>
<g id="#2d2d2d8d">
<path fill="#2d2d2d" opacity="0.55" d=" M 189.31 57.29 C 189.39 57.40 189.53 57.61 189.61 57.72 C 189.53 57.61 189.39 57.40 189.31 57.29 Z" />
<path fill="#2d2d2d" opacity="0.55" d=" M 167.23 189.64 C 167.34 189.57 167.55 189.42 167.66 189.35 C 167.55 189.42 167.34 189.57 167.23 189.64 Z" />
</g>
<g id="#1a1a1adf">
<path fill="#1a1a1a" opacity="0.87" d=" M 70.15 65.97 C 74.20 68.38 78.65 70.22 82.39 73.09 C 78.30 72.02 74.85 69.50 70.95 67.97 C 70.86 82.97 70.91 97.97 70.96 112.98 C 70.92 117.14 71.67 121.47 70.15 125.47 C 69.90 105.65 69.90 85.79 70.15 65.97 Z" />
</g>
<g id="#000000ff">
<path fill="#000000" opacity="1.00" d=" M 70.95 67.97 C 74.85 69.50 78.30 72.02 82.39 73.09 L 83.16 73.40 C 83.33 73.49 83.69 73.67 83.87 73.76 L 84.59 74.26 C 85.63 75.82 87.42 76.65 89.23 76.94 L 89.39 76.99 C 93.22 80.16 97.90 82.24 102.49 84.10 L 103.12 84.36 C 103.27 84.45 103.57 84.62 103.72 84.71 L 104.29 85.08 C 106.57 86.72 109.02 88.10 111.61 89.16 L 112.15 89.41 C 112.34 89.49 112.70 89.67 112.88 89.76 L 113.30 90.09 C 115.94 92.45 119.17 94.14 122.55 95.19 L 123.13 95.40 C 123.28 95.48 123.58 95.63 123.73 95.71 L 124.27 96.07 C 126.52 97.73 129.03 99.00 131.57 100.16 L 132.12 100.42 C 132.33 100.50 132.74 100.67 132.95 100.75 C 133.35 101.00 134.16 101.49 134.56 101.73 C 137.35 104.17 140.73 105.82 144.16 107.14 L 144.30 107.22 C 146.50 108.81 148.88 110.17 151.48 111.03 L 151.83 111.17 C 152.34 111.98 152.74 112.85 153.03 113.77 C 151.08 114.77 148.97 115.63 147.52 117.34 C 147.44 117.39 147.30 117.49 147.22 117.53 C 144.42 118.64 141.82 120.17 139.36 121.90 L 138.75 122.28 C 138.60 122.36 138.29 122.53 138.13 122.61 L 137.52 122.86 C 133.57 124.34 129.80 126.32 126.38 128.77 L 126.33 128.80 C 123.92 130.02 121.55 131.33 119.27 132.79 L 119.04 132.91 C 112.38 136.43 105.43 139.53 99.27 143.90 L 98.81 144.19 C 98.60 144.32 98.20 144.57 97.99 144.69 L 96.94 145.27 C 96.72 145.37 96.27 145.58 96.05 145.68 L 95.33 146.00 C 93.48 146.28 91.65 147.10 90.58 148.69 L 89.79 149.31 C 89.64 149.37 89.34 149.49 89.19 149.55 L 88.54 149.78 C 84.54 151.26 80.53 153.16 77.34 156.04 L 76.99 156.31 C 76.75 156.40 76.28 156.58 76.05 156.67 L 75.31 157.02 C 73.46 157.30 71.67 158.17 70.54 159.70 L 70.11 160.10 C 70.06 148.56 69.97 137.00 70.15 125.47 C 71.67 121.47 70.92 117.14 70.96 112.98 C 70.91 97.97 70.86 82.97 70.95 67.97 Z" />
</g>
<g id="#40404077">
<path fill="#404040" opacity="0.47" d=" M 83.16 73.40 C 83.33 73.49 83.69 73.67 83.87 73.76 C 83.69 73.67 83.33 73.49 83.16 73.40 Z" />
</g>
<g id="#2929298b">
<path fill="#292929" opacity="0.55" d=" M 84.59 74.26 C 86.12 73.82 89.34 75.18 89.23 76.94 C 87.42 76.65 85.63 75.82 84.59 74.26 Z" />
</g>
<g id="#232323aa">
<path fill="#232323" opacity="0.67" d=" M 89.39 76.99 C 91.83 77.13 93.71 79.00 95.87 79.98 C 98.02 81.43 100.76 82.10 102.49 84.10 C 97.90 82.24 93.22 80.16 89.39 76.99 Z" />
</g>
<g id="#24242472">
<path fill="#242424" opacity="0.45" d=" M 22.62 80.19 C 22.98 79.94 23.69 79.43 24.05 79.18 C 23.78 79.63 23.23 80.55 22.96 81.01 L 22.62 80.19 Z" />
</g>
<g id="#29292979">
<path fill="#292929" opacity="0.47" d=" M 220.12 80.83 C 220.32 81.40 220.71 82.56 220.91 83.14 C 220.71 82.56 220.32 81.40 220.12 80.83 Z" />
</g>
<g id="#28282862">
<path fill="#282828" opacity="0.38" d=" M 22.12 82.26 L 22.98 82.10 C 22.75 82.59 22.29 83.56 22.06 84.04 C 22.07 83.60 22.10 82.71 22.12 82.26 Z" />
</g>
<g id="#3a3a3a85">
<path fill="#3a3a3a" opacity="0.52" d=" M 103.12 84.36 C 103.27 84.45 103.57 84.62 103.72 84.71 C 103.57 84.62 103.27 84.45 103.12 84.36 Z" />
</g>
<g id="#28282877">
<path fill="#282828" opacity="0.47" d=" M 21.18 85.25 L 22.04 85.14 C 21.81 85.62 21.36 86.59 21.13 87.07 C 21.14 86.62 21.17 85.71 21.18 85.25 Z" />
</g>
<g id="#25252575">
<path fill="#252525" opacity="0.46" d=" M 104.29 85.08 C 106.85 85.75 110.10 86.93 111.61 89.16 C 109.02 88.10 106.57 86.72 104.29 85.08 Z" />
</g>
<g id="#27272786">
<path fill="#272727" opacity="0.53" d=" M 220.92 84.73 C 221.17 85.30 221.67 86.45 221.91 87.02 C 221.67 86.45 221.17 85.30 220.92 84.73 Z" />
</g>
<g id="#2b2b2b63">
<path fill="#2b2b2b" opacity="0.39" d=" M 203.02 86.09 L 203.85 86.22 C 203.85 86.67 203.85 87.57 203.85 88.03 C 203.64 87.54 203.23 86.58 203.02 86.09 Z" />
</g>
<g id="#4444448b">
<path fill="#444444" opacity="0.55" d=" M 112.15 89.41 C 112.34 89.49 112.70 89.67 112.88 89.76 C 112.70 89.67 112.34 89.49 112.15 89.41 Z" />
</g>
<g id="#2d2d2d62">
<path fill="#2d2d2d" opacity="0.38" d=" M 221.94 88.85 C 222.18 89.41 222.67 90.53 222.91 91.08 C 222.67 90.53 222.18 89.41 221.94 88.85 Z" />
</g>
<g id="#252525ac">
<path fill="#252525" opacity="0.67" d=" M 113.30 90.09 C 115.55 90.19 117.22 91.99 119.23 92.83 C 120.33 93.60 122.04 93.78 122.55 95.19 C 119.17 94.14 115.94 92.45 113.30 90.09 Z" />
</g>
<g id="#2b2b2b5b">
<path fill="#2b2b2b" opacity="0.36" d=" M 204.04 90.06 L 204.86 90.21 C 204.85 90.67 204.83 91.58 204.82 92.04 C 204.62 91.54 204.23 90.55 204.04 90.06 Z" />
<path fill="#2b2b2b" opacity="0.36" d=" M 221.06 141.15 C 221.27 140.58 221.68 139.43 221.88 138.85 C 221.68 139.43 221.27 140.58 221.06 141.15 Z" />
<path fill="#2b2b2b" opacity="0.36" d=" M 138.87 221.86 C 139.43 221.62 140.53 221.13 141.09 220.88 C 140.53 221.13 139.43 221.62 138.87 221.86 Z" />
</g>
<g id="#26262664">
<path fill="#262626" opacity="0.39" d=" M 19.23 96.07 C 18.33 94.60 18.60 93.62 20.03 93.11 C 20.39 94.24 20.12 95.23 19.23 96.07 Z" />
</g>
<g id="#27272773">
<path fill="#272727" opacity="0.45" d=" M 204.96 94.20 C 206.40 94.67 206.65 95.66 205.73 97.16 C 204.88 96.31 204.62 95.33 204.96 94.20 Z" />
</g>
<g id="#28272870">
<path fill="#282728" opacity="0.44" d=" M 222.88 93.99 C 224.66 94.56 224.36 96.78 223.86 98.15 C 222.76 97.04 222.68 95.45 222.88 93.99 Z" />
</g>
<g id="#3b3b3b82">
<path fill="#3b3b3b" opacity="0.51" d=" M 123.13 95.40 C 123.28 95.48 123.58 95.63 123.73 95.71 C 123.58 95.63 123.28 95.48 123.13 95.40 Z" />
</g>
<g id="#25252576">
<path fill="#252525" opacity="0.46" d=" M 124.27 96.07 C 126.80 96.67 130.07 97.97 131.57 100.16 C 129.03 99.00 126.52 97.73 124.27 96.07 Z" />
<path fill="#252525" opacity="0.46" d=" M 119.27 132.79 C 121.55 131.33 123.92 130.02 126.33 128.80 L 126.26 129.81 C 123.90 130.72 121.86 132.84 119.27 132.79 Z" />
</g>
<g id="#25252570">
<path fill="#252525" opacity="0.44" d=" M 18.26 103.09 C 17.51 101.80 17.34 98.65 19.01 98.22 C 19.49 99.88 19.18 101.64 18.26 103.09 Z" />
</g>
<g id="#808080ff">
<path fill="#808080" opacity="1.00" d=" M 0.00 99.02 L 0.93 98.97 C 1.42 101.00 1.47 103.47 0.00 105.14 L 0.00 99.02 Z" />
<path fill="#808080" opacity="1.00" d=" M 223.94 100.96 L 225.00 101.00 L 225.00 111.57 C 223.86 108.14 223.99 104.52 223.94 100.96 Z" />
</g>
<g id="#42424280">
<path fill="#424242" opacity="0.50" d=" M 132.12 100.42 C 132.33 100.50 132.74 100.67 132.95 100.75 C 132.74 100.67 132.33 100.50 132.12 100.42 Z" />
</g>
<g id="#2525255d">
<path fill="#252525" opacity="0.36" d=" M 205.99 100.18 C 207.75 101.38 207.27 105.01 206.78 106.97 C 205.57 104.90 205.56 102.48 205.99 100.18 Z" />
</g>
<g id="#2626269a">
<path fill="#262626" opacity="0.60" d=" M 134.56 101.73 C 137.95 102.88 141.62 104.59 144.16 107.14 C 140.73 105.82 137.35 104.17 134.56 101.73 Z" />
</g>
<g id="#23232389">
<path fill="#232323" opacity="0.54" d=" M 144.30 107.22 C 146.86 107.75 149.71 109.07 151.48 111.03 C 148.88 110.17 146.50 108.81 144.30 107.22 Z" />
</g>
<g id="#262626b4">
<path fill="#262626" opacity="0.71" d=" M 151.83 111.17 C 153.04 111.55 155.35 111.93 155.02 113.69 C 152.53 114.91 150.26 116.77 147.52 117.34 C 148.97 115.63 151.08 114.77 153.03 113.77 C 152.74 112.85 152.34 111.98 151.83 111.17 Z" />
</g>
<g id="#6f6f70ff">
<path fill="#6f6f70" opacity="1.00" d=" M 0.00 115.56 C 0.84 118.67 1.15 121.88 1.08 125.10 L 0.00 125.00 L 0.00 115.56 Z" />
</g>
<g id="#7d7d7dff">
<path fill="#7d7d7d" opacity="1.00" d=" M 223.91 125.04 C 223.91 122.12 224.02 119.17 225.00 116.39 L 225.00 125.00 L 223.91 125.04 Z" />
</g>
<g id="#2525255f">
<path fill="#252525" opacity="0.37" d=" M 18.24 120.07 C 19.25 121.81 19.54 123.86 19.00 125.81 C 17.19 125.08 17.69 121.65 18.24 120.07 Z" />
</g>
<g id="#25252564">
<path fill="#252525" opacity="0.39" d=" M 206.00 125.83 C 205.46 123.86 205.71 121.79 206.76 120.05 C 207.40 121.65 207.68 124.98 206.00 125.83 Z" />
</g>
<g id="#3c3c3c82">
<path fill="#3c3c3c" opacity="0.51" d=" M 138.13 122.61 C 138.29 122.53 138.60 122.36 138.75 122.28 C 138.60 122.36 138.29 122.53 138.13 122.61 Z" />
</g>
<g id="#222222a1">
<path fill="#222222" opacity="0.63" d=" M 126.38 128.77 C 129.80 126.32 133.57 124.34 137.52 122.86 C 134.82 125.53 130.84 126.73 127.65 128.85 L 126.38 128.77 Z" />
</g>
<g id="#26262670">
<path fill="#262626" opacity="0.44" d=" M 1.14 127.87 C 2.26 128.97 2.34 130.59 2.13 132.06 C 0.44 131.37 0.57 129.27 1.14 127.87 Z" />
</g>
<g id="#2626264c">
<path fill="#262626" opacity="0.30" d=" M 19.19 127.94 C 20.05 128.78 20.33 129.77 20.02 130.91 C 18.58 130.42 18.30 129.43 19.19 127.94 Z" />
</g>
<g id="#27272751">
<path fill="#272727" opacity="0.32" d=" M 204.96 130.91 C 204.64 129.77 204.92 128.80 205.78 127.97 C 206.67 129.51 206.40 130.49 204.96 130.91 Z" />
<path fill="#272727" opacity="0.32" d=" M 127.96 205.75 C 128.81 204.88 129.81 204.62 130.93 204.98 C 130.44 206.40 129.45 206.66 127.96 205.75 Z" />
</g>
<g id="#2a2a2a7c">
<path fill="#2a2a2a" opacity="0.49" d=" M 223.08 131.20 C 222.50 129.80 222.79 128.70 223.93 127.90 C 224.46 129.25 224.18 130.35 223.08 131.20 Z" />
</g>
<g id="#2222228f">
<path fill="#222222" opacity="0.56" d=" M 99.27 143.90 C 105.43 139.53 112.38 136.43 119.04 132.91 C 118.70 134.40 116.93 134.58 115.86 135.34 C 110.29 138.07 105.13 142.01 99.27 143.90 Z" />
</g>
<g id="#26252670">
<path fill="#262526" opacity="0.44" d=" M 2.00 133.87 C 3.11 134.62 3.47 135.69 3.09 137.07 C 1.83 136.35 1.47 135.29 2.00 133.87 Z" />
</g>
<g id="#2a2a2a7d">
<path fill="#2a2a2a" opacity="0.49" d=" M 20.22 133.86 C 20.41 134.36 20.79 135.35 20.98 135.85 L 20.15 135.71 C 20.17 135.24 20.21 134.32 20.22 133.86 Z" />
</g>
<g id="#28282889">
<path fill="#282828" opacity="0.54" d=" M 204.01 135.83 C 204.20 135.32 204.57 134.32 204.76 133.82 C 204.78 134.28 204.82 135.21 204.84 135.68 L 204.01 135.83 Z" />
</g>
<g id="#2b2b2b83">
<path fill="#2b2b2b" opacity="0.51" d=" M 221.93 136.26 C 222.16 135.69 222.63 134.54 222.86 133.97 C 222.63 134.54 222.16 135.69 221.93 136.26 Z" />
</g>
<g id="#2f2f2f5c">
<path fill="#2f2f2f" opacity="0.36" d=" M 21.31 138.10 C 21.37 138.27 21.49 138.62 21.55 138.80 C 21.49 138.62 21.37 138.27 21.31 138.10 Z" />
</g>
<g id="#2c2c2c6b">
<path fill="#2c2c2c" opacity="0.42" d=" M 3.09 138.85 C 3.33 139.42 3.82 140.55 4.06 141.11 C 3.82 140.55 3.33 139.42 3.09 138.85 Z" />
</g>
<g id="#27272779">
<path fill="#272727" opacity="0.47" d=" M 22.11 140.94 C 22.35 141.41 22.81 142.36 23.05 142.83 L 22.19 142.75 C 22.17 142.30 22.13 141.39 22.11 140.94 Z" />
</g>
<g id="#27272754">
<path fill="#272727" opacity="0.33" d=" M 4.08 142.85 C 4.34 143.40 4.86 144.49 5.12 145.04 C 4.86 144.49 4.34 143.40 4.08 142.85 Z" />
</g>
<g id="#4545457f">
<path fill="#454545" opacity="0.50" d=" M 97.99 144.69 C 98.20 144.57 98.60 144.32 98.81 144.19 L 98.63 144.84 L 97.99 144.69 Z" />
</g>
<g id="#43434390">
<path fill="#434343" opacity="0.56" d=" M 96.05 145.68 C 96.27 145.58 96.72 145.37 96.94 145.27 L 96.69 145.88 L 96.05 145.68 Z" />
</g>
<g id="#2727276b">
<path fill="#272727" opacity="0.42" d=" M 5.04 145.92 C 5.31 146.46 5.85 147.54 6.13 148.08 C 5.85 147.54 5.31 146.46 5.04 145.92 Z" />
<path fill="#272727" opacity="0.42" d=" M 76.91 218.89 C 77.47 219.13 78.61 219.61 79.18 219.85 C 78.61 219.61 77.47 219.13 76.91 218.89 Z" />
</g>
<g id="#23232382">
<path fill="#232323" opacity="0.51" d=" M 90.58 148.69 C 91.65 147.10 93.48 146.28 95.33 146.00 C 95.31 147.78 92.16 149.07 90.58 148.69 Z" />
</g>
<g id="#2727275a">
<path fill="#272727" opacity="0.35" d=" M 218.77 148.82 C 219.03 148.08 219.55 146.59 219.81 145.85 C 219.55 146.59 219.03 148.08 218.77 148.82 Z" />
</g>
<g id="#27262765">
<path fill="#272627" opacity="0.40" d=" M 6.04 148.88 C 6.28 149.43 6.76 150.53 6.99 151.08 C 6.76 150.53 6.28 149.43 6.04 148.88 Z" />
</g>
<g id="#3535357a">
<path fill="#353535" opacity="0.48" d=" M 89.19 149.55 C 89.34 149.49 89.64 149.37 89.79 149.31 C 89.64 149.37 89.34 149.49 89.19 149.55 Z" />
</g>
<g id="#252525ae">
<path fill="#252525" opacity="0.68" d=" M 77.34 156.04 C 80.53 153.16 84.54 151.26 88.54 149.78 C 85.41 152.43 81.27 154.58 77.34 156.04 Z" />
</g>
<g id="#47474795">
<path fill="#474747" opacity="0.58" d=" M 76.05 156.67 C 76.28 156.58 76.75 156.40 76.99 156.31 L 76.69 156.91 L 76.05 156.67 Z" />
</g>
<g id="#2727278c">
<path fill="#272727" opacity="0.55" d=" M 70.54 159.70 C 71.67 158.17 73.46 157.30 75.31 157.02 C 75.25 158.72 72.10 160.23 70.54 159.70 Z" />
</g>
<g id="#3030307c">
<path fill="#303030" opacity="0.49" d=" M 191.36 164.70 C 191.44 164.59 191.60 164.35 191.68 164.23 C 191.60 164.35 191.44 164.59 191.36 164.70 Z" />
<path fill="#303030" opacity="0.49" d=" M 164.29 191.64 C 164.41 191.56 164.65 191.40 164.77 191.32 C 164.65 191.40 164.41 191.56 164.29 191.64 Z" />
<path fill="#303030" opacity="0.49" d=" M 148.90 218.72 C 149.15 218.63 149.64 218.45 149.88 218.37 C 149.64 218.45 149.15 218.63 148.90 218.72 Z" />
<path fill="#303030" opacity="0.49" d=" M 146.37 219.54 C 146.45 219.51 146.62 219.46 146.71 219.43 C 146.62 219.46 146.45 219.51 146.37 219.54 Z" />
</g>
<g id="#2b2b2b97">
<path fill="#2b2b2b" opacity="0.59" d=" M 19.42 175.39 C 19.45 175.45 19.53 175.57 19.57 175.62 C 19.53 175.57 19.45 175.45 19.42 175.39 Z" />
</g>
<g id="#171717ba">
<path fill="#171717" opacity="0.73" d=" M 43.26 176.88 C 44.34 177.71 45.30 178.69 46.07 179.82 C 44.46 181.02 41.98 178.43 43.26 176.88 Z" />
</g>
<g id="#1d1d1da2">
<path fill="#1d1d1d" opacity="0.64" d=" M 24.06 181.71 C 25.59 181.87 26.23 182.72 25.97 184.24 C 24.77 183.84 24.13 182.99 24.06 181.71 Z" />
</g>
<g id="#1e1e1e9b">
<path fill="#1e1e1e" opacity="0.61" d=" M 170.75 186.84 C 171.25 185.90 172.03 185.29 173.07 185.01 C 173.22 186.73 172.45 187.34 170.75 186.84 Z" />
</g>
<g id="#1919192f">
<path fill="#191919" opacity="0.18" d=" M 28.98 187.61 C 31.83 190.37 34.68 193.14 37.40 196.02 C 33.73 194.55 30.47 191.28 28.98 187.61 Z" />
</g>
<g id="#26262680">
<path fill="#262626" opacity="0.50" d=" M 82.17 201.97 C 82.66 202.18 83.63 202.60 84.12 202.81 L 83.30 203.28 L 82.31 202.84 L 82.17 201.97 Z" />
</g>
<g id="#1c1c1c95">
<path fill="#1c1c1c" opacity="0.58" d=" M 177.71 203.86 C 177.96 202.35 178.82 201.72 180.29 201.98 C 179.91 203.20 179.05 203.83 177.71 203.86 Z" />
</g>
<g id="#2b2b2b70">
<path fill="#2b2b2b" opacity="0.44" d=" M 89.13 204.01 C 89.61 204.22 90.58 204.62 91.07 204.83 C 90.61 204.83 89.69 204.84 89.24 204.84 L 89.13 204.01 Z" />
</g>
<g id="#2424245e">
<path fill="#242424" opacity="0.37" d=" M 132.95 204.88 C 133.73 203.92 134.69 203.61 135.83 203.95 C 135.39 205.38 134.43 205.69 132.95 204.88 Z" />
</g>
<g id="#2e2e2e5e">
<path fill="#2e2e2e" opacity="0.37" d=" M 94.04 205.07 C 94.56 205.23 95.59 205.55 96.11 205.71 C 95.63 205.75 94.68 205.84 94.21 205.89 L 94.04 205.07 Z" />
</g>
<g id="#25242560">
<path fill="#252425" opacity="0.38" d=" M 99.21 205.98 C 101.16 205.51 103.21 205.71 104.95 206.76 C 103.37 207.35 99.94 207.78 99.21 205.98 Z" />
</g>
<g id="#27272758">
<path fill="#272727" opacity="0.35" d=" M 119.98 206.74 C 121.44 205.78 123.20 205.52 124.87 206.03 C 124.51 207.74 121.26 207.37 119.98 206.74 Z" />
</g>
<g id="#26262669">
<path fill="#262626" opacity="0.41" d=" M 73.74 217.96 C 74.33 218.21 75.50 218.70 76.08 218.95 C 75.50 218.70 74.33 218.21 73.74 217.96 Z" />
</g>
<g id="#26262789">
<path fill="#262627" opacity="0.54" d=" M 141.91 220.94 C 142.50 220.74 143.68 220.33 144.27 220.13 C 143.68 220.33 142.50 220.74 141.91 220.94 Z" />
</g>
<g id="#2c2c2c72">
<path fill="#2c2c2c" opacity="0.45" d=" M 83.75 221.11 C 84.34 221.30 85.53 221.69 86.12 221.89 C 85.53 221.69 84.34 221.30 83.75 221.11 Z" />
</g>
<g id="#2727276a">
<path fill="#272727" opacity="0.42" d=" M 87.92 221.93 C 89.31 221.53 90.38 221.88 91.13 222.99 C 89.72 223.53 88.65 223.17 87.92 221.93 Z" />
</g>
<g id="#2e2e2e72">
<path fill="#2e2e2e" opacity="0.45" d=" M 133.92 222.85 C 134.48 222.63 135.61 222.17 136.17 221.94 L 135.80 222.68 C 135.33 222.72 134.39 222.81 133.92 222.85 Z" />
</g>
<g id="#26262777">
<path fill="#262627" opacity="0.47" d=" M 92.92 222.87 C 94.39 222.64 96.01 222.76 97.13 223.87 C 95.72 224.39 93.58 224.59 92.92 222.87 Z" />
</g>
<g id="#2b2b2b73">
<path fill="#2b2b2b" opacity="0.45" d=" M 127.86 223.91 C 128.70 222.81 129.82 222.53 131.22 223.07 C 130.35 224.18 129.23 224.46 127.86 223.91 Z" />
</g>
<g id="#606061ff">
<path fill="#606061" opacity="1.00" d=" M 99.92 223.92 C 103.77 223.79 107.58 224.38 111.38 225.00 L 99.94 225.00 L 99.92 223.92 Z" />
</g>
<g id="#6d6d6dff">
<path fill="#6d6d6d" opacity="1.00" d=" M 114.52 225.00 C 117.98 224.25 121.49 223.83 125.04 223.92 L 125.00 225.00 L 114.52 225.00 Z" />
</g>
</svg>
