<?xml version="1.0" encoding="UTF-8" ?>
<!DOCTYPE svg PUBLIC "-//W3C//DTD SVG 1.1//EN" "http://www.w3.org/Graphics/SVG/1.1/DTD/svg11.dtd">
<svg width="225pt" height="225pt" viewBox="0 0 225 225" version="1.1" xmlns="http://www.w3.org/2000/svg">
<g id="#000000ff">
<path fill="#000000" opacity="1.00" d=" M 100.98 0.00 L 124.14 0.00 C 127.27 1.30 130.64 1.77 133.98 2.27 C 157.42 6.76 179.27 19.03 195.29 36.73 C 210.54 53.26 220.57 74.56 223.53 96.86 C 223.84 98.62 224.42 100.31 225.00 102.00 L 225.00 124.23 C 224.41 125.56 223.89 126.94 223.62 128.37 C 220.27 152.96 208.28 176.26 190.31 193.35 C 175.91 207.43 157.52 217.29 137.93 221.85 C 133.29 222.98 128.45 223.21 123.98 225.00 L 100.76 225.00 C 99.20 224.31 97.57 223.79 95.89 223.53 C 71.33 220.08 48.13 207.95 31.11 189.93 C 15.27 173.38 4.68 151.81 1.46 129.11 C 1.12 127.37 0.55 125.68 0.00 124.01 L 0.00 99.74 C 0.76 98.30 1.38 96.77 1.66 95.16 C 5.24 71.92 16.27 49.65 33.29 33.33 C 49.86 16.09 72.56 5.08 96.13 1.60 C 97.81 1.26 99.40 0.63 100.98 0.00 M 100.36 18.58 C 68.61 22.38 39.86 43.67 26.49 72.64 C 17.63 91.30 15.56 112.89 20.03 133.00 C 24.94 155.87 38.95 176.49 58.01 189.96 C 73.40 200.83 92.14 207.05 111.01 207.15 C 132.30 207.66 153.58 200.36 170.37 187.33 C 186.57 174.75 198.62 156.88 203.95 137.05 C 209.06 118.55 207.93 98.51 201.51 80.47 C 193.18 57.24 175.42 37.52 153.08 27.01 C 136.83 19.12 118.26 16.25 100.36 18.58 Z" />
<path fill="#000000" opacity="1.00" d=" M 106.37 65.35 C 109.59 61.65 115.69 61.24 119.07 64.95 C 122.46 68.06 122.28 73.17 120.03 76.87 C 131.05 78.79 141.46 84.91 147.90 94.14 C 155.30 103.98 157.58 117.04 155.14 128.99 C 152.63 139.77 146.04 149.73 136.64 155.70 C 130.16 159.74 122.75 162.51 115.07 162.80 C 100.47 163.67 85.73 156.44 77.41 144.44 C 71.11 135.03 67.81 123.18 70.17 111.94 C 71.21 106.66 73.05 101.44 76.12 97.00 C 80.27 91.90 89.23 93.46 91.45 99.62 C 94.29 105.67 88.08 110.87 88.22 116.91 C 86.52 129.93 96.93 143.09 110.07 144.15 C 124.02 146.24 137.82 134.08 137.62 120.00 C 138.14 109.27 130.60 99.52 120.75 95.88 C 121.30 98.16 122.33 100.59 121.35 102.92 C 120.19 107.78 114.10 110.70 109.59 108.54 C 108.01 107.85 106.72 106.68 105.50 105.49 C 100.19 100.12 94.85 94.78 89.48 89.47 C 88.15 88.32 87.70 86.58 87.08 85.02 C 93.06 78.05 99.98 71.94 106.37 65.35 Z" />
</g>
</svg>
