<svg width="62pt" height="65pt" viewBox="0 0 62 65" version="1.1" xmlns="http://www.w3.org/2000/svg">
<g id="#000000ff">
<path opacity="1.00" d=" M 24.35 0.00 L 37.13 0.00 C 37.28 3.79 38.92 7.54 41.97 9.87 C 45.75 13.16 51.38 13.17 55.74 11.04 C 57.85 14.53 59.49 18.35 62.00 21.57 L 62.00 21.74 C 58.03 23.90 55.50 28.46 55.74 32.97 C 55.62 37.19 58.63 41.52 62.00 43.34 L 62.00 43.69 C 61.85 43.66 61.54 43.58 61.39 43.55 C 59.79 47.15 57.59 50.43 55.74 53.91 C 53.35 53.34 51.01 52.18 48.47 52.66 C 42.44 52.93 37.55 58.30 37.08 64.19 L 37.75 65.00 L 24.85 65.00 C 24.72 60.01 21.60 55.15 16.87 53.38 C 13.45 51.84 9.61 52.59 6.27 53.96 C 4.16 50.49 2.52 46.69 0.00 43.49 L 0.00 43.33 C 3.92 41.04 6.55 36.60 6.24 32.02 C 6.25 27.81 3.36 23.48 0.00 21.66 L 0.00 21.31 C 0.15 21.35 0.44 21.43 0.58 21.47 C 2.19 17.85 4.36 14.51 6.27 11.05 C 11.08 13.32 17.29 12.90 21.09 8.92 C 23.35 6.74 25.47 3.01 24.35 0.00 M 28.40 19.54 C 21.22 20.78 16.10 29.00 18.34 35.97 C 19.87 41.88 25.88 46.39 32.05 45.69 C 37.82 45.40 42.76 40.66 43.90 35.10 C 46.03 26.39 37.21 17.30 28.40 19.54 Z" />
</g>
</svg>
