<?xml version="1.0" encoding="UTF-8" ?>
<!DOCTYPE svg PUBLIC "-//W3C//DTD SVG 1.1//EN" "http://www.w3.org/Graphics/SVG/1.1/DTD/svg11.dtd">
<svg width="91pt" height="33pt" viewBox="0 0 91 33" version="1.1" xmlns="http://www.w3.org/2000/svg">
<g id="#f5f8faff">
<path fill="#f5f8fa" opacity="1.00" d=" M 0.00 0.00 L 91.00 0.00 L 91.00 33.00 L 0.00 33.00 L 0.00 0.00 M 4.73 7.73 C -2.93 14.58 2.11 27.97 11.06 30.98 L 11.01 31.93 C 28.25 31.37 48.65 33.51 63.90 30.80 C 72.15 29.35 85.07 36.40 89.71 26.72 C 89.92 19.80 91.73 11.33 87.78 5.21 C 83.82 0.33 75.08 0.39 72.73 6.77 C 59.62 9.46 46.14 7.26 32.88 8.09 C 32.55 -0.80 20.36 2.34 15.00 2.01 C 9.96 0.20 7.82 5.24 4.73 7.73 Z" />
</g>
<g id="#9dbaccff">
<path fill="#9dbacc" opacity="1.00" d=" M 4.73 7.73 C 7.82 5.24 9.96 0.20 15.00 2.01 C 20.36 2.34 32.55 -0.80 32.88 8.09 C 32.05 7.98 31.22 7.94 30.38 7.97 L 29.63 7.97 C 28.79 7.02 27.92 6.09 27.03 5.19 C 28.48 2.46 14.85 3.60 11.98 4.99 C 9.80 6.73 7.78 8.66 5.89 10.71 C 5.63 11.01 5.11 11.62 4.85 11.93 C 3.49 15.35 3.58 18.69 5.12 21.96 C 7.07 23.99 9.05 26.00 11.09 27.94 C 21.82 29.05 34.26 30.70 44.99 27.95 C 45.97 27.41 47.06 27.57 48.09 27.80 C 52.93 28.54 59.65 30.91 63.95 27.96 C 66.25 24.08 68.82 23.93 71.14 27.92 C 74.96 29.03 81.60 30.40 85.09 28.08 C 85.28 21.08 89.86 9.74 82.19 5.25 C 82.41 2.77 81.05 2.60 78.11 4.74 C 77.24 7.54 77.87 11.94 73.82 10.97 L 74.31 10.22 C 78.69 8.72 73.79 5.23 74.31 10.22 C 71.61 10.07 68.91 9.90 66.22 9.73 C 55.23 7.66 43.68 10.72 32.88 8.09 C 46.14 7.26 59.62 9.46 72.73 6.77 C 75.08 0.39 83.82 0.33 87.78 5.21 C 91.73 11.33 89.92 19.80 89.71 26.72 C 85.07 36.40 72.15 29.35 63.90 30.80 C 46.29 31.20 28.67 30.94 11.06 30.98 C 2.11 27.97 -2.93 14.58 4.73 7.73 Z" />
</g>
<g id="#fdfdfdff">
<path fill="#fdfdfd" opacity="1.00" d=" M 11.98 4.99 C 14.85 3.60 28.48 2.46 27.03 5.19 C 22.02 5.08 17.00 4.91 11.98 4.99 Z" />
</g>
<g id="#ffffffff">
<path fill="#ffffff" opacity="1.00" d=" M 78.11 4.74 C 81.05 2.60 82.41 2.77 82.19 5.25 C 80.78 5.40 79.42 5.23 78.11 4.74 Z" />
<path fill="#ffffff" opacity="1.00" d=" M 74.31 10.22 C 78.69 8.72 73.79 5.23 74.31 10.22 Z" />
</g>
<g id="#0b0f1aff">
<path fill="#0b0f1a" opacity="1.00" d=" M 11.98 4.99 C 17.00 4.91 22.02 5.08 27.03 5.19 C 27.92 6.09 28.79 7.02 29.63 7.97 C 30.67 14.69 40.52 8.72 45.24 12.18 C 40.47 12.92 35.43 12.21 30.79 13.71 C 28.04 15.15 28.88 18.45 28.86 21.12 C 27.66 29.80 42.02 26.58 46.28 24.21 C 46.64 24.18 47.37 24.14 47.74 24.12 C 51.84 26.98 64.78 29.03 65.16 21.14 C 65.42 18.58 65.06 16.18 64.07 13.92 C 60.47 12.23 52.78 12.41 49.05 14.00 C 48.74 14.54 48.13 15.60 47.83 16.14 C 47.39 15.79 46.50 15.10 46.06 14.76 C 46.25 14.25 46.65 13.25 46.84 12.74 C 55.17 8.70 64.96 12.96 73.82 10.97 C 77.87 11.94 77.24 7.54 78.11 4.74 C 79.42 5.23 80.78 5.40 82.19 5.25 C 89.86 9.74 85.28 21.08 85.09 28.08 C 80.44 28.04 75.79 28.12 71.14 27.92 C 68.82 23.93 66.25 24.08 63.95 27.96 C 58.67 27.98 53.36 28.28 48.09 27.80 C 47.06 27.57 45.97 27.41 44.99 27.95 C 33.69 28.02 22.39 28.11 11.09 27.94 C 9.05 26.00 7.07 23.99 5.12 21.96 C 5.14 21.53 5.19 20.68 5.22 20.25 C 5.59 17.08 5.91 13.90 5.89 10.71 C 7.78 8.66 9.80 6.73 11.98 4.99 M 10.93 8.93 C 6.19 10.83 4.82 19.54 8.96 22.13 C 12.36 28.90 21.14 25.18 27.01 25.96 C 30.07 24.69 26.88 17.11 27.97 14.08 C 23.65 13.77 19.32 14.00 15.00 14.04 C 16.49 15.29 19.46 17.79 20.94 19.04 C 22.16 23.72 17.29 21.54 14.12 21.59 C 13.74 21.18 12.98 20.36 12.60 19.95 C 13.64 18.30 13.64 15.71 12.53 14.09 C 15.49 8.55 22.60 12.02 27.51 10.57 C 30.84 5.94 13.55 4.55 10.93 8.93 M 77.87 12.94 C 75.15 12.97 69.71 13.04 66.99 13.08 C 67.18 16.16 66.26 20.35 69.01 22.29 C 71.86 28.02 78.80 25.80 84.01 26.00 C 86.73 23.14 85.07 12.16 84.06 8.85 C 81.81 4.18 74.22 7.02 77.87 12.94 Z" />
</g>
<g id="#4f8ae2ff">
<path fill="#4f8ae2" opacity="1.00" d=" M 10.93 8.93 C 13.55 4.55 30.84 5.94 27.51 10.57 C 23.14 7.08 16.13 9.95 10.93 8.93 Z" />
</g>
<g id="#6294b1ff">
<path fill="#6294b1" opacity="1.00" d=" M 30.38 7.97 C 31.22 7.94 32.05 7.98 32.88 8.09 C 43.68 10.72 55.23 7.66 66.22 9.73 C 54.68 8.88 40.76 13.10 30.38 7.97 Z" />
</g>
<g id="#4588d9ff">
<path fill="#4588d9" opacity="1.00" d=" M 77.87 12.94 C 74.22 7.02 81.81 4.18 84.06 8.85 C 79.86 7.74 79.18 10.70 77.87 12.94 Z" />
</g>
<g id="#f0f2f3ff">
<path fill="#f0f2f3" opacity="1.00" d=" M 29.63 7.97 L 30.38 7.97 C 40.76 13.10 54.68 8.88 66.22 9.73 C 68.91 9.90 71.61 10.07 74.31 10.22 L 73.82 10.97 C 64.96 12.96 55.17 8.70 46.84 12.74 C 46.44 12.60 45.64 12.32 45.24 12.18 C 40.52 8.72 30.67 14.69 29.63 7.97 Z" />
</g>
<g id="#6ddcf9ff">
<path fill="#6ddcf9" opacity="1.00" d=" M 8.96 22.13 C 4.82 19.54 6.19 10.83 10.93 8.93 C 16.13 9.95 23.14 7.08 27.51 10.57 C 22.60 12.02 15.49 8.55 12.53 14.09 C 11.14 16.26 11.16 18.22 12.60 19.95 C 12.98 20.36 13.74 21.18 14.12 21.59 C 12.40 21.80 10.69 21.99 8.96 22.13 Z" />
</g>
<g id="#70e5feff">
<path fill="#70e5fe" opacity="1.00" d=" M 77.87 12.94 C 79.18 10.70 79.86 7.74 84.06 8.85 C 84.03 13.17 84.06 17.49 84.03 21.81 C 78.68 22.93 79.51 18.51 77.99 16.02 C 72.89 14.48 69.27 15.60 71.87 20.25 C 72.15 22.10 70.28 21.97 69.01 22.29 C 66.26 20.35 67.18 16.16 66.99 13.08 C 69.71 13.04 75.15 12.97 77.87 12.94 Z" />
</g>
<g id="#234557ff">
<path fill="#234557" opacity="1.00" d=" M 84.06 8.85 C 85.07 12.16 86.73 23.14 84.01 26.00 C 84.02 24.60 84.03 23.21 84.03 21.81 C 84.06 17.49 84.03 13.17 84.06 8.85 Z" />
</g>
<g id="#677e97ff">
<path fill="#677e97" opacity="1.00" d=" M 4.85 11.93 C 5.11 11.62 5.63 11.01 5.89 10.71 C 5.91 13.90 5.59 17.08 5.22 20.25 C 5.09 17.47 4.97 14.70 4.85 11.93 Z" />
</g>
<g id="#f6f9f8ff">
<path fill="#f6f9f8" opacity="1.00" d=" M 5.12 21.96 C 3.58 18.69 3.49 15.35 4.85 11.93 C 4.97 14.70 5.09 17.47 5.22 20.25 C 5.19 20.68 5.14 21.53 5.12 21.96 Z" />
</g>
<g id="#4088afff">
<path fill="#4088af" opacity="1.00" d=" M 45.24 12.18 C 45.64 12.32 46.44 12.60 46.84 12.74 C 46.65 13.25 46.25 14.25 46.06 14.76 C 40.98 14.23 35.88 13.97 30.79 13.71 C 35.43 12.21 40.47 12.92 45.24 12.18 Z" />
</g>
<g id="#4293baff">
<path fill="#4293ba" opacity="1.00" d=" M 49.05 14.00 C 52.78 12.41 60.47 12.23 64.07 13.92 C 59.06 13.95 54.05 13.93 49.05 14.00 Z" />
</g>
<g id="#336a79ff">
<path fill="#336a79" opacity="1.00" d=" M 12.60 19.95 C 11.16 18.22 11.14 16.26 12.53 14.09 C 13.64 15.71 13.64 18.30 12.60 19.95 Z" />
</g>
<g id="#316a99ff">
<path fill="#316a99" opacity="1.00" d=" M 15.00 14.04 C 19.32 14.00 23.65 13.77 27.97 14.08 C 26.88 17.11 30.07 24.69 27.01 25.96 C 27.01 24.67 27.01 23.38 27.00 22.10 C 30.91 12.27 21.60 15.16 16.01 15.04 C 14.79 18.73 18.56 17.87 20.96 18.17 L 20.94 19.04 C 19.46 17.79 16.49 15.29 15.00 14.04 Z" />
</g>
<g id="#6dddfaff">
<path fill="#6dddfa" opacity="1.00" d=" M 28.86 21.12 C 28.88 18.45 28.04 15.15 30.79 13.71 C 35.88 13.97 40.98 14.23 46.06 14.76 C 46.03 16.65 45.99 20.42 45.96 22.31 C 43.25 22.35 42.87 19.94 42.23 17.86 C 41.46 14.79 36.45 17.51 34.05 17.05 C 32.41 19.48 33.41 23.77 28.86 21.12 Z" />
<path fill="#6dddfa" opacity="1.00" d=" M 49.05 14.00 C 54.05 13.93 59.06 13.95 64.07 13.92 C 65.06 16.18 65.42 18.58 65.16 21.14 C 62.17 23.00 61.80 20.27 61.26 17.83 C 60.43 14.78 55.42 17.55 53.00 17.03 C 51.01 17.30 52.29 20.79 51.66 22.33 C 50.44 22.20 49.22 22.08 48.01 21.99 C 47.99 20.04 47.92 18.08 47.83 16.14 C 48.13 15.60 48.74 14.54 49.05 14.00 Z" />
</g>
<g id="#6fe0ffff">
<path fill="#6fe0ff" opacity="1.00" d=" M 16.01 15.04 C 21.60 15.16 30.91 12.27 27.00 22.10 C 22.93 23.18 22.16 20.43 20.96 18.17 C 18.56 17.87 14.79 18.73 16.01 15.04 Z" />
</g>
<g id="#163568ff">
<path fill="#163568" opacity="1.00" d=" M 46.06 14.76 C 46.50 15.10 47.39 15.79 47.83 16.14 C 47.92 18.08 47.99 20.04 48.01 21.99 C 47.94 22.52 47.80 23.58 47.74 24.12 C 47.37 24.14 46.64 24.18 46.28 24.21 C 46.20 23.73 46.04 22.78 45.96 22.31 C 45.99 20.42 46.03 16.65 46.06 14.76 Z" />
</g>
<g id="#13233fff">
<path fill="#13233f" opacity="1.00" d=" M 71.87 20.25 C 69.27 15.60 72.89 14.48 77.99 16.02 C 81.69 23.41 74.86 24.99 71.87 20.25 M 74.01 18.01 C 72.47 25.17 81.17 16.47 74.01 18.01 Z" />
</g>
<g id="#4b7af6ff">
<path fill="#4b7af6" opacity="1.00" d=" M 77.99 16.02 C 79.51 18.51 78.68 22.93 84.03 21.81 C 84.03 23.21 84.02 24.60 84.01 26.00 C 78.80 25.80 71.86 28.02 69.01 22.29 C 70.28 21.97 72.15 22.10 71.87 20.25 C 74.86 24.99 81.69 23.41 77.99 16.02 Z" />
</g>
<g id="#4670eeff">
<path fill="#4670ee" opacity="1.00" d=" M 28.86 21.12 C 33.41 23.77 32.41 19.48 34.05 17.05 C 29.38 26.01 44.48 25.19 42.23 17.86 C 42.87 19.94 43.25 22.35 45.96 22.31 C 46.04 22.78 46.20 23.73 46.28 24.21 C 42.02 26.58 27.66 29.80 28.86 21.12 Z" />
</g>
<g id="#0b111cff">
<path fill="#0b111c" opacity="1.00" d=" M 34.05 17.05 C 36.45 17.51 41.46 14.79 42.23 17.86 C 44.48 25.19 29.38 26.01 34.05 17.05 M 36.21 19.13 C 32.69 21.75 38.95 21.55 40.25 20.29 C 42.67 17.99 37.55 19.23 36.21 19.13 Z" />
</g>
<g id="#1b3766ff">
<path fill="#1b3766" opacity="1.00" d=" M 51.66 22.33 C 52.29 20.79 51.01 17.30 53.00 17.03 C 51.53 22.40 55.61 22.73 60.17 22.34 C 57.48 23.53 54.39 23.09 51.66 22.33 Z" />
</g>
<g id="#0b0f16ff">
<path fill="#0b0f16" opacity="1.00" d=" M 53.00 17.03 C 55.42 17.55 60.43 14.78 61.26 17.83 C 60.88 19.28 61.59 21.39 60.17 22.34 C 55.61 22.73 51.53 22.40 53.00 17.03 M 55.21 19.13 C 51.69 21.75 57.95 21.55 59.25 20.29 C 61.67 17.99 56.55 19.23 55.21 19.13 Z" />
</g>
<g id="#4974f7ff">
<path fill="#4974f7" opacity="1.00" d=" M 20.96 18.17 C 22.16 20.43 22.93 23.18 27.00 22.10 C 27.01 23.38 27.01 24.67 27.01 25.96 C 21.14 25.18 12.36 28.90 8.96 22.13 C 10.69 21.99 12.40 21.80 14.12 21.59 C 17.29 21.54 22.16 23.72 20.94 19.04 L 20.96 18.17 Z" />
</g>
<g id="#4a75fbff">
<path fill="#4a75fb" opacity="1.00" d=" M 61.26 17.83 C 61.80 20.27 62.17 23.00 65.16 21.14 C 64.78 29.03 51.84 26.98 47.74 24.12 C 47.80 23.58 47.94 22.52 48.01 21.99 C 49.22 22.08 50.44 22.20 51.66 22.33 C 54.39 23.09 57.48 23.53 60.17 22.34 C 61.59 21.39 60.88 19.28 61.26 17.83 Z" />
</g>
<g id="#97a4a9ff">
<path fill="#97a4a9" opacity="1.00" d=" M 74.01 18.01 C 81.17 16.47 72.47 25.17 74.01 18.01 Z" />
</g>
<g id="#aeb2afff">
<path fill="#aeb2af" opacity="1.00" d=" M 36.21 19.13 C 37.55 19.23 42.67 17.99 40.25 20.29 C 38.95 21.55 32.69 21.75 36.21 19.13 Z" />
</g>
<g id="#acb1afff">
<path fill="#acb1af" opacity="1.00" d=" M 55.21 19.13 C 56.55 19.23 61.67 17.99 59.25 20.29 C 57.95 21.55 51.69 21.75 55.21 19.13 Z" />
</g>
<g id="#ecece9ff">
<path fill="#ecece9" opacity="1.00" d=" M 11.09 27.94 C 22.39 28.11 33.69 28.02 44.99 27.95 C 34.26 30.70 21.82 29.05 11.09 27.94 Z" />
<path fill="#ecece9" opacity="1.00" d=" M 48.09 27.80 C 53.36 28.28 58.67 27.98 63.95 27.96 C 59.65 30.91 52.93 28.54 48.09 27.80 Z" />
</g>
<g id="#ecebe8ff">
<path fill="#ecebe8" opacity="1.00" d=" M 71.14 27.92 C 75.79 28.12 80.44 28.04 85.09 28.08 C 81.60 30.40 74.96 29.03 71.14 27.92 Z" />
</g>
<g id="#c5d8e2ff">
<path fill="#c5d8e2" opacity="1.00" d=" M 11.06 30.98 C 28.67 30.94 46.29 31.20 63.90 30.80 C 48.65 33.51 28.25 31.37 11.01 31.93 L 11.06 30.98 Z" />
</g>
</svg>
