<?xml version="1.0" encoding="UTF-8" ?>
<!DOCTYPE svg PUBLIC "-//W3C//DTD SVG 1.1//EN" "http://www.w3.org/Graphics/SVG/1.1/DTD/svg11.dtd">
<svg width="177pt" height="36pt" viewBox="0 0 177 36" version="1.1" xmlns="http://www.w3.org/2000/svg">
<g id="#fffffeff">
<path fill="#fffffe" opacity="1.00" d=" M 0.00 0.00 L 177.00 0.00 L 177.00 36.00 L 0.00 36.00 L 0.00 0.00 M 133.43 8.46 C 131.65 10.76 128.47 10.28 125.93 10.37 C 117.62 10.10 109.31 10.35 101.01 10.24 C 96.48 10.61 93.52 5.78 88.94 6.37 C 84.48 5.92 81.47 10.37 77.08 10.19 C 66.04 10.49 55.01 10.05 43.97 10.34 C 41.57 10.29 39.10 10.50 36.75 9.91 C 33.62 8.22 31.54 4.90 28.05 3.79 C 24.21 2.46 20.38 5.10 16.52 4.23 C 14.06 3.84 11.48 2.86 9.04 3.82 C 6.22 4.99 4.36 7.54 2.39 9.74 C 2.17 16.58 2.13 23.42 2.40 30.26 C 3.51 31.37 4.62 32.48 5.74 33.58 C 14.82 33.77 23.90 33.66 32.98 33.61 C 39.60 33.59 46.24 34.02 52.83 33.28 C 51.76 32.41 50.61 31.20 49.05 31.57 C 43.68 31.64 38.30 31.77 32.93 31.28 C 26.66 31.60 20.36 31.73 14.08 31.44 C 10.81 31.47 5.52 33.18 4.23 28.95 C 3.79 23.61 4.01 18.23 4.08 12.88 C 4.04 9.93 6.69 8.09 8.33 5.98 C 10.29 5.78 12.28 5.31 14.24 5.69 C 16.32 6.07 17.20 8.22 18.49 9.64 C 19.44 8.26 19.90 5.95 22.00 5.91 C 26.07 4.55 29.83 6.88 32.98 9.19 C 32.99 9.90 33.01 11.30 33.02 12.00 C 36.98 11.86 40.91 12.20 44.84 12.56 C 51.19 11.88 57.63 11.65 63.95 12.74 C 70.04 11.67 76.23 12.09 82.38 11.98 C 84.61 7.81 89.63 8.55 93.56 9.11 C 94.06 10.07 94.56 11.04 95.07 12.00 C 103.03 11.91 110.99 12.34 118.95 12.07 C 121.65 11.90 124.31 12.47 126.98 12.71 C 129.92 12.38 132.85 11.92 135.82 11.92 C 135.75 9.20 136.76 6.77 138.72 4.91 C 147.81 5.04 156.90 5.00 165.99 4.94 C 168.16 4.84 170.49 5.42 171.74 7.35 C 172.74 12.14 171.03 16.90 170.42 21.62 C 170.04 24.28 171.72 27.29 169.74 29.61 C 167.34 33.22 162.45 32.06 159.01 30.88 C 155.44 31.85 151.78 31.49 148.15 31.24 C 144.74 31.97 141.17 32.42 137.98 30.65 C 136.07 31.42 134.08 32.11 131.99 31.99 C 126.42 31.93 120.83 32.20 115.29 31.58 C 114.57 32.15 113.87 32.74 113.19 33.35 C 117.45 33.85 121.74 33.81 126.02 33.78 C 140.12 33.60 154.22 33.56 168.32 33.69 C 169.70 32.26 171.34 30.99 172.25 29.19 C 172.87 25.82 172.80 22.36 173.37 18.98 C 173.73 15.64 174.76 12.31 174.29 8.94 C 173.38 4.81 169.14 2.12 165.02 2.49 C 157.00 2.61 148.97 2.31 140.95 2.60 C 137.34 2.67 135.54 6.10 133.43 8.46 M 137.20 13.33 C 133.52 12.80 129.29 12.46 126.68 15.66 C 124.38 12.12 119.38 12.89 116.01 14.25 C 113.58 12.81 110.72 13.11 108.20 14.14 C 104.13 12.60 99.64 13.63 95.39 13.38 C 94.73 13.84 94.05 14.27 93.36 14.67 C 93.39 13.45 93.39 12.23 93.37 11.02 C 91.10 9.71 88.44 10.00 85.93 9.93 C 85.00 11.02 84.09 12.13 83.20 13.25 C 77.87 13.26 72.53 13.21 67.20 13.35 C 64.99 13.61 64.66 16.29 63.40 17.74 C 63.39 17.03 63.37 15.60 63.36 14.88 C 62.01 14.18 60.68 13.07 59.05 13.27 C 54.15 13.72 49.02 12.39 44.37 14.46 C 40.67 12.52 36.44 13.39 32.45 13.29 C 32.15 11.52 31.68 9.77 29.91 8.97 C 27.50 7.16 24.20 6.08 21.34 7.43 C 19.80 9.70 19.49 12.57 18.63 15.13 C 16.97 12.31 17.19 7.26 13.08 6.95 C 9.47 5.98 5.51 9.39 5.71 13.03 C 5.71 18.73 5.54 24.43 5.89 30.12 C 8.66 30.54 11.50 30.55 14.24 29.94 C 16.82 30.58 19.48 30.40 22.09 30.22 C 25.58 30.11 29.40 31.23 32.52 29.15 C 33.94 29.87 35.41 30.57 37.05 30.39 C 42.03 30.24 47.06 30.63 52.03 30.09 C 54.29 28.84 53.19 25.89 53.52 23.79 C 54.84 23.74 56.16 23.69 57.48 23.63 C 58.60 25.85 59.04 28.58 60.96 30.28 C 62.92 30.63 65.09 30.98 66.97 30.14 C 67.92 29.14 68.55 27.91 69.27 26.76 C 69.79 27.89 70.37 28.99 71.02 30.05 C 73.25 30.90 75.70 30.45 78.03 30.59 C 87.37 30.45 96.71 30.79 106.04 30.34 C 108.12 30.56 109.39 28.75 110.84 27.60 C 112.42 28.77 113.82 30.72 116.01 30.58 C 121.98 30.49 127.96 30.63 133.94 30.56 C 137.45 30.74 138.02 26.23 140.86 25.15 C 140.95 26.09 141.31 26.94 141.94 27.69 C 143.61 27.68 145.28 27.71 146.96 27.76 C 144.26 28.48 141.49 28.34 138.75 28.53 C 140.69 32.25 149.82 31.35 148.76 26.03 C 148.20 23.43 148.50 20.76 149.32 18.25 C 150.05 22.15 149.05 26.08 149.52 29.99 C 152.43 30.37 157.50 31.57 158.69 27.93 C 158.61 24.77 158.50 21.62 159.18 18.51 C 159.49 20.32 159.95 22.09 160.34 23.87 L 159.61 24.73 C 159.77 26.40 159.56 28.17 160.18 29.77 C 162.46 30.93 165.47 31.05 167.77 29.90 C 170.74 27.33 168.21 23.08 169.45 19.82 C 169.67 15.59 172.50 10.79 169.71 6.98 C 168.95 6.68 168.18 6.37 167.42 6.06 C 165.01 6.05 162.59 6.02 160.18 5.97 L 159.73 6.85 C 159.14 6.66 157.96 6.28 157.36 6.09 C 154.47 5.96 151.58 6.09 148.71 6.41 C 145.81 6.25 142.88 5.72 139.97 6.19 C 137.05 7.26 137.45 10.82 137.20 13.33 M 55.11 24.28 C 54.41 27.17 54.64 30.28 57.51 31.91 C 58.24 31.16 58.97 30.40 59.68 29.63 L 58.43 29.62 C 57.74 27.60 56.85 25.61 55.11 24.28 M 61.25 31.58 C 60.56 32.15 59.90 32.75 59.25 33.36 C 75.48 33.98 91.74 33.77 107.98 33.68 C 107.98 33.11 107.98 31.95 107.98 31.37 C 97.68 32.46 87.31 31.81 76.97 32.00 C 74.25 32.20 71.64 31.44 69.07 30.65 C 66.54 31.53 63.96 32.41 61.25 31.58 M 109.79 32.26 C 110.34 32.26 111.45 32.27 112.00 32.27 C 115.36 29.82 107.50 29.59 109.79 32.26 Z" />
<path fill="#fffffe" opacity="1.00" d=" M 27.86 9.91 C 28.28 10.22 29.12 10.84 29.54 11.14 C 30.11 15.36 29.75 19.66 29.79 23.91 C 27.98 23.87 26.18 23.84 24.38 23.81 C 24.08 18.90 26.35 14.44 27.86 9.91 Z" />
<path fill="#fffffe" opacity="1.00" d=" M 7.56 24.57 C 8.13 19.73 6.16 14.23 9.09 9.98 C 10.68 14.69 12.50 19.45 12.24 24.52 C 10.68 24.53 9.12 24.55 7.56 24.57 Z" />
<path fill="#fffffe" opacity="1.00" d=" M 85.77 12.99 C 87.40 11.92 89.44 12.33 91.27 12.09 C 91.30 16.22 91.29 20.34 91.28 24.46 C 89.40 24.49 87.51 24.53 85.63 24.58 C 85.68 20.72 85.45 16.84 85.77 12.99 Z" />
<path fill="#fffffe" opacity="1.00" d=" M 140.42 14.86 C 142.98 15.24 145.52 14.94 147.67 13.43 C 146.99 16.38 146.69 19.41 146.05 22.37 C 145.78 24.32 143.11 24.63 141.96 23.22 C 141.34 20.45 140.89 17.65 140.42 14.86 Z" />
<path fill="#fffffe" opacity="1.00" d=" M 150.14 14.37 C 152.68 15.52 155.29 15.20 157.57 13.68 C 157.41 15.05 157.28 16.42 157.23 17.80 C 156.69 20.41 156.16 23.15 154.03 24.99 C 150.77 22.43 151.02 18.03 150.14 14.37 Z" />
<path fill="#fffffe" opacity="1.00" d=" M 14.28 14.55 C 14.68 14.65 15.46 14.85 15.86 14.94 C 16.69 17.35 17.53 19.76 18.34 22.17 C 19.14 19.83 19.92 17.49 20.67 15.14 C 22.05 15.36 23.43 15.59 24.81 15.82 C 23.94 18.75 22.94 21.63 21.95 24.52 C 19.55 24.53 17.16 24.53 14.76 24.53 C 13.90 21.90 13.00 19.28 12.22 16.62 C 12.91 15.93 13.60 15.24 14.28 14.55 Z" />
<path fill="#fffffe" opacity="1.00" d=" M 118.33 15.59 C 120.25 15.56 122.17 15.53 124.10 15.48 C 124.15 18.49 124.13 21.50 124.13 24.51 C 122.20 24.52 120.28 24.54 118.36 24.55 C 118.31 21.57 118.32 18.58 118.33 15.59 Z" />
<path fill="#fffffe" opacity="1.00" d=" M 161.24 15.99 C 163.47 15.85 165.69 15.72 167.92 15.59 C 166.92 18.57 168.03 23.86 163.86 24.37 C 163.19 23.59 162.59 22.75 162.08 21.86 C 161.80 19.90 161.56 17.94 161.24 15.99 Z" />
<path fill="#fffffe" opacity="1.00" d=" M 30.47 15.64 C 34.47 15.50 38.48 15.61 42.49 15.48 C 44.89 17.98 46.63 20.95 45.86 24.56 C 45.09 24.54 43.55 24.49 42.78 24.47 C 41.20 23.32 39.21 23.43 37.36 23.21 L 37.59 24.63 C 34.71 24.80 31.75 24.70 30.08 21.96 C 33.75 19.45 38.28 20.60 42.41 20.12 C 39.36 17.39 34.97 19.29 31.30 18.62 C 31.09 17.88 30.67 16.38 30.47 15.64 Z" />
<path fill="#fffffe" opacity="1.00" d=" M 47.45 15.99 C 49.73 15.82 52.02 15.65 54.30 15.47 C 55.10 17.46 55.95 19.42 56.80 21.39 C 55.81 21.39 54.81 21.38 53.81 21.37 C 53.05 20.16 52.27 18.95 51.44 17.78 C 51.22 19.81 51.17 21.85 51.12 23.89 C 50.23 23.87 48.45 23.83 47.56 23.82 C 47.52 21.21 47.49 18.60 47.45 15.99 Z" />
<path fill="#fffffe" opacity="1.00" d=" M 56.28 15.62 C 57.79 15.57 59.31 15.52 60.82 15.48 C 61.79 18.10 62.84 20.70 63.93 23.27 C 65.01 20.69 66.04 18.08 67.22 15.54 C 68.29 15.53 70.45 15.50 71.52 15.49 C 70.20 18.26 68.96 21.06 67.71 23.87 C 65.14 23.86 62.57 23.89 60.00 23.76 C 58.53 21.16 57.55 18.32 56.28 15.62 Z" />
<path fill="#fffffe" opacity="1.00" d=" M 72.80 15.55 C 76.65 15.56 80.50 15.58 84.35 15.49 C 84.31 16.29 84.24 17.89 84.21 18.69 C 81.06 19.23 76.81 17.32 74.51 20.20 C 77.79 20.36 81.07 20.29 84.35 20.26 C 84.32 21.09 84.26 22.75 84.23 23.58 C 80.88 23.96 77.07 22.63 74.04 24.50 C 73.13 24.49 71.31 24.47 70.40 24.46 C 69.77 21.21 71.50 18.37 72.80 15.55 Z" />
<path fill="#fffffe" opacity="1.00" d=" M 93.58 17.86 C 94.39 17.13 95.20 16.39 96.00 15.66 C 99.93 15.67 103.87 15.69 107.80 15.59 C 107.82 15.77 107.87 16.12 107.90 16.30 C 108.26 18.94 108.49 21.60 108.70 24.26 C 107.52 23.78 106.34 23.29 105.17 22.80 C 103.59 22.01 101.92 22.80 100.33 23.07 C 100.46 22.60 100.71 21.68 100.84 21.21 C 102.38 21.25 103.92 21.28 105.47 21.29 C 104.03 18.51 101.02 18.89 98.41 18.71 C 98.24 20.43 98.07 22.15 97.90 23.86 C 96.64 23.83 95.37 23.80 94.11 23.77 C 93.93 21.80 93.76 19.83 93.58 17.86 Z" />
<path fill="#fffffe" opacity="1.00" d=" M 110.46 15.62 C 111.47 15.57 113.48 15.49 114.48 15.44 C 114.46 18.59 114.45 21.73 114.48 24.87 C 113.55 24.69 111.71 24.32 110.78 24.13 C 110.13 21.35 110.54 18.45 110.46 15.62 Z" />
<path fill="#fffffe" opacity="1.00" d=" M 125.28 20.91 C 126.87 19.12 128.44 17.30 130.23 15.71 C 132.60 15.08 135.16 15.54 137.60 15.39 C 137.59 16.44 137.59 17.49 137.59 18.54 C 134.97 18.54 132.36 18.56 129.74 18.66 L 129.82 20.08 C 132.29 20.14 134.76 20.25 137.22 20.54 C 137.60 21.93 137.97 23.32 138.31 24.72 C 135.19 24.40 132.21 23.27 129.04 23.29 C 127.36 23.45 126.43 21.80 125.28 20.91 Z" />
</g>
<g id="#ffea62ff">
<path fill="#ffea62" opacity="1.00" d=" M 133.43 8.46 C 135.54 6.10 137.34 2.67 140.95 2.60 C 148.97 2.31 157.00 2.61 165.02 2.49 C 169.14 2.12 173.38 4.81 174.29 8.94 C 174.76 12.31 173.73 15.64 173.37 18.98 C 172.80 22.36 172.87 25.82 172.25 29.19 C 171.34 30.99 169.70 32.26 168.32 33.69 C 154.22 33.56 140.12 33.60 126.02 33.78 C 121.74 33.81 117.45 33.85 113.19 33.35 C 113.87 32.74 114.57 32.15 115.29 31.58 C 120.83 32.20 126.42 31.93 131.99 31.99 C 134.08 32.11 136.07 31.42 137.98 30.65 C 141.17 32.42 144.74 31.97 148.15 31.24 C 151.78 31.49 155.44 31.85 159.01 30.88 C 162.45 32.06 167.34 33.22 169.74 29.61 C 171.72 27.29 170.04 24.28 170.42 21.62 C 171.03 16.90 172.74 12.14 171.74 7.35 C 170.49 5.42 168.16 4.84 165.99 4.94 C 156.90 5.00 147.81 5.04 138.72 4.91 C 136.76 6.77 135.75 9.20 135.82 11.92 C 132.85 11.92 129.92 12.38 126.98 12.71 C 124.31 12.47 121.65 11.90 118.95 12.07 C 110.99 12.34 103.03 11.91 95.07 12.00 C 94.56 11.04 94.06 10.07 93.56 9.11 C 89.63 8.55 84.61 7.81 82.38 11.98 C 76.23 12.09 70.04 11.67 63.95 12.74 C 57.63 11.65 51.19 11.88 44.84 12.56 C 40.91 12.20 36.98 11.86 33.02 12.00 C 33.01 11.30 32.99 9.90 32.98 9.19 C 29.83 6.88 26.07 4.55 22.00 5.91 C 19.90 5.95 19.44 8.26 18.49 9.64 C 17.20 8.22 16.32 6.07 14.24 5.69 C 12.28 5.31 10.29 5.78 8.33 5.98 C 6.69 8.09 4.04 9.93 4.08 12.88 C 4.01 18.23 3.79 23.61 4.23 28.95 C 5.52 33.18 10.81 31.47 14.08 31.44 C 20.36 31.73 26.66 31.60 32.93 31.28 C 38.30 31.77 43.68 31.64 49.05 31.57 C 50.61 31.20 51.76 32.41 52.83 33.28 C 46.24 34.02 39.60 33.59 32.98 33.61 C 23.90 33.66 14.82 33.77 5.74 33.58 C 4.62 32.48 3.51 31.37 2.40 30.26 C 2.13 23.42 2.17 16.58 2.39 9.74 C 4.36 7.54 6.22 4.99 9.04 3.82 C 11.48 2.86 14.06 3.84 16.52 4.23 C 20.38 5.10 24.21 2.46 28.05 3.79 C 31.54 4.90 33.62 8.22 36.75 9.91 C 39.10 10.50 41.57 10.29 43.97 10.34 C 55.01 10.05 66.04 10.49 77.08 10.19 C 81.47 10.37 84.48 5.92 88.94 6.37 C 93.52 5.78 96.48 10.61 101.01 10.24 C 109.31 10.35 117.62 10.10 125.93 10.37 C 128.47 10.28 131.65 10.76 133.43 8.46 Z" />
<path fill="#ffea62" opacity="1.00" d=" M 55.11 24.28 C 56.85 25.61 57.74 27.60 58.43 29.62 L 59.68 29.63 C 58.97 30.40 58.24 31.16 57.51 31.91 C 54.64 30.28 54.41 27.17 55.11 24.28 Z" />
<path fill="#ffea62" opacity="1.00" d=" M 61.25 31.58 C 63.96 32.41 66.54 31.53 69.07 30.65 C 71.64 31.44 74.25 32.20 76.97 32.00 C 87.31 31.81 97.68 32.46 107.98 31.37 C 107.98 31.95 107.98 33.11 107.98 33.68 C 91.74 33.77 75.48 33.98 59.25 33.36 C 59.90 32.75 60.56 32.15 61.25 31.58 Z" />
<path fill="#ffea62" opacity="1.00" d=" M 109.79 32.26 C 107.50 29.59 115.36 29.82 112.00 32.27 C 111.45 32.27 110.34 32.26 109.79 32.26 Z" />
</g>
<g id="#0b0a0aff">
<path fill="#0b0a0a" opacity="1.00" d=" M 137.20 13.33 C 137.45 10.82 137.05 7.26 139.97 6.19 C 142.88 5.72 145.81 6.25 148.71 6.41 C 151.58 6.09 154.47 5.96 157.36 6.09 C 157.50 6.84 157.63 7.60 157.74 8.36 C 155.09 8.30 152.39 8.08 149.79 8.75 C 149.56 10.63 149.72 12.53 150.14 14.37 C 151.02 18.03 150.77 22.43 154.03 24.99 C 156.16 23.15 156.69 20.41 157.23 17.80 C 158.01 15.55 158.57 13.24 159.29 10.97 C 159.31 13.49 159.29 16.00 159.18 18.51 C 158.50 21.62 158.61 24.77 158.69 27.93 C 157.50 31.57 152.43 30.37 149.52 29.99 C 149.05 26.08 150.05 22.15 149.32 18.25 C 148.50 20.76 148.20 23.43 148.76 26.03 C 149.82 31.35 140.69 32.25 138.75 28.53 C 141.49 28.34 144.26 28.48 146.96 27.76 C 146.61 26.86 146.29 25.96 145.86 25.10 C 144.34 24.82 142.80 24.76 141.24 24.93 L 140.86 25.15 C 138.02 26.23 137.45 30.74 133.94 30.56 C 127.96 30.63 121.98 30.49 116.01 30.58 C 113.82 30.72 112.42 28.77 110.84 27.60 C 109.39 28.75 108.12 30.56 106.04 30.34 C 96.71 30.79 87.37 30.45 78.03 30.59 C 75.70 30.45 73.25 30.90 71.02 30.05 C 70.37 28.99 69.79 27.89 69.27 26.76 C 68.55 27.91 67.92 29.14 66.97 30.14 C 65.09 30.98 62.92 30.63 60.96 30.28 C 59.04 28.58 58.60 25.85 57.48 23.63 C 56.16 23.69 54.84 23.74 53.52 23.79 C 53.19 25.89 54.29 28.84 52.03 30.09 C 47.06 30.63 42.03 30.24 37.05 30.39 C 35.41 30.57 33.94 29.87 32.52 29.15 C 29.40 31.23 25.58 30.11 22.09 30.22 C 19.48 30.40 16.82 30.58 14.24 29.94 C 11.50 30.55 8.66 30.54 5.89 30.12 C 5.54 24.43 5.71 18.73 5.71 13.03 C 5.51 9.39 9.47 5.98 13.08 6.95 C 17.19 7.26 16.97 12.31 18.63 15.13 C 19.49 12.57 19.80 9.70 21.34 7.43 C 24.20 6.08 27.50 7.16 29.91 8.97 C 31.68 9.77 32.15 11.52 32.45 13.29 C 36.44 13.39 40.67 12.52 44.37 14.46 C 49.02 12.39 54.15 13.72 59.05 13.27 C 60.68 13.07 62.01 14.18 63.36 14.88 C 63.37 15.60 63.39 17.03 63.40 17.74 C 64.66 16.29 64.99 13.61 67.20 13.35 C 72.53 13.21 77.87 13.26 83.20 13.25 C 84.09 12.13 85.00 11.02 85.93 9.93 C 88.44 10.00 91.10 9.71 93.37 11.02 C 93.39 12.23 93.39 13.45 93.36 14.67 C 94.05 14.27 94.73 13.84 95.39 13.38 C 99.64 13.63 104.13 12.60 108.20 14.14 C 110.72 13.11 113.58 12.81 116.01 14.25 C 119.38 12.89 124.38 12.12 126.68 15.66 C 129.29 12.46 133.52 12.80 137.20 13.33 M 139.68 9.10 C 139.19 9.33 138.21 9.78 137.72 10.01 C 137.88 11.30 138.04 12.59 138.23 13.88 C 139.63 16.16 139.48 18.75 138.83 21.25 C 139.86 21.91 140.91 22.57 141.96 23.22 C 143.11 24.63 145.78 24.32 146.05 22.37 C 146.69 19.41 146.99 16.38 147.67 13.43 C 147.55 11.83 148.70 9.82 147.55 8.47 C 144.98 8.33 141.96 7.60 139.68 9.10 M 9.86 9.27 C 10.55 11.80 11.35 14.29 12.01 16.83 L 12.22 16.62 C 13.00 19.28 13.90 21.90 14.76 24.53 C 17.16 24.53 19.55 24.53 21.95 24.52 C 22.94 21.63 23.94 18.75 24.81 15.82 L 25.03 15.86 C 25.62 13.62 26.31 11.41 26.96 9.20 C 25.89 9.19 23.73 9.18 22.65 9.17 C 21.96 11.15 21.30 13.14 20.67 15.14 C 19.92 17.49 19.14 19.83 18.34 22.17 C 17.53 19.76 16.69 17.35 15.86 14.94 C 15.24 13.02 14.59 11.11 13.97 9.18 C 12.94 9.21 10.89 9.25 9.86 9.27 M 27.86 9.91 C 26.35 14.44 24.08 18.90 24.38 23.81 C 24.32 25.32 24.26 26.83 24.19 28.35 C 26.14 28.38 28.10 28.39 30.05 28.38 C 29.96 26.89 29.87 25.40 29.79 23.91 C 29.75 19.66 30.11 15.36 29.54 11.14 C 29.12 10.84 28.28 10.22 27.86 9.91 M 7.56 24.57 C 9.12 24.55 10.68 24.53 12.24 24.52 C 12.50 19.45 10.68 14.69 9.09 9.98 C 6.16 14.23 8.13 19.73 7.56 24.57 M 85.77 12.99 C 85.45 16.84 85.68 20.72 85.63 24.58 C 87.51 24.53 89.40 24.49 91.28 24.46 C 91.29 20.34 91.30 16.22 91.27 12.09 C 89.44 12.33 87.40 11.92 85.77 12.99 M 46.65 15.50 C 46.72 19.75 46.63 24.01 46.76 28.27 C 48.26 28.32 49.77 28.37 51.27 28.40 C 51.22 26.90 51.17 25.39 51.12 23.89 C 51.17 21.85 51.22 19.81 51.44 17.78 C 52.27 18.95 53.05 20.16 53.81 21.37 C 54.81 21.38 55.81 21.39 56.80 21.39 C 55.95 19.42 55.10 17.46 54.30 15.47 C 51.75 15.44 49.20 15.42 46.65 15.50 M 118.33 15.59 C 118.32 18.58 118.31 21.57 118.36 24.55 C 120.28 24.54 122.20 24.52 124.13 24.51 C 124.13 21.50 124.15 18.49 124.10 15.48 C 122.17 15.53 120.25 15.56 118.33 15.59 M 30.47 15.64 C 30.67 16.38 31.09 17.88 31.30 18.62 C 34.97 19.29 39.36 17.39 42.41 20.12 C 38.28 20.60 33.75 19.45 30.08 21.96 C 31.75 24.70 34.71 24.80 37.59 24.63 L 37.36 23.21 C 39.21 23.43 41.20 23.32 42.78 24.47 C 43.55 24.49 45.09 24.54 45.86 24.56 C 46.63 20.95 44.89 17.98 42.49 15.48 C 38.48 15.61 34.47 15.50 30.47 15.64 M 56.28 15.62 C 57.55 18.32 58.53 21.16 60.00 23.76 C 60.55 25.36 61.10 26.96 61.67 28.55 C 63.05 28.36 64.58 28.63 65.86 28.02 C 66.59 26.69 67.13 25.27 67.71 23.87 C 68.96 21.06 70.20 18.26 71.52 15.49 C 70.45 15.50 68.29 15.53 67.22 15.54 C 66.04 18.08 65.01 20.69 63.93 23.27 C 62.84 20.70 61.79 18.10 60.82 15.48 C 59.31 15.52 57.79 15.57 56.28 15.62 M 72.80 15.55 C 71.50 18.37 69.77 21.21 70.40 24.46 C 71.31 24.47 73.13 24.49 74.04 24.50 C 77.07 22.63 80.88 23.96 84.23 23.58 C 84.26 22.75 84.32 21.09 84.35 20.26 C 81.07 20.29 77.79 20.36 74.51 20.20 C 76.81 17.32 81.06 19.23 84.21 18.69 C 84.24 17.89 84.31 16.29 84.35 15.49 C 80.50 15.58 76.65 15.56 72.80 15.55 M 93.58 17.86 C 93.46 20.18 93.42 22.52 93.49 24.85 C 93.04 25.34 92.59 25.82 92.13 26.31 C 90.77 23.62 87.46 25.50 85.23 25.14 C 85.38 25.90 85.69 27.41 85.84 28.17 C 88.66 29.07 92.50 27.09 94.49 29.75 C 94.21 29.10 93.66 27.81 93.38 27.16 C 97.47 29.27 102.15 28.18 106.53 28.40 C 107.24 27.80 107.94 27.20 108.65 26.60 C 108.61 23.22 110.31 19.19 107.90 16.30 C 107.87 16.12 107.82 15.77 107.80 15.59 C 103.87 15.69 99.93 15.67 96.00 15.66 C 95.20 16.39 94.39 17.13 93.58 17.86 M 110.46 15.62 C 110.54 18.45 110.13 21.35 110.78 24.13 C 111.71 24.32 113.55 24.69 114.48 24.87 C 114.45 21.73 114.46 18.59 114.48 15.44 C 113.48 15.49 111.47 15.57 110.46 15.62 M 125.28 20.91 C 126.43 21.80 127.36 23.45 129.04 23.29 C 132.21 23.27 135.19 24.40 138.31 24.72 C 137.97 23.32 137.60 21.93 137.22 20.54 C 134.76 20.25 132.29 20.14 129.82 20.08 L 129.74 18.66 C 132.36 18.56 134.97 18.54 137.59 18.54 C 137.59 17.49 137.59 16.44 137.60 15.39 C 135.16 15.54 132.60 15.08 130.23 15.71 C 128.44 17.30 126.87 19.12 125.28 20.91 M 14.98 25.42 C 15.20 28.73 18.11 28.37 20.58 28.37 C 20.96 27.35 21.35 26.34 21.73 25.33 C 19.48 25.37 17.23 25.38 14.98 25.42 M 32.90 25.29 C 33.81 26.29 34.72 27.30 35.63 28.31 C 39.02 28.26 42.42 28.27 45.82 28.27 C 45.76 27.52 45.66 26.03 45.60 25.28 C 41.37 25.65 37.13 25.46 32.90 25.29 M 150.36 25.39 C 150.52 26.19 150.85 27.80 151.02 28.61 L 152.10 27.79 C 153.39 28.76 154.66 28.73 155.91 27.69 L 156.46 28.09 C 156.51 27.32 156.60 25.79 156.64 25.02 C 154.54 25.11 152.45 25.23 150.36 25.39 M 7.31 25.30 C 7.46 26.01 7.76 27.43 7.91 28.14 C 9.45 28.32 11.01 28.29 12.56 28.31 C 12.41 27.62 12.11 26.22 11.95 25.52 C 10.41 25.39 8.86 25.32 7.31 25.30 M 71.14 25.33 C 71.49 26.07 72.21 27.55 72.57 28.29 C 76.62 28.03 80.84 28.93 84.74 27.55 C 84.44 27.01 83.84 25.94 83.53 25.40 C 79.40 25.60 75.27 25.41 71.14 25.33 M 112.01 25.35 C 114.73 29.60 119.72 28.03 123.86 28.30 C 123.81 27.30 123.75 26.29 123.70 25.29 C 119.81 25.44 115.91 25.42 112.01 25.35 M 125.38 25.57 C 125.55 26.22 125.90 27.52 126.07 28.17 C 128.91 28.40 131.77 28.26 134.62 28.21 C 135.34 27.47 136.77 26.00 137.49 25.26 C 133.46 25.53 129.42 25.47 125.38 25.57 Z" />
<path fill="#0b0a0a" opacity="1.00" d=" M 159.73 6.85 L 160.18 5.97 C 162.59 6.02 165.01 6.05 167.42 6.06 C 167.54 6.56 167.78 7.56 167.89 8.05 C 164.41 7.81 160.84 7.82 158.04 10.21 C 158.60 9.09 159.16 7.97 159.73 6.85 Z" />
<path fill="#0b0a0a" opacity="1.00" d=" M 168.14 14.25 C 168.61 11.82 169.11 9.39 169.71 6.98 C 172.50 10.79 169.67 15.59 169.45 19.82 C 168.21 23.08 170.74 27.33 167.77 29.90 C 165.47 31.05 162.46 30.93 160.18 29.77 C 159.56 28.17 159.77 26.40 159.61 24.73 L 160.34 23.87 C 160.91 23.20 161.49 22.53 162.08 21.86 C 162.59 22.75 163.19 23.59 163.86 24.37 C 168.03 23.86 166.92 18.57 167.92 15.59 C 167.97 15.26 168.08 14.59 168.14 14.25 M 161.85 25.34 C 161.68 26.08 161.36 27.56 161.20 28.31 C 163.17 28.34 165.15 28.32 167.13 28.23 C 167.06 27.32 166.94 25.51 166.87 24.61 C 165.19 24.82 163.50 25.01 161.85 25.34 Z" />
<path fill="#0b0a0a" opacity="1.00" d=" M 98.41 18.71 C 101.02 18.89 104.03 18.51 105.47 21.29 C 103.92 21.28 102.38 21.25 100.84 21.21 C 100.71 21.68 100.46 22.60 100.33 23.07 C 101.92 22.80 103.59 22.01 105.17 22.80 C 103.78 25.36 101.00 25.41 98.47 25.68 C 98.44 23.36 98.42 21.03 98.41 18.71 Z" />
</g>
<g id="#5d5852ff">
<path fill="#5d5852" opacity="1.00" d=" M 157.36 6.09 C 157.96 6.28 159.14 6.66 159.73 6.85 C 159.16 7.97 158.60 9.09 158.04 10.21 C 160.84 7.82 164.41 7.81 167.89 8.05 C 167.78 7.56 167.54 6.56 167.42 6.06 C 168.18 6.37 168.95 6.68 169.71 6.98 C 169.11 9.39 168.61 11.82 168.14 14.25 C 168.21 12.21 168.14 10.17 168.06 8.14 C 165.33 8.35 162.13 7.93 160.51 10.63 C 160.63 12.43 160.95 14.21 161.24 15.99 C 161.56 17.94 161.80 19.90 162.08 21.86 C 161.49 22.53 160.91 23.20 160.34 23.87 C 159.95 22.09 159.49 20.32 159.18 18.51 C 159.29 16.00 159.31 13.49 159.29 10.97 C 158.57 13.24 158.01 15.55 157.23 17.80 C 157.28 16.42 157.41 15.05 157.57 13.68 C 157.76 11.91 157.84 10.14 157.74 8.36 C 157.63 7.60 157.50 6.84 157.36 6.09 Z" />
<path fill="#5d5852" opacity="1.00" d=" M 137.72 10.01 C 138.21 9.78 139.19 9.33 139.68 9.10 C 139.85 11.03 140.13 12.95 140.42 14.86 C 140.89 17.65 141.34 20.45 141.96 23.22 C 140.91 22.57 139.86 21.91 138.83 21.25 C 139.48 18.75 139.63 16.16 138.23 13.88 C 138.04 12.59 137.88 11.30 137.72 10.01 Z" />
</g>
<g id="#fffad6ff">
<path fill="#fffad6" opacity="1.00" d=" M 139.68 9.10 C 141.96 7.60 144.98 8.33 147.55 8.47 C 148.70 9.82 147.55 11.83 147.67 13.43 C 145.52 14.94 142.98 15.24 140.42 14.86 C 140.13 12.95 139.85 11.03 139.68 9.10 Z" />
<path fill="#fffad6" opacity="1.00" d=" M 149.79 8.75 C 152.39 8.08 155.09 8.30 157.74 8.36 C 157.84 10.14 157.76 11.91 157.57 13.68 C 155.29 15.20 152.68 15.52 150.14 14.37 C 149.72 12.53 149.56 10.63 149.79 8.75 Z" />
<path fill="#fffad6" opacity="1.00" d=" M 160.51 10.63 C 162.13 7.93 165.33 8.35 168.06 8.14 C 168.14 10.17 168.21 12.21 168.14 14.25 C 168.08 14.59 167.97 15.26 167.92 15.59 C 165.69 15.72 163.47 15.85 161.24 15.99 C 160.95 14.21 160.63 12.43 160.51 10.63 Z" />
<path fill="#fffad6" opacity="1.00" d=" M 9.86 9.27 C 10.89 9.25 12.94 9.21 13.97 9.18 C 14.59 11.11 15.24 13.02 15.86 14.94 C 15.46 14.85 14.68 14.65 14.28 14.55 C 13.60 15.24 12.91 15.93 12.22 16.62 L 12.01 16.83 C 11.35 14.29 10.55 11.80 9.86 9.27 Z" />
<path fill="#fffad6" opacity="1.00" d=" M 22.65 9.17 C 23.73 9.18 25.89 9.19 26.96 9.20 C 26.31 11.41 25.62 13.62 25.03 15.86 L 24.81 15.82 C 23.43 15.59 22.05 15.36 20.67 15.14 C 21.30 13.14 21.96 11.15 22.65 9.17 Z" />
<path fill="#fffad6" opacity="1.00" d=" M 14.98 25.42 C 17.23 25.38 19.48 25.37 21.73 25.33 C 21.35 26.34 20.96 27.35 20.58 28.37 C 18.11 28.37 15.20 28.73 14.98 25.42 Z" />
<path fill="#fffad6" opacity="1.00" d=" M 32.90 25.29 C 37.13 25.46 41.37 25.65 45.60 25.28 C 45.66 26.03 45.76 27.52 45.82 28.27 C 42.42 28.27 39.02 28.26 35.63 28.31 C 34.72 27.30 33.81 26.29 32.90 25.29 Z" />
<path fill="#fffad6" opacity="1.00" d=" M 7.31 25.30 C 8.86 25.32 10.41 25.39 11.95 25.52 C 12.11 26.22 12.41 27.62 12.56 28.31 C 11.01 28.29 9.45 28.32 7.91 28.14 C 7.76 27.43 7.46 26.01 7.31 25.30 Z" />
<path fill="#fffad6" opacity="1.00" d=" M 71.14 25.33 C 75.27 25.41 79.40 25.60 83.53 25.40 C 83.84 25.94 84.44 27.01 84.74 27.55 C 80.84 28.93 76.62 28.03 72.57 28.29 C 72.21 27.55 71.49 26.07 71.14 25.33 Z" />
<path fill="#fffad6" opacity="1.00" d=" M 112.01 25.35 C 115.91 25.42 119.81 25.44 123.70 25.29 C 123.75 26.29 123.81 27.30 123.86 28.30 C 119.72 28.03 114.73 29.60 112.01 25.35 Z" />
<path fill="#fffad6" opacity="1.00" d=" M 125.38 25.57 C 129.42 25.47 133.46 25.53 137.49 25.26 C 136.77 26.00 135.34 27.47 134.62 28.21 C 131.77 28.26 128.91 28.40 126.07 28.17 C 125.90 27.52 125.55 26.22 125.38 25.57 Z" />
<path fill="#fffad6" opacity="1.00" d=" M 152.10 27.79 C 153.10 26.68 154.86 26.60 155.91 27.69 C 154.66 28.73 153.39 28.76 152.10 27.79 Z" />
</g>
<g id="#aea698ff">
<path fill="#aea698" opacity="1.00" d=" M 46.65 15.50 C 49.20 15.42 51.75 15.44 54.30 15.47 C 52.02 15.65 49.73 15.82 47.45 15.99 C 47.49 18.60 47.52 21.21 47.56 23.82 C 48.45 23.83 50.23 23.87 51.12 23.89 C 51.17 25.39 51.22 26.90 51.27 28.40 C 49.77 28.37 48.26 28.32 46.76 28.27 C 46.63 24.01 46.72 19.75 46.65 15.50 Z" />
<path fill="#aea698" opacity="1.00" d=" M 107.90 16.30 C 110.31 19.19 108.61 23.22 108.65 26.60 C 107.94 27.20 107.24 27.80 106.53 28.40 C 102.15 28.18 97.47 29.27 93.38 27.16 C 93.66 27.81 94.21 29.10 94.49 29.75 C 92.50 27.09 88.66 29.07 85.84 28.17 C 85.69 27.41 85.38 25.90 85.23 25.14 C 87.46 25.50 90.77 23.62 92.13 26.31 C 92.59 25.82 93.04 25.34 93.49 24.85 C 93.42 22.52 93.46 20.18 93.58 17.86 C 93.76 19.83 93.93 21.80 94.11 23.77 C 95.37 23.80 96.64 23.83 97.90 23.86 C 98.07 22.15 98.24 20.43 98.41 18.71 C 98.42 21.03 98.44 23.36 98.47 25.68 C 101.00 25.41 103.78 25.36 105.17 22.80 C 106.34 23.29 107.52 23.78 108.70 24.26 C 108.49 21.60 108.26 18.94 107.90 16.30 Z" />
<path fill="#aea698" opacity="1.00" d=" M 24.38 23.81 C 26.18 23.84 27.98 23.87 29.79 23.91 C 29.87 25.40 29.96 26.89 30.05 28.38 C 28.10 28.39 26.14 28.38 24.19 28.35 C 24.26 26.83 24.32 25.32 24.38 23.81 Z" />
<path fill="#aea698" opacity="1.00" d=" M 60.00 23.76 C 62.57 23.89 65.14 23.86 67.71 23.87 C 67.13 25.27 66.59 26.69 65.86 28.02 C 64.58 28.63 63.05 28.36 61.67 28.55 C 61.10 26.96 60.55 25.36 60.00 23.76 Z" />
<path fill="#aea698" opacity="1.00" d=" M 140.86 25.15 L 141.24 24.93 C 142.80 24.76 144.34 24.82 145.86 25.10 C 146.29 25.96 146.61 26.86 146.96 27.76 C 145.28 27.71 143.61 27.68 141.94 27.69 C 141.31 26.94 140.95 26.09 140.86 25.15 Z" />
<path fill="#aea698" opacity="1.00" d=" M 150.36 25.39 C 152.45 25.23 154.54 25.11 156.64 25.02 C 156.60 25.79 156.51 27.32 156.46 28.09 L 155.91 27.69 C 154.86 26.60 153.10 26.68 152.10 27.79 L 151.02 28.61 C 150.85 27.80 150.52 26.19 150.36 25.39 Z" />
<path fill="#aea698" opacity="1.00" d=" M 161.85 25.34 C 163.50 25.01 165.19 24.82 166.87 24.61 C 166.94 25.51 167.06 27.32 167.13 28.23 C 165.15 28.32 163.17 28.34 161.20 28.31 C 161.36 27.56 161.68 26.08 161.85 25.34 Z" />
</g>
</svg>
