<?xml version="1.0" encoding="UTF-8" ?>
<!DOCTYPE svg PUBLIC "-//W3C//DTD SVG 1.1//EN" "http://www.w3.org/Graphics/SVG/1.1/DTD/svg11.dtd">
<svg width="85pt" height="31pt" viewBox="0 0 85 31" version="1.1" xmlns="http://www.w3.org/2000/svg">
<g id="#ffffffff">
<path fill="#ffffff" opacity="1.00" d=" M 0.00 0.00 L 85.00 0.00 L 85.00 31.00 L 0.00 31.00 L 0.00 0.00 M 2.54 11.93 C 2.78 16.49 1.86 21.23 3.32 25.65 C 4.13 19.80 3.67 13.88 3.63 8.00 C 5.06 6.81 6.24 5.17 8.02 4.47 C 9.70 4.34 11.39 4.45 13.08 4.51 C 13.97 7.54 14.74 10.65 16.27 13.45 C 17.35 10.53 18.21 7.54 18.94 4.52 C 21.18 4.57 23.59 3.99 25.74 4.85 C 27.15 6.07 28.01 7.76 28.95 9.35 C 30.53 7.82 32.03 5.09 34.64 6.09 C 37.65 8.09 35.60 12.21 36.06 15.17 C 37.76 13.64 39.28 11.92 41.08 10.50 C 44.11 10.20 47.15 10.42 50.18 10.52 C 50.18 11.49 50.17 13.42 50.16 14.38 C 51.48 13.14 52.70 11.79 54.11 10.64 C 57.10 10.14 60.15 10.43 63.17 10.43 C 63.41 11.09 63.91 12.42 64.15 13.08 C 63.35 15.27 62.94 17.56 64.15 19.69 C 69.58 19.43 75.03 19.71 80.47 19.41 C 81.41 21.79 81.39 24.29 80.47 26.68 C 75.22 26.80 69.82 25.92 64.70 27.36 C 69.87 27.71 75.11 27.88 80.26 27.29 C 82.53 25.20 82.41 20.90 80.23 18.75 C 76.19 18.14 72.09 18.68 68.03 18.37 C 63.95 17.58 65.70 12.22 63.20 9.80 C 59.47 8.99 55.60 9.39 51.92 10.24 C 47.55 9.42 43.09 9.10 38.67 9.82 C 37.35 8.37 36.09 6.88 34.80 5.41 C 31.79 5.61 28.66 5.88 25.98 4.20 C 22.40 2.33 18.32 3.73 16.01 6.86 C 14.22 5.34 12.63 2.96 9.95 3.46 C 5.28 2.57 2.04 7.78 2.54 11.93 M 7.71 6.10 C 9.58 12.49 11.74 18.80 13.95 25.08 C 15.53 25.00 17.10 24.93 18.68 24.84 C 20.57 18.53 22.84 12.35 24.70 6.03 C 23.24 6.07 21.78 6.11 20.32 6.16 C 19.10 10.35 17.72 14.51 16.12 18.58 C 14.51 14.49 13.15 10.30 11.78 6.13 C 10.42 6.12 9.07 6.11 7.71 6.10 M 5.77 9.11 C 5.13 14.36 5.67 19.71 5.54 25.00 C 7.09 24.98 8.65 24.95 10.21 24.93 C 10.37 18.79 9.40 12.66 6.83 7.05 C 6.56 7.57 6.03 8.59 5.77 9.11 M 22.25 24.97 C 23.72 24.97 25.20 24.96 26.68 24.95 C 26.33 18.87 27.45 12.63 25.96 6.67 C 22.79 12.26 21.90 18.64 22.25 24.97 M 29.83 11.30 C 31.03 11.37 33.44 11.50 34.64 11.57 C 34.54 10.49 34.35 8.34 34.26 7.27 C 32.31 8.05 30.88 9.52 29.83 11.30 M 41.42 12.33 C 39.72 13.73 38.30 15.42 36.77 16.99 C 36.99 17.63 37.42 18.91 37.64 19.55 C 40.29 20.00 42.97 20.18 45.64 20.49 C 43.46 22.95 39.68 21.36 36.80 21.77 C 36.80 22.57 36.80 24.16 36.80 24.96 C 39.74 24.96 42.72 25.25 45.64 24.76 C 47.05 23.25 50.09 21.68 49.03 19.25 C 47.63 15.89 43.16 17.23 40.35 16.43 C 42.67 14.54 45.89 15.68 48.61 15.42 C 48.58 14.58 48.51 12.88 48.48 12.04 C 46.13 12.13 43.76 11.96 41.42 12.33 M 55.26 12.22 C 52.94 13.51 51.42 15.88 49.75 17.90 C 52.24 20.65 56.08 20.02 59.39 20.58 C 56.86 22.75 53.29 21.48 50.25 21.79 C 50.24 22.58 50.22 24.16 50.21 24.94 C 53.07 24.97 55.94 25.18 58.79 24.87 C 60.49 23.41 63.83 21.43 62.26 18.83 C 60.50 15.95 56.36 17.23 53.57 16.36 C 56.09 14.71 59.23 15.57 62.06 15.41 C 62.04 14.58 62.00 12.92 61.98 12.10 C 59.74 12.12 57.49 12.00 55.26 12.22 M 30.28 12.27 C 30.30 16.52 30.29 20.77 30.32 25.01 C 31.36 25.01 33.45 25.00 34.50 25.00 C 34.51 20.76 34.50 16.52 34.52 12.28 C 33.46 12.28 31.34 12.27 30.28 12.27 M 65.36 21.20 C 65.36 22.42 65.35 23.64 65.33 24.87 C 66.64 24.93 67.94 24.99 69.24 25.05 C 69.24 23.72 69.23 22.39 69.22 21.06 C 67.93 21.11 66.65 21.16 65.36 21.20 M 70.52 21.06 C 70.50 22.38 70.48 23.70 70.48 25.02 C 71.42 25.00 73.31 24.96 74.25 24.95 C 74.24 23.68 74.23 22.42 74.24 21.15 C 73.31 21.13 71.45 21.08 70.52 21.06 M 75.33 21.19 C 75.33 22.42 75.32 23.64 75.30 24.87 C 76.61 24.93 77.91 24.99 79.22 25.05 C 79.21 23.72 79.19 22.40 79.17 21.08 C 77.89 21.12 76.61 21.16 75.33 21.19 M 63.39 23.29 C 62.20 23.54 60.95 25.05 61.56 26.27 C 63.17 27.57 65.16 24.04 63.39 23.29 M 11.41 25.91 C 9.50 26.41 7.62 27.01 5.77 27.69 C 20.08 27.26 34.39 27.81 48.70 27.49 C 52.29 27.47 55.88 28.11 59.45 27.57 C 55.68 26.72 51.33 27.62 48.09 25.12 C 43.67 28.30 37.96 25.91 32.94 26.50 C 25.76 26.04 18.49 27.17 11.41 25.91 Z" />
</g>
<g id="#e10101ff">
<path fill="#e10101" opacity="1.00" d=" M 2.54 11.93 C 2.04 7.78 5.28 2.57 9.95 3.46 C 12.63 2.96 14.22 5.34 16.01 6.86 C 18.32 3.73 22.40 2.33 25.98 4.20 C 28.66 5.88 31.79 5.61 34.80 5.41 C 36.09 6.88 37.35 8.37 38.67 9.82 C 43.09 9.10 47.55 9.42 51.92 10.24 C 55.60 9.39 59.47 8.99 63.20 9.80 C 65.70 12.22 63.95 17.58 68.03 18.37 C 72.09 18.68 76.19 18.14 80.23 18.75 C 82.41 20.90 82.53 25.20 80.26 27.29 C 75.11 27.88 69.87 27.71 64.70 27.36 C 69.82 25.92 75.22 26.80 80.47 26.68 C 81.39 24.29 81.41 21.79 80.47 19.41 C 75.03 19.71 69.58 19.43 64.15 19.69 C 62.94 17.56 63.35 15.27 64.15 13.08 C 63.91 12.42 63.41 11.09 63.17 10.43 C 60.15 10.43 57.10 10.14 54.11 10.64 C 52.70 11.79 51.48 13.14 50.16 14.38 C 50.17 13.42 50.18 11.49 50.18 10.52 C 47.15 10.42 44.11 10.20 41.08 10.50 C 39.28 11.92 37.76 13.64 36.06 15.17 C 35.60 12.21 37.65 8.09 34.64 6.09 C 32.03 5.09 30.53 7.82 28.95 9.35 C 28.01 7.76 27.15 6.07 25.74 4.85 C 23.59 3.99 21.18 4.57 18.94 4.52 C 18.21 7.54 17.35 10.53 16.27 13.45 C 14.74 10.65 13.97 7.54 13.08 4.51 C 11.39 4.45 9.70 4.34 8.02 4.47 C 6.24 5.17 5.06 6.81 3.63 8.00 C 3.67 13.88 4.13 19.80 3.32 25.65 C 1.86 21.23 2.78 16.49 2.54 11.93 Z" />
<path fill="#e10101" opacity="1.00" d=" M 7.71 6.10 C 9.07 6.11 10.42 6.12 11.78 6.13 C 13.15 10.30 14.51 14.49 16.12 18.58 C 17.72 14.51 19.10 10.35 20.32 6.16 C 21.78 6.11 23.24 6.07 24.70 6.03 C 22.84 12.35 20.57 18.53 18.68 24.84 C 17.10 24.93 15.53 25.00 13.95 25.08 C 11.74 18.80 9.58 12.49 7.71 6.10 Z" />
<path fill="#e10101" opacity="1.00" d=" M 5.77 9.11 C 6.03 8.59 6.56 7.57 6.83 7.05 C 9.40 12.66 10.37 18.79 10.21 24.93 C 8.65 24.95 7.09 24.98 5.54 25.00 C 5.67 19.71 5.13 14.36 5.77 9.11 Z" />
<path fill="#e10101" opacity="1.00" d=" M 22.25 24.97 C 21.90 18.64 22.79 12.26 25.96 6.67 C 27.45 12.63 26.33 18.87 26.68 24.95 C 25.20 24.96 23.72 24.97 22.25 24.97 Z" />
<path fill="#e10101" opacity="1.00" d=" M 29.83 11.30 C 30.88 9.52 32.31 8.05 34.26 7.27 C 34.35 8.34 34.54 10.49 34.64 11.57 C 33.44 11.50 31.03 11.37 29.83 11.30 Z" />
<path fill="#e10101" opacity="1.00" d=" M 41.42 12.33 C 43.76 11.96 46.13 12.13 48.48 12.04 C 48.51 12.88 48.58 14.58 48.61 15.42 C 45.89 15.68 42.67 14.54 40.35 16.43 C 43.16 17.23 47.63 15.89 49.03 19.25 C 50.09 21.68 47.05 23.25 45.64 24.76 C 42.72 25.25 39.74 24.96 36.80 24.96 C 36.80 24.16 36.80 22.57 36.80 21.77 C 39.68 21.36 43.46 22.95 45.64 20.49 C 42.97 20.18 40.29 20.00 37.64 19.55 C 37.42 18.91 36.99 17.63 36.77 16.99 C 38.30 15.42 39.72 13.73 41.42 12.33 Z" />
<path fill="#e10101" opacity="1.00" d=" M 55.26 12.22 C 57.49 12.00 59.74 12.12 61.98 12.10 C 62.00 12.92 62.04 14.58 62.06 15.41 C 59.23 15.57 56.09 14.71 53.57 16.36 C 56.36 17.23 60.50 15.95 62.26 18.83 C 63.83 21.43 60.49 23.41 58.79 24.87 C 55.94 25.18 53.07 24.97 50.21 24.94 C 50.22 24.16 50.24 22.58 50.25 21.79 C 53.29 21.48 56.86 22.75 59.39 20.58 C 56.08 20.02 52.24 20.65 49.75 17.90 C 51.42 15.88 52.94 13.51 55.26 12.22 Z" />
<path fill="#e10101" opacity="1.00" d=" M 30.28 12.27 C 31.34 12.27 33.46 12.28 34.52 12.28 C 34.50 16.52 34.51 20.76 34.50 25.00 C 33.45 25.00 31.36 25.01 30.32 25.01 C 30.29 20.77 30.30 16.52 30.28 12.27 Z" />
<path fill="#e10101" opacity="1.00" d=" M 65.36 21.20 C 66.65 21.16 67.93 21.11 69.22 21.06 C 69.23 22.39 69.24 23.72 69.24 25.05 C 67.94 24.99 66.64 24.93 65.33 24.87 C 65.35 23.64 65.36 22.42 65.36 21.20 Z" />
<path fill="#e10101" opacity="1.00" d=" M 70.52 21.06 C 71.45 21.08 73.31 21.13 74.24 21.15 C 74.23 22.42 74.24 23.68 74.25 24.95 C 73.31 24.96 71.42 25.00 70.48 25.02 C 70.48 23.70 70.50 22.38 70.52 21.06 Z" />
<path fill="#e10101" opacity="1.00" d=" M 75.33 21.19 C 76.61 21.16 77.89 21.12 79.17 21.08 C 79.19 22.40 79.21 23.72 79.22 25.05 C 77.91 24.99 76.61 24.93 75.30 24.87 C 75.32 23.64 75.33 22.42 75.33 21.19 Z" />
<path fill="#e10101" opacity="1.00" d=" M 63.39 23.29 C 65.16 24.04 63.17 27.57 61.56 26.27 C 60.95 25.05 62.20 23.54 63.39 23.29 Z" />
<path fill="#e10101" opacity="1.00" d=" M 11.41 25.91 C 18.49 27.17 25.76 26.04 32.94 26.50 C 37.96 25.91 43.67 28.30 48.09 25.12 C 51.33 27.62 55.68 26.72 59.45 27.57 C 55.88 28.11 52.29 27.47 48.70 27.49 C 34.39 27.81 20.08 27.26 5.77 27.69 C 7.62 27.01 9.50 26.41 11.41 25.91 Z" />
</g>
</svg>
