<?xml version="1.0" encoding="UTF-8" ?>
<!DOCTYPE svg PUBLIC "-//W3C//DTD SVG 1.1//EN" "http://www.w3.org/Graphics/SVG/1.1/DTD/svg11.dtd">
<svg width="225pt" height="225pt" viewBox="0 0 225 225" version="1.1" xmlns="http://www.w3.org/2000/svg">
<g id="#6b6b6bff">
<path fill="#6b6b6b" opacity="1.00" d=" M 100.00 0.00 L 110.49 0.00 C 107.04 0.75 103.53 1.14 100.00 1.10 L 100.00 0.00 Z" />
<path fill="#6b6b6b" opacity="1.00" d=" M 114.51 0.00 L 125.07 0.00 L 125.03 1.07 C 121.49 1.17 117.97 0.74 114.51 0.00 Z" />
</g>
<g id="#010002ff">
<path fill="#010002" opacity="1.00" d=" M 110.49 0.00 L 114.51 0.00 C 117.97 0.74 121.49 1.17 125.03 1.07 C 125.74 1.09 127.17 1.12 127.89 1.13 C 128.98 2.29 130.60 2.32 132.07 2.12 C 132.51 2.10 133.40 2.07 133.84 2.06 C 134.70 3.10 135.78 3.46 137.09 3.14 C 137.52 3.13 138.38 3.09 138.81 3.08 C 139.39 3.28 140.53 3.69 141.11 3.89 C 141.68 4.04 142.83 4.34 143.41 4.50 C 143.47 4.51 143.59 4.55 143.65 4.57 C 144.29 4.77 145.58 5.18 146.23 5.38 C 146.43 5.45 146.83 5.58 147.02 5.65 C 147.56 5.83 148.62 6.19 149.15 6.37 C 149.33 6.43 149.69 6.55 149.87 6.62 C 158.84 9.71 167.35 14.09 175.24 19.35 C 175.37 19.43 175.63 19.61 175.76 19.70 C 177.78 21.08 179.75 22.54 181.70 24.04 C 182.06 25.24 182.89 25.88 184.17 25.95 C 185.64 27.29 187.10 28.65 188.58 29.98 C 190.63 32.21 192.79 34.34 195.00 36.41 C 206.66 48.98 215.36 64.32 220.10 80.80 C 220.30 81.36 220.71 82.50 220.91 83.07 C 220.91 83.49 220.92 84.33 220.93 84.75 C 221.17 85.32 221.66 86.47 221.91 87.05 C 221.92 87.51 221.95 88.43 221.96 88.89 C 222.20 89.45 222.68 90.57 222.93 91.12 C 222.91 91.82 222.88 93.22 222.87 93.91 C 222.69 95.38 222.74 97.00 223.86 98.11 C 223.88 98.82 223.92 100.24 223.94 100.95 C 223.99 104.50 223.85 108.12 225.00 111.53 L 225.00 116.40 C 224.03 119.18 223.91 122.12 223.91 125.03 C 223.92 125.74 223.93 127.18 223.94 127.89 C 222.79 128.70 222.51 129.80 223.08 131.21 C 223.03 131.90 222.92 133.26 222.86 133.95 C 222.63 134.52 222.17 135.67 221.94 136.24 C 221.92 136.90 221.89 138.22 221.88 138.88 C 221.68 139.46 221.26 140.61 221.06 141.18 C 220.93 141.72 220.66 142.80 220.53 143.34 C 220.51 143.42 220.47 143.57 220.45 143.65 C 220.29 144.19 219.98 145.27 219.83 145.81 C 219.60 146.44 219.16 147.71 218.94 148.34 L 218.64 149.16 C 218.58 149.32 218.46 149.65 218.40 149.81 C 213.34 164.17 205.34 177.51 194.95 188.65 C 192.77 190.69 190.65 192.79 188.61 194.97 C 185.99 197.49 183.17 199.78 180.28 201.97 C 178.80 201.74 177.94 202.38 177.70 203.88 C 177.21 204.24 176.22 204.94 175.73 205.30 C 175.60 205.39 175.34 205.57 175.21 205.66 C 167.32 210.93 158.78 215.22 149.84 218.38 C 149.67 218.44 149.34 218.56 149.18 218.62 C 148.56 218.82 147.32 219.23 146.71 219.43 C 146.65 219.45 146.54 219.48 146.48 219.50 C 145.93 219.66 144.82 219.97 144.27 220.13 C 143.68 220.33 142.51 220.74 141.93 220.94 L 141.09 220.89 C 140.54 221.13 139.43 221.62 138.88 221.86 C 138.20 221.88 136.85 221.92 136.18 221.93 C 135.61 222.17 134.48 222.63 133.92 222.86 C 133.24 222.91 131.88 223.03 131.20 223.08 C 129.80 222.52 128.69 222.80 127.87 223.91 C 127.16 223.91 125.75 223.91 125.04 223.91 C 121.51 223.84 118.01 224.24 114.57 225.00 L 111.41 225.00 C 107.55 224.37 103.66 223.78 99.73 223.94 C 99.08 223.92 97.78 223.88 97.13 223.86 C 96.00 222.78 94.40 222.63 92.92 222.87 C 92.47 222.90 91.57 222.97 91.12 223.00 C 90.37 221.87 89.29 221.52 87.89 221.93 C 87.46 221.92 86.59 221.90 86.16 221.90 C 85.57 221.70 84.39 221.31 83.80 221.12 C 83.26 220.97 82.18 220.68 81.64 220.54 C 81.57 220.52 81.43 220.48 81.36 220.46 C 80.82 220.31 79.75 220.00 79.21 219.85 C 78.64 219.62 77.50 219.14 76.93 218.90 L 76.04 218.87 C 75.29 218.58 73.79 218.01 73.04 217.73 L 72.67 217.58 C 72.60 217.55 72.45 217.49 72.38 217.46 C 63.32 213.96 54.68 209.34 46.79 203.67 C 46.66 203.57 46.40 203.39 46.28 203.29 C 45.11 202.41 43.94 201.53 42.77 200.65 C 42.66 200.56 42.42 200.38 42.31 200.29 C 40.58 198.94 38.98 197.46 37.36 195.99 C 34.65 193.11 31.82 190.34 28.96 187.61 C 27.98 186.48 26.98 185.36 25.99 184.25 C 26.22 182.72 25.57 181.87 24.04 181.70 C 23.26 180.72 22.48 179.72 21.72 178.73 C 21.63 178.60 21.44 178.35 21.35 178.22 C 20.93 177.62 20.08 176.41 19.66 175.80 C 19.57 175.67 19.40 175.42 19.31 175.29 C 14.25 167.76 10.12 159.61 7.00 151.10 C 6.76 150.55 6.28 149.44 6.05 148.89 L 6.12 148.03 C 5.85 147.50 5.30 146.42 5.03 145.89 L 5.12 145.07 C 4.86 144.52 4.34 143.43 4.09 142.89 C 4.08 142.44 4.07 141.54 4.07 141.09 C 3.82 140.53 3.32 139.42 3.08 138.86 C 3.08 138.41 3.09 137.51 3.09 137.07 C 3.48 135.69 3.12 134.64 2.01 133.91 C 2.03 133.47 2.07 132.60 2.08 132.16 C 2.34 130.67 2.34 129.01 1.15 127.91 C 1.13 127.22 1.09 125.85 1.07 125.16 C 1.16 121.91 0.83 118.67 0.00 115.53 L 0.00 105.13 C 1.46 103.46 1.44 101.00 0.92 98.97 C 3.70 79.03 11.29 59.64 23.82 43.80 C 28.12 37.83 33.78 33.04 38.90 27.80 C 55.97 13.06 77.55 3.50 100.00 1.10 C 103.53 1.14 107.04 0.75 110.49 0.00 M 99.24 19.02 C 98.47 19.09 96.93 19.22 96.16 19.29 C 95.69 19.25 94.75 19.16 94.27 19.12 L 94.08 19.95 C 93.34 20.01 91.84 20.14 91.09 20.20 C 90.64 20.19 89.72 20.16 89.26 20.15 L 89.13 20.99 L 88.09 20.87 C 77.30 24.07 66.84 28.62 57.72 35.29 C 57.61 35.37 57.37 35.54 57.26 35.62 C 56.24 36.49 54.70 36.99 54.21 38.33 C 52.64 37.96 51.90 38.54 52.00 40.08 C 49.98 40.74 48.66 42.90 47.04 44.27 C 45.10 43.18 42.17 46.13 43.30 48.06 C 42.23 49.33 40.41 50.33 40.08 52.02 C 38.57 51.86 37.98 52.59 38.31 54.21 C 36.06 55.65 34.96 58.42 33.31 60.49 C 29.67 66.39 25.84 72.51 24.04 79.21 L 23.17 79.29 C 23.12 79.73 23.03 80.61 22.98 81.05 L 23.00 82.12 L 22.14 82.24 C 22.12 82.69 22.07 83.58 22.05 84.03 L 22.04 85.14 L 21.18 85.26 C 21.17 85.72 21.14 86.63 21.13 87.09 C 21.09 87.58 21.00 88.57 20.96 89.07 L 20.13 89.24 C 20.15 89.70 20.18 90.61 20.19 91.07 C 20.15 91.58 20.07 92.61 20.04 93.13 C 18.59 93.61 18.33 94.59 19.24 96.06 C 19.18 96.58 19.06 97.63 19.00 98.15 C 17.41 98.72 17.46 101.75 18.27 103.06 C 17.59 108.59 17.66 114.54 18.24 120.10 C 17.65 121.68 17.24 125.05 19.00 125.82 C 19.05 126.35 19.15 127.42 19.20 127.96 C 18.29 129.42 18.56 130.40 20.02 130.91 C 20.07 131.66 20.17 133.17 20.23 133.92 C 20.21 134.38 20.18 135.29 20.16 135.75 L 20.99 135.89 C 21.07 136.45 21.23 137.57 21.31 138.13 C 21.37 138.30 21.50 138.65 21.56 138.82 C 21.70 139.35 21.99 140.40 22.13 140.93 C 22.14 141.38 22.17 142.29 22.18 142.74 L 23.04 142.85 C 25.40 151.61 30.08 159.80 35.30 167.23 C 35.39 167.37 35.58 167.64 35.68 167.78 C 36.50 168.79 37.00 170.31 38.32 170.78 C 37.95 172.37 38.54 173.10 40.08 172.96 C 40.41 174.65 42.21 175.66 43.29 176.91 C 41.98 178.43 44.48 181.04 46.07 179.83 C 49.49 183.34 53.20 186.57 57.22 189.38 C 57.33 189.46 57.57 189.63 57.69 189.71 C 65.16 194.91 73.34 199.60 82.14 201.95 L 82.27 202.82 L 83.25 203.27 L 84.09 202.80 C 85.74 203.22 87.35 204.41 89.11 204.01 L 89.25 204.85 C 89.70 204.84 90.61 204.82 91.07 204.81 C 91.81 204.88 93.30 205.01 94.05 205.07 L 94.22 205.89 C 94.70 205.84 95.64 205.75 96.11 205.70 C 96.89 205.77 98.44 205.91 99.21 205.98 C 99.97 207.77 103.38 207.35 104.98 206.76 C 109.86 207.34 115.14 207.42 120.00 206.72 C 121.26 207.41 124.55 207.69 124.89 206.02 C 125.66 205.95 127.20 205.81 127.98 205.75 C 129.45 206.67 130.44 206.41 130.94 204.98 C 131.45 204.95 132.45 204.88 132.96 204.84 C 134.39 205.70 135.35 205.41 135.86 203.95 L 137.05 204.24 L 138.04 203.66 C 138.21 203.59 138.55 203.45 138.72 203.37 C 147.79 200.87 156.44 196.84 164.28 191.65 C 164.39 191.57 164.62 191.42 164.73 191.34 C 165.36 190.92 166.61 190.07 167.23 189.64 C 167.34 189.57 167.55 189.42 167.66 189.35 C 168.76 188.58 169.92 187.85 170.79 186.80 C 172.47 187.34 173.24 186.74 173.08 185.01 C 180.14 179.27 186.34 172.32 191.37 164.70 C 191.44 164.59 191.59 164.37 191.66 164.25 C 196.78 156.39 200.94 147.80 203.41 138.72 C 203.47 138.55 203.60 138.21 203.67 138.04 C 203.75 137.49 203.93 136.40 204.02 135.85 L 204.85 135.68 C 204.82 135.22 204.77 134.30 204.74 133.84 C 204.80 133.10 204.91 131.63 204.96 130.90 C 206.42 130.45 206.68 129.47 205.77 127.96 C 205.83 127.42 205.95 126.35 206.01 125.81 C 207.71 124.95 207.37 121.63 206.76 120.01 C 207.43 115.76 207.28 111.22 206.77 106.93 C 207.25 105.03 207.84 101.28 205.98 100.23 C 206.05 99.62 206.19 98.41 206.26 97.80 L 205.72 97.14 C 206.66 95.65 206.40 94.67 204.96 94.21 C 204.92 93.66 204.84 92.57 204.80 92.02 C 204.82 91.57 204.85 90.66 204.86 90.21 L 204.03 90.04 C 203.99 89.54 203.89 88.55 203.84 88.05 C 203.84 87.60 203.85 86.69 203.86 86.23 L 203.02 86.09 C 202.93 85.53 202.75 84.41 202.66 83.86 C 202.60 83.70 202.47 83.39 202.41 83.23 C 202.21 82.64 201.82 81.46 201.63 80.87 C 201.58 80.73 201.48 80.44 201.43 80.30 C 198.98 73.43 195.63 66.87 191.65 60.76 C 191.58 60.65 191.43 60.42 191.35 60.30 C 190.93 59.67 190.07 58.40 189.64 57.76 C 189.57 57.66 189.42 57.45 189.35 57.34 C 183.32 49.07 176.04 41.66 167.73 35.68 C 167.61 35.60 167.38 35.44 167.26 35.36 C 166.63 34.93 165.37 34.07 164.73 33.64 C 164.61 33.56 164.37 33.40 164.24 33.31 C 156.43 28.11 147.79 24.12 138.75 21.59 C 138.58 21.52 138.23 21.39 138.05 21.32 C 137.51 21.23 136.41 21.06 135.86 20.97 L 135.71 20.14 C 135.24 20.16 134.31 20.21 133.85 20.23 C 133.11 20.18 131.63 20.08 130.89 20.03 C 130.44 18.57 129.46 18.31 127.94 19.24 C 127.40 19.18 126.30 19.06 125.75 19.00 C 124.94 17.29 121.59 17.59 120.00 18.25 C 115.12 17.63 109.85 17.62 104.96 18.25 C 103.41 17.57 99.98 17.28 99.24 19.02 Z" />
<path fill="#010002" opacity="1.00" d=" M 86.30 59.34 C 91.81 55.52 101.22 59.17 102.00 66.03 C 102.11 96.76 102.18 127.51 101.95 158.24 C 100.65 161.61 97.55 164.60 93.86 165.01 C 92.31 164.95 90.77 164.92 89.23 164.93 C 85.23 164.52 81.81 161.06 81.02 157.19 C 80.99 127.09 80.95 96.98 81.03 66.87 C 80.83 64.71 82.33 63.02 83.27 61.23 L 84.10 61.18 C 85.23 61.13 85.97 60.51 86.30 59.34 Z" />
<path fill="#010002" opacity="1.00" d=" M 131.29 59.34 C 136.77 55.53 146.18 59.14 146.97 65.96 C 147.11 96.70 147.18 127.46 146.96 158.20 C 145.68 161.61 142.54 164.61 138.82 165.01 C 137.30 164.95 135.77 164.92 134.25 164.93 C 130.24 164.53 126.81 161.07 126.01 157.19 C 126.01 127.02 125.92 96.85 126.06 66.69 C 125.87 64.58 127.40 62.94 128.32 61.20 L 129.11 61.17 C 130.24 61.14 130.97 60.53 131.29 59.34 Z" />
</g>
<g id="#2626266e">
<path fill="#262626" opacity="0.43" d=" M 127.89 1.13 C 129.28 0.57 131.38 0.44 132.07 2.12 C 130.60 2.32 128.98 2.29 127.89 1.13 Z" />
</g>
<g id="#25252572">
<path fill="#252525" opacity="0.45" d=" M 133.84 2.06 C 135.29 1.47 136.37 1.83 137.09 3.14 C 135.78 3.46 134.70 3.10 133.84 2.06 Z" />
</g>
<g id="#2b2b2b61">
<path fill="#2b2b2b" opacity="0.38" d=" M 138.81 3.08 C 139.39 3.28 140.53 3.69 141.11 3.89 C 140.53 3.69 139.39 3.28 138.81 3.08 Z" />
<path fill="#2b2b2b" opacity="0.38" d=" M 20.13 89.24 L 20.96 89.07 C 20.77 89.57 20.38 90.57 20.19 91.07 C 20.18 90.61 20.15 89.70 20.13 89.24 Z" />
</g>
<g id="#31313174">
<path fill="#313131" opacity="0.45" d=" M 143.41 4.50 C 143.47 4.51 143.59 4.55 143.65 4.57 C 143.59 4.55 143.47 4.51 143.41 4.50 Z" />
<path fill="#313131" opacity="0.45" d=" M 175.24 19.35 C 175.37 19.43 175.63 19.61 175.76 19.70 C 175.63 19.61 175.37 19.43 175.24 19.35 Z" />
<path fill="#313131" opacity="0.45" d=" M 164.24 33.31 C 164.37 33.40 164.61 33.56 164.73 33.64 C 164.61 33.56 164.37 33.40 164.24 33.31 Z" />
<path fill="#313131" opacity="0.45" d=" M 201.43 80.30 C 201.48 80.44 201.58 80.73 201.63 80.87 C 201.58 80.73 201.48 80.44 201.43 80.30 Z" />
<path fill="#313131" opacity="0.45" d=" M 35.30 167.23 C 35.39 167.37 35.58 167.64 35.68 167.78 C 35.58 167.64 35.39 167.37 35.30 167.23 Z" />
<path fill="#313131" opacity="0.45" d=" M 46.28 203.29 C 46.40 203.39 46.66 203.57 46.79 203.67 C 46.66 203.57 46.40 203.39 46.28 203.29 Z" />
<path fill="#313131" opacity="0.45" d=" M 138.04 203.66 C 138.21 203.59 138.55 203.45 138.72 203.37 C 138.55 203.45 138.21 203.59 138.04 203.66 Z" />
<path fill="#313131" opacity="0.45" d=" M 81.36 220.46 C 81.43 220.48 81.57 220.52 81.64 220.54 C 81.57 220.52 81.43 220.48 81.36 220.46 Z" />
</g>
<g id="#2f2f2f87">
<path fill="#2f2f2f" opacity="0.53" d=" M 146.23 5.38 C 146.43 5.45 146.83 5.58 147.02 5.65 C 146.83 5.58 146.43 5.45 146.23 5.38 Z" />
</g>
<g id="#2f2f2f83">
<path fill="#2f2f2f" opacity="0.51" d=" M 149.15 6.37 C 149.33 6.43 149.69 6.55 149.87 6.62 C 149.69 6.55 149.33 6.43 149.15 6.37 Z" />
<path fill="#2f2f2f" opacity="0.51" d=" M 167.26 35.36 C 167.38 35.44 167.61 35.60 167.73 35.68 C 167.61 35.60 167.38 35.44 167.26 35.36 Z" />
<path fill="#2f2f2f" opacity="0.51" d=" M 191.35 60.30 C 191.43 60.42 191.58 60.65 191.65 60.76 C 191.58 60.65 191.43 60.42 191.35 60.30 Z" />
<path fill="#2f2f2f" opacity="0.51" d=" M 218.40 149.81 C 218.46 149.65 218.58 149.32 218.64 149.16 C 218.58 149.32 218.46 149.65 218.40 149.81 Z" />
<path fill="#2f2f2f" opacity="0.51" d=" M 72.38 217.46 C 72.45 217.49 72.60 217.55 72.67 217.58 C 72.60 217.55 72.45 217.49 72.38 217.46 Z" />
</g>
<g id="#24242466">
<path fill="#242424" opacity="0.40" d=" M 99.24 19.02 C 99.98 17.28 103.41 17.57 104.96 18.25 C 103.23 19.28 101.19 19.50 99.24 19.02 Z" />
<path fill="#242424" opacity="0.40" d=" M 120.00 18.25 C 121.59 17.59 124.94 17.29 125.75 19.00 C 123.80 19.51 121.73 19.31 120.00 18.25 Z" />
</g>
<g id="#2e2e2e64">
<path fill="#2e2e2e" opacity="0.39" d=" M 94.27 19.12 C 94.75 19.16 95.69 19.25 96.16 19.29 C 95.64 19.46 94.60 19.79 94.08 19.95 L 94.27 19.12 Z" />
</g>
<g id="#2727274e">
<path fill="#272727" opacity="0.31" d=" M 127.94 19.24 C 129.46 18.31 130.44 18.57 130.89 20.03 C 129.77 20.34 128.78 20.08 127.94 19.24 Z" />
</g>
<g id="#2b2b2b75">
<path fill="#2b2b2b" opacity="0.46" d=" M 89.26 20.15 C 89.72 20.16 90.64 20.19 91.09 20.20 C 90.60 20.39 89.62 20.79 89.13 20.99 L 89.26 20.15 Z" />
<path fill="#2b2b2b" opacity="0.46" d=" M 133.85 20.23 C 134.31 20.21 135.24 20.16 135.71 20.14 L 135.86 20.97 C 135.36 20.79 134.35 20.41 133.85 20.23 Z" />
</g>
<g id="#30303064">
<path fill="#303030" opacity="0.39" d=" M 138.05 21.32 C 138.23 21.39 138.58 21.52 138.75 21.59 C 138.58 21.52 138.23 21.39 138.05 21.32 Z" />
<path fill="#303030" opacity="0.39" d=" M 57.22 189.38 C 57.33 189.46 57.57 189.63 57.69 189.71 C 57.57 189.63 57.33 189.46 57.22 189.38 Z" />
</g>
<g id="#1e1e1e41">
<path fill="#1e1e1e" opacity="0.25" d=" M 181.70 24.04 C 183.21 23.77 184.04 24.41 184.17 25.95 C 182.89 25.88 182.06 25.24 181.70 24.04 Z" />
<path fill="#1e1e1e" opacity="0.25" d=" M 38.32 170.78 C 39.49 171.06 40.08 171.79 40.08 172.96 C 38.54 173.10 37.95 172.37 38.32 170.78 Z" />
</g>
<g id="#15151523">
<path fill="#151515" opacity="0.14" d=" M 188.58 29.98 C 191.68 30.73 194.28 33.29 195.00 36.41 C 192.79 34.34 190.63 32.21 188.58 29.98 Z" />
<path fill="#151515" opacity="0.14" d=" M 188.61 194.97 C 190.65 192.79 192.77 190.69 194.95 188.65 C 194.42 191.88 191.62 194.12 188.61 194.97 Z" />
</g>
<g id="#3030306e">
<path fill="#303030" opacity="0.43" d=" M 57.26 35.62 C 57.37 35.54 57.61 35.37 57.72 35.29 C 57.61 35.37 57.37 35.54 57.26 35.62 Z" />
<path fill="#303030" opacity="0.43" d=" M 202.41 83.23 C 202.47 83.39 202.60 83.70 202.66 83.86 C 202.60 83.70 202.47 83.39 202.41 83.23 Z" />
<path fill="#303030" opacity="0.43" d=" M 203.41 138.72 C 203.47 138.55 203.60 138.21 203.67 138.04 C 203.60 138.21 203.47 138.55 203.41 138.72 Z" />
<path fill="#303030" opacity="0.43" d=" M 220.45 143.65 C 220.47 143.57 220.51 143.42 220.53 143.34 C 220.51 143.42 220.47 143.57 220.45 143.65 Z" />
<path fill="#303030" opacity="0.43" d=" M 21.35 178.22 C 21.44 178.35 21.63 178.60 21.72 178.73 C 21.63 178.60 21.44 178.35 21.35 178.22 Z" />
<path fill="#303030" opacity="0.43" d=" M 42.31 200.29 C 42.42 200.38 42.66 200.56 42.77 200.65 C 42.66 200.56 42.42 200.38 42.31 200.29 Z" />
<path fill="#303030" opacity="0.43" d=" M 175.21 205.66 C 175.34 205.57 175.60 205.39 175.73 205.30 C 175.60 205.39 175.34 205.57 175.21 205.66 Z" />
</g>
<g id="#1d1d1d3b">
<path fill="#1d1d1d" opacity="0.23" d=" M 52.00 40.08 C 51.90 38.54 52.64 37.96 54.21 38.33 C 53.92 39.51 53.18 40.09 52.00 40.08 Z" />
<path fill="#1d1d1d" opacity="0.23" d=" M 38.31 54.21 C 37.98 52.59 38.57 51.86 40.08 52.02 C 40.08 53.21 39.49 53.93 38.31 54.21 Z" />
</g>
<g id="#161616bd">
<path fill="#161616" opacity="0.74" d=" M 43.30 48.06 C 42.17 46.13 45.10 43.18 47.04 44.27 C 45.95 45.68 44.69 46.95 43.30 48.06 Z" />
</g>
<g id="#2d2d2d8d">
<path fill="#2d2d2d" opacity="0.55" d=" M 189.35 57.34 C 189.42 57.45 189.57 57.66 189.64 57.76 C 189.57 57.66 189.42 57.45 189.35 57.34 Z" />
<path fill="#2d2d2d" opacity="0.55" d=" M 167.23 189.64 C 167.34 189.57 167.55 189.42 167.66 189.35 C 167.55 189.42 167.34 189.57 167.23 189.64 Z" />
</g>
<g id="#1c1c1ca6">
<path fill="#1c1c1c" opacity="0.65" d=" M 84.10 61.18 C 83.96 59.60 84.69 58.99 86.30 59.34 C 85.97 60.51 85.23 61.13 84.10 61.18 Z" />
<path fill="#1c1c1c" opacity="0.65" d=" M 129.11 61.17 C 128.97 59.60 129.70 58.99 131.29 59.34 C 130.97 60.53 130.24 61.14 129.11 61.17 Z" />
</g>
<g id="#1e1e1fb3">
<path fill="#1e1e1f" opacity="0.70" d=" M 102.00 66.03 L 102.45 65.55 C 103.24 68.63 102.97 71.82 102.99 74.96 C 103.00 99.64 102.99 124.32 103.00 149.01 C 102.92 152.10 103.47 155.39 101.95 158.24 C 102.18 127.51 102.11 96.76 102.00 66.03 Z" />
<path fill="#1e1e1f" opacity="0.70" d=" M 146.97 65.96 L 147.50 65.62 C 148.21 68.68 147.98 71.83 148.00 74.95 C 148.00 101.29 147.98 127.62 148.00 153.96 C 148.07 155.45 147.56 156.87 146.96 158.20 C 147.18 127.46 147.11 96.70 146.97 65.96 Z" />
</g>
<g id="#3030306d">
<path fill="#303030" opacity="0.43" d=" M 80.19 66.41 L 81.03 66.87 C 80.95 96.98 80.99 127.09 81.02 157.19 C 79.71 156.21 80.14 154.33 79.99 152.92 C 80.14 124.09 79.75 95.24 80.19 66.41 Z" />
<path fill="#303030" opacity="0.43" d=" M 125.14 66.55 L 126.06 66.69 C 125.92 96.85 126.01 127.02 126.01 157.19 C 124.72 156.20 125.13 154.37 124.99 152.97 C 125.11 124.17 124.81 95.35 125.14 66.55 Z" />
</g>
<g id="#24242472">
<path fill="#242424" opacity="0.45" d=" M 23.17 79.29 L 24.04 79.21 C 23.77 79.67 23.24 80.59 22.98 81.05 C 23.03 80.61 23.12 79.73 23.17 79.29 Z" />
</g>
<g id="#29292979">
<path fill="#292929" opacity="0.47" d=" M 220.10 80.80 C 220.30 81.36 220.71 82.50 220.91 83.07 C 220.71 82.50 220.30 81.36 220.10 80.80 Z" />
</g>
<g id="#28282862">
<path fill="#282828" opacity="0.38" d=" M 22.14 82.24 L 23.00 82.12 C 22.77 82.60 22.29 83.55 22.05 84.03 C 22.07 83.58 22.12 82.69 22.14 82.24 Z" />
</g>
<g id="#28282877">
<path fill="#282828" opacity="0.47" d=" M 21.18 85.26 L 22.04 85.14 C 21.81 85.63 21.36 86.60 21.13 87.09 C 21.14 86.63 21.17 85.72 21.18 85.26 Z" />
</g>
<g id="#27272786">
<path fill="#272727" opacity="0.53" d=" M 220.93 84.75 C 221.17 85.32 221.66 86.47 221.91 87.05 C 221.66 86.47 221.17 85.32 220.93 84.75 Z" />
</g>
<g id="#2b2b2b63">
<path fill="#2b2b2b" opacity="0.39" d=" M 203.02 86.09 L 203.86 86.23 C 203.85 86.69 203.84 87.60 203.84 88.05 C 203.64 87.56 203.23 86.58 203.02 86.09 Z" />
</g>
<g id="#2d2d2d62">
<path fill="#2d2d2d" opacity="0.38" d=" M 221.96 88.89 C 222.20 89.45 222.68 90.57 222.93 91.12 C 222.68 90.57 222.20 89.45 221.96 88.89 Z" />
</g>
<g id="#2b2b2b5b">
<path fill="#2b2b2b" opacity="0.36" d=" M 204.03 90.04 L 204.86 90.21 C 204.85 90.66 204.82 91.57 204.80 92.02 C 204.61 91.53 204.23 90.53 204.03 90.04 Z" />
<path fill="#2b2b2b" opacity="0.36" d=" M 221.06 141.18 C 221.26 140.61 221.68 139.46 221.88 138.88 C 221.68 139.46 221.26 140.61 221.06 141.18 Z" />
<path fill="#2b2b2b" opacity="0.36" d=" M 138.88 221.86 C 139.43 221.62 140.54 221.13 141.09 220.89 C 140.54 221.13 139.43 221.62 138.88 221.86 Z" />
</g>
<g id="#26262664">
<path fill="#262626" opacity="0.39" d=" M 19.24 96.06 C 18.33 94.59 18.59 93.61 20.04 93.13 C 20.38 94.25 20.11 95.22 19.24 96.06 Z" />
</g>
<g id="#27272773">
<path fill="#272727" opacity="0.45" d=" M 204.96 94.21 C 206.40 94.67 206.66 95.65 205.72 97.14 C 204.87 96.31 204.61 95.33 204.96 94.21 Z" />
</g>
<g id="#28272870">
<path fill="#282728" opacity="0.44" d=" M 222.87 93.91 C 224.61 94.55 224.38 96.71 223.86 98.11 C 222.74 97.00 222.69 95.38 222.87 93.91 Z" />
</g>
<g id="#25252570">
<path fill="#252525" opacity="0.44" d=" M 18.27 103.06 C 17.46 101.75 17.41 98.72 19.00 98.15 C 19.47 99.82 19.23 101.60 18.27 103.06 Z" />
</g>
<g id="#808080ff">
<path fill="#808080" opacity="1.00" d=" M 0.00 99.02 L 0.92 98.97 C 1.44 101.00 1.46 103.46 0.00 105.13 L 0.00 99.02 Z" />
<path fill="#808080" opacity="1.00" d=" M 223.94 100.95 L 225.00 101.00 L 225.00 111.53 C 223.85 108.12 223.99 104.50 223.94 100.95 Z" />
</g>
<g id="#2525255d">
<path fill="#252525" opacity="0.36" d=" M 205.98 100.23 C 207.84 101.28 207.25 105.03 206.77 106.93 C 205.65 104.87 205.53 102.50 205.98 100.23 Z" />
</g>
<g id="#6f6f70ff">
<path fill="#6f6f70" opacity="1.00" d=" M 0.00 115.53 C 0.83 118.67 1.16 121.91 1.07 125.16 L 0.00 124.95 L 0.00 115.53 Z" />
</g>
<g id="#7d7d7dff">
<path fill="#7d7d7d" opacity="1.00" d=" M 223.91 125.03 C 223.91 122.12 224.03 119.18 225.00 116.40 L 225.00 125.01 L 223.91 125.03 Z" />
</g>
<g id="#2525255f">
<path fill="#252525" opacity="0.37" d=" M 18.24 120.10 C 19.29 121.83 19.54 123.88 19.00 125.82 C 17.24 125.05 17.65 121.68 18.24 120.10 Z" />
</g>
<g id="#25252564">
<path fill="#252525" opacity="0.39" d=" M 206.01 125.81 C 205.47 123.84 205.71 121.76 206.76 120.01 C 207.37 121.63 207.71 124.95 206.01 125.81 Z" />
</g>
<g id="#26262670">
<path fill="#262626" opacity="0.44" d=" M 1.15 127.91 C 2.34 129.01 2.34 130.67 2.08 132.16 C 0.61 131.23 0.45 129.38 1.15 127.91 Z" />
</g>
<g id="#2626264c">
<path fill="#262626" opacity="0.30" d=" M 19.20 127.96 C 20.06 128.79 20.33 129.77 20.02 130.91 C 18.56 130.40 18.29 129.42 19.20 127.96 Z" />
</g>
<g id="#27272751">
<path fill="#272727" opacity="0.32" d=" M 204.96 130.90 C 204.65 129.77 204.92 128.79 205.77 127.96 C 206.68 129.47 206.42 130.45 204.96 130.90 Z" />
<path fill="#272727" opacity="0.32" d=" M 127.98 205.75 C 128.83 204.88 129.82 204.63 130.94 204.98 C 130.44 206.41 129.45 206.67 127.98 205.75 Z" />
</g>
<g id="#2a2a2a7c">
<path fill="#2a2a2a" opacity="0.49" d=" M 223.08 131.21 C 222.51 129.80 222.79 128.70 223.94 127.89 C 224.45 129.24 224.17 130.35 223.08 131.21 Z" />
</g>
<g id="#26252670">
<path fill="#262526" opacity="0.44" d=" M 2.01 133.91 C 3.12 134.64 3.48 135.69 3.09 137.07 C 1.83 136.36 1.47 135.31 2.01 133.91 Z" />
</g>
<g id="#2a2a2a7d">
<path fill="#2a2a2a" opacity="0.49" d=" M 20.23 133.92 C 20.42 134.41 20.80 135.40 20.99 135.89 L 20.16 135.75 C 20.18 135.29 20.21 134.38 20.23 133.92 Z" />
</g>
<g id="#28282889">
<path fill="#282828" opacity="0.54" d=" M 204.02 135.85 C 204.20 135.35 204.56 134.34 204.74 133.84 C 204.77 134.30 204.82 135.22 204.85 135.68 L 204.02 135.85 Z" />
</g>
<g id="#2b2b2b83">
<path fill="#2b2b2b" opacity="0.51" d=" M 221.94 136.24 C 222.17 135.67 222.63 134.52 222.86 133.95 C 222.63 134.52 222.17 135.67 221.94 136.24 Z" />
</g>
<g id="#2f2f2f5c">
<path fill="#2f2f2f" opacity="0.36" d=" M 21.31 138.13 C 21.37 138.30 21.50 138.65 21.56 138.82 C 21.50 138.65 21.37 138.30 21.31 138.13 Z" />
</g>
<g id="#2c2c2c6b">
<path fill="#2c2c2c" opacity="0.42" d=" M 3.08 138.86 C 3.32 139.42 3.82 140.53 4.07 141.09 C 3.82 140.53 3.32 139.42 3.08 138.86 Z" />
</g>
<g id="#27272779">
<path fill="#272727" opacity="0.47" d=" M 22.13 140.93 C 22.36 141.41 22.81 142.37 23.04 142.85 L 22.18 142.74 C 22.17 142.29 22.14 141.38 22.13 140.93 Z" />
</g>
<g id="#27272754">
<path fill="#272727" opacity="0.33" d=" M 4.09 142.89 C 4.34 143.43 4.86 144.52 5.12 145.07 C 4.86 144.52 4.34 143.43 4.09 142.89 Z" />
</g>
<g id="#2727276b">
<path fill="#272727" opacity="0.42" d=" M 5.03 145.89 C 5.30 146.42 5.85 147.50 6.12 148.03 C 5.85 147.50 5.30 146.42 5.03 145.89 Z" />
<path fill="#272727" opacity="0.42" d=" M 76.93 218.90 C 77.50 219.14 78.64 219.62 79.21 219.85 C 78.64 219.62 77.50 219.14 76.93 218.90 Z" />
</g>
<g id="#2727275a">
<path fill="#272727" opacity="0.35" d=" M 218.94 148.34 C 219.16 147.71 219.60 146.44 219.83 145.81 C 219.60 146.44 219.16 147.71 218.94 148.34 Z" />
</g>
<g id="#27262765">
<path fill="#272627" opacity="0.40" d=" M 6.05 148.89 C 6.28 149.44 6.76 150.55 7.00 151.10 C 6.76 150.55 6.28 149.44 6.05 148.89 Z" />
</g>
<g id="#3030307c">
<path fill="#303030" opacity="0.49" d=" M 191.37 164.70 C 191.44 164.59 191.59 164.37 191.66 164.25 C 191.59 164.37 191.44 164.59 191.37 164.70 Z" />
<path fill="#303030" opacity="0.49" d=" M 164.28 191.65 C 164.39 191.57 164.62 191.42 164.73 191.34 C 164.62 191.42 164.39 191.57 164.28 191.65 Z" />
<path fill="#303030" opacity="0.49" d=" M 149.18 218.62 C 149.34 218.56 149.67 218.44 149.84 218.38 C 149.67 218.44 149.34 218.56 149.18 218.62 Z" />
<path fill="#303030" opacity="0.49" d=" M 146.48 219.50 C 146.54 219.48 146.65 219.45 146.71 219.43 C 146.65 219.45 146.54 219.48 146.48 219.50 Z" />
</g>
<g id="#26262640">
<path fill="#262626" opacity="0.25" d=" M 89.23 164.93 C 90.77 164.92 92.31 164.95 93.86 165.01 C 93.67 166.81 89.26 166.80 89.23 164.93 Z" />
<path fill="#262626" opacity="0.25" d=" M 134.25 164.93 C 135.77 164.92 137.30 164.95 138.82 165.01 C 138.72 166.82 134.25 166.81 134.25 164.93 Z" />
</g>
<g id="#2b2b2b97">
<path fill="#2b2b2b" opacity="0.59" d=" M 19.31 175.29 C 19.40 175.42 19.57 175.67 19.66 175.80 C 19.57 175.67 19.40 175.42 19.31 175.29 Z" />
</g>
<g id="#171717ba">
<path fill="#171717" opacity="0.73" d=" M 43.29 176.91 C 44.37 177.73 45.31 178.70 46.07 179.83 C 44.48 181.04 41.98 178.43 43.29 176.91 Z" />
</g>
<g id="#1d1d1da2">
<path fill="#1d1d1d" opacity="0.64" d=" M 24.04 181.70 C 25.57 181.87 26.22 182.72 25.99 184.25 C 24.78 183.85 24.13 183.00 24.04 181.70 Z" />
</g>
<g id="#1e1e1e9b">
<path fill="#1e1e1e" opacity="0.61" d=" M 170.79 186.80 C 171.27 185.87 172.04 185.27 173.08 185.01 C 173.24 186.74 172.47 187.34 170.79 186.80 Z" />
</g>
<g id="#1919192f">
<path fill="#191919" opacity="0.18" d=" M 28.96 187.61 C 31.82 190.34 34.65 193.11 37.36 195.99 C 33.63 194.54 30.61 191.20 28.96 187.61 Z" />
</g>
<g id="#26262680">
<path fill="#262626" opacity="0.50" d=" M 82.14 201.95 C 82.63 202.17 83.60 202.59 84.09 202.80 L 83.25 203.27 L 82.27 202.82 L 82.14 201.95 Z" />
</g>
<g id="#1c1c1c95">
<path fill="#1c1c1c" opacity="0.58" d=" M 177.70 203.88 C 177.94 202.38 178.80 201.74 180.28 201.97 C 179.90 203.20 179.04 203.84 177.70 203.88 Z" />
</g>
<g id="#2b2b2b70">
<path fill="#2b2b2b" opacity="0.44" d=" M 89.11 204.01 C 89.60 204.21 90.58 204.61 91.07 204.81 C 90.61 204.82 89.70 204.84 89.25 204.85 L 89.11 204.01 Z" />
</g>
<g id="#2424245e">
<path fill="#242424" opacity="0.37" d=" M 132.96 204.84 C 133.76 203.91 134.73 203.61 135.86 203.95 C 135.35 205.41 134.39 205.70 132.96 204.84 Z" />
</g>
<g id="#2e2e2e5e">
<path fill="#2e2e2e" opacity="0.37" d=" M 94.05 205.07 C 94.57 205.23 95.60 205.54 96.11 205.70 C 95.64 205.75 94.70 205.84 94.22 205.89 L 94.05 205.07 Z" />
</g>
<g id="#25242560">
<path fill="#252425" opacity="0.38" d=" M 99.21 205.98 C 101.17 205.52 103.23 205.70 104.98 206.76 C 103.38 207.35 99.97 207.77 99.21 205.98 Z" />
</g>
<g id="#27272758">
<path fill="#272727" opacity="0.35" d=" M 120.00 206.72 C 121.46 205.76 123.21 205.53 124.89 206.02 C 124.55 207.69 121.26 207.41 120.00 206.72 Z" />
</g>
<g id="#26262669">
<path fill="#262626" opacity="0.41" d=" M 73.04 217.73 C 73.79 218.01 75.29 218.58 76.04 218.87 C 75.29 218.58 73.79 218.01 73.04 217.73 Z" />
</g>
<g id="#26262789">
<path fill="#262627" opacity="0.54" d=" M 141.93 220.94 C 142.51 220.74 143.68 220.33 144.27 220.13 C 143.68 220.33 142.51 220.74 141.93 220.94 Z" />
</g>
<g id="#2c2c2c72">
<path fill="#2c2c2c" opacity="0.45" d=" M 83.80 221.12 C 84.39 221.31 85.57 221.70 86.16 221.90 C 85.57 221.70 84.39 221.31 83.80 221.12 Z" />
</g>
<g id="#2727276a">
<path fill="#272727" opacity="0.42" d=" M 87.89 221.93 C 89.29 221.52 90.37 221.87 91.12 223.00 C 89.72 223.51 88.64 223.15 87.89 221.93 Z" />
</g>
<g id="#2e2e2e72">
<path fill="#2e2e2e" opacity="0.45" d=" M 133.92 222.86 C 134.48 222.63 135.61 222.17 136.18 221.93 C 135.61 222.17 134.48 222.63 133.92 222.86 Z" />
</g>
<g id="#26262777">
<path fill="#262627" opacity="0.47" d=" M 92.92 222.87 C 94.40 222.63 96.00 222.78 97.13 223.86 C 95.73 224.39 93.58 224.59 92.92 222.87 Z" />
</g>
<g id="#2b2b2b73">
<path fill="#2b2b2b" opacity="0.45" d=" M 127.87 223.91 C 128.69 222.80 129.80 222.52 131.20 223.08 C 130.33 224.18 129.22 224.46 127.87 223.91 Z" />
</g>
<g id="#606061ff">
<path fill="#606061" opacity="1.00" d=" M 99.73 223.94 C 103.66 223.78 107.55 224.37 111.41 225.00 L 100.11 225.00 L 99.73 223.94 Z" />
</g>
<g id="#6d6d6dff">
<path fill="#6d6d6d" opacity="1.00" d=" M 114.57 225.00 C 118.01 224.24 121.51 223.84 125.04 223.91 L 125.00 225.00 L 114.57 225.00 Z" />
</g>
</svg>
