<?xml version="1.0" encoding="UTF-8" ?>
<!DOCTYPE svg PUBLIC "-//W3C//DTD SVG 1.1//EN" "http://www.w3.org/Graphics/SVG/1.1/DTD/svg11.dtd">
<svg width="225pt" height="225pt" viewBox="0 0 225 225" version="1.1" xmlns="http://www.w3.org/2000/svg">
<g id="#000000ff">
<path fill="#000000" opacity="1.00" d=" M 100.99 0.00 L 124.13 0.00 C 127.26 1.32 130.64 1.75 133.97 2.27 C 158.37 6.91 180.97 20.06 197.20 38.85 C 211.18 54.88 220.51 75.02 223.41 96.11 C 223.72 98.15 224.32 100.12 225.00 102.07 L 225.00 124.23 C 224.40 125.60 223.88 127.01 223.61 128.49 C 220.23 153.01 208.27 176.25 190.35 193.31 C 175.94 207.41 157.54 217.29 137.93 221.86 C 133.28 222.98 128.43 223.22 123.95 225.00 L 100.76 225.00 C 99.20 224.29 97.55 223.79 95.85 223.53 C 71.76 220.12 48.96 208.40 32.06 190.91 C 17.74 176.35 7.65 157.74 3.05 137.86 C 1.94 133.25 1.74 128.43 0.00 123.98 L 0.00 99.74 C 2.10 96.14 1.96 91.84 2.99 87.91 C 7.63 67.61 17.77 48.34 32.79 33.82 C 49.44 16.31 72.34 5.10 96.17 1.59 C 97.83 1.25 99.41 0.62 100.99 0.00 M 100.37 18.58 C 80.26 21.13 61.02 30.37 46.57 44.61 C 30.07 60.34 19.70 82.27 17.94 104.99 C 17.67 113.55 17.73 122.19 19.53 130.61 C 23.95 154.18 38.00 175.61 57.43 189.56 C 73.20 200.86 92.54 207.27 111.98 207.15 C 131.95 207.45 151.86 200.82 167.99 189.11 C 185.40 176.47 198.38 157.81 203.96 137.01 C 209.20 118.00 207.87 97.40 200.97 78.99 C 192.24 55.91 174.17 36.48 151.65 26.34 C 135.75 18.95 117.74 16.32 100.37 18.58 Z" />
<path fill="#000000" opacity="1.00" d=" M 71.64 79.69 C 72.94 74.98 77.61 72.62 82.04 71.65 C 83.53 72.08 85.03 72.45 86.55 72.79 C 96.13 80.18 103.65 89.87 112.79 97.78 C 117.35 92.69 122.37 88.05 127.14 83.17 C 130.78 79.58 134.20 75.70 138.45 72.79 C 139.96 72.45 141.47 72.09 142.96 71.65 C 147.38 72.61 152.04 74.97 153.35 79.65 C 155.23 84.26 152.73 89.19 149.43 92.42 C 142.36 99.43 135.35 106.52 128.27 113.53 C 134.89 120.28 141.62 126.93 148.32 133.60 C 150.96 136.14 153.54 139.16 153.73 143.03 C 153.97 149.54 147.59 155.56 141.02 154.51 C 136.40 153.75 133.18 150.09 130.08 146.91 C 124.18 141.06 118.40 135.08 112.39 129.33 C 105.84 136.14 99.02 142.69 92.42 149.45 C 89.70 152.26 86.12 154.85 82.02 154.59 C 75.15 154.42 69.29 146.65 71.92 140.08 C 72.59 137.92 74.18 136.23 75.69 134.62 C 82.69 127.57 89.80 120.63 96.73 113.51 C 89.64 106.53 82.66 99.44 75.59 92.44 C 72.29 89.22 69.77 84.30 71.64 79.69 Z" />
</g>
</svg>
