<?xml version="1.0" encoding="UTF-8" ?>
<!DOCTYPE svg PUBLIC "-//W3C//DTD SVG 1.1//EN" "http://www.w3.org/Graphics/SVG/1.1/DTD/svg11.dtd">
<svg width="455pt" height="425pt" viewBox="0 0 455 425" version="1.1" xmlns="http://www.w3.org/2000/svg">
<g id="#000000ff">
<path fill="#000000" opacity="1.00" d=" M 178.82 37.98 C 190.84 25.96 202.69 13.74 215.00 2.02 C 223.24 1.03 231.70 1.46 240.03 1.62 C 241.72 1.45 242.80 3.00 243.93 3.99 C 255.49 15.90 267.26 27.61 278.76 39.58 C 262.35 34.59 245.08 33.28 228.02 32.80 C 220.03 33.43 211.98 33.30 204.01 34.33 C 195.53 34.95 187.20 36.68 178.82 37.98 Z" />
<path fill="#000000" opacity="1.00" d=" M 147.52 75.31 C 176.53 60.64 209.75 55.29 242.00 58.03 C 268.43 59.89 294.56 67.28 317.71 80.24 C 320.47 81.72 322.93 83.69 325.11 85.94 C 342.22 103.13 359.47 120.19 376.67 137.30 C 380.01 140.66 383.66 143.83 386.03 148.01 C 393.83 161.31 400.19 175.53 404.18 190.45 C 408.39 206.61 407.50 223.49 406.06 239.96 C 403.59 264.04 399.01 287.82 395.68 311.79 C 385.56 315.40 372.87 316.96 364.23 309.17 C 366.28 290.72 369.92 272.48 372.41 254.08 C 374.44 238.81 376.29 223.39 375.15 207.96 C 374.13 197.00 370.02 186.64 365.47 176.73 C 348.19 139.79 316.26 109.18 277.08 96.73 C 252.31 88.75 225.64 87.31 199.97 91.08 C 168.01 96.00 138.97 113.78 117.79 137.88 C 104.75 152.24 94.19 168.60 84.27 185.21 C 70.35 208.44 51.86 229.23 29.23 244.28 C 24.89 247.04 20.36 250.26 15.01 250.35 C 8.45 250.21 2.18 245.84 0.00 239.60 L 0.00 230.27 C 0.73 225.71 4.29 222.30 8.18 220.18 C 22.47 211.66 34.51 199.80 44.90 186.91 C 53.81 175.77 60.37 163.03 68.20 151.16 C 72.11 145.21 77.53 140.51 82.35 135.34 C 98.50 118.81 114.73 102.36 131.04 86.00 C 135.62 81.18 141.74 78.37 147.52 75.31 Z" />
<path fill="#000000" opacity="1.00" d=" M 183.09 120.52 C 199.59 114.37 217.45 111.56 235.02 113.02 C 262.70 114.94 289.35 126.63 310.16 144.86 C 329.66 161.43 344.54 183.99 349.69 209.25 C 355.97 237.31 350.68 266.13 345.35 293.87 C 336.23 285.89 327.08 277.91 317.32 270.73 C 320.82 250.46 322.98 229.12 316.99 209.09 C 310.88 188.73 295.96 172.09 278.58 160.41 C 259.26 147.39 235.04 141.67 211.99 145.40 C 190.19 148.63 170.34 160.40 155.07 176.03 C 140.77 190.63 130.07 208.40 121.97 227.07 C 113.21 246.82 99.21 263.68 83.98 278.77 C 74.55 287.78 64.70 296.36 54.44 304.41 C 53.55 305.01 52.63 306.16 51.43 305.55 C 41.45 300.80 32.31 294.50 23.04 288.53 C 37.96 277.46 52.62 265.90 65.53 252.49 C 76.81 240.76 87.40 227.88 93.73 212.74 C 102.95 191.95 115.05 172.27 130.77 155.75 C 145.35 140.41 163.17 127.89 183.09 120.52 Z" />
<path fill="#000000" opacity="1.00" d=" M 214.02 170.97 C 228.09 168.31 242.93 170.39 255.89 176.42 C 270.49 183.05 282.24 195.03 289.82 209.04 C 296.23 221.06 300.16 234.43 301.26 248.01 C 302.19 273.10 291.89 297.00 279.10 318.05 C 256.42 354.87 226.02 386.10 194.79 415.70 C 187.27 408.28 179.88 400.74 172.45 393.23 C 199.01 368.42 224.60 342.20 245.31 312.21 C 252.75 301.26 259.44 289.72 264.25 277.35 C 268.13 267.11 270.78 256.01 269.03 245.03 C 267.10 234.22 263.11 223.52 255.88 215.12 C 248.77 206.73 237.97 201.50 226.95 201.52 C 215.01 201.37 203.27 206.51 194.82 214.86 C 188.94 220.32 184.49 227.16 181.20 234.44 C 171.05 256.40 159.33 277.78 144.49 296.96 C 144.51 286.92 144.46 276.87 144.34 266.83 C 126.86 282.48 111.95 301.61 90.99 312.92 C 88.43 314.07 85.96 315.85 83.02 315.58 C 83.60 314.68 84.25 313.81 85.12 313.16 C 100.60 300.32 114.45 285.47 125.90 268.91 C 134.10 257.21 140.95 244.62 147.39 231.88 C 151.45 223.58 154.93 214.93 160.18 207.27 C 172.35 188.69 191.98 174.77 214.02 170.97 Z" />
<path fill="#000000" opacity="1.00" d=" M 410.68 171.36 C 424.72 184.98 438.26 199.11 452.15 212.90 C 455.31 215.38 454.73 219.72 455.00 223.30 L 455.00 261.07 C 451.57 267.74 447.48 274.08 442.90 280.02 C 437.13 287.14 430.31 293.31 423.24 299.10 C 423.94 288.07 425.43 277.09 425.44 266.03 C 426.01 240.36 423.88 214.32 416.13 189.72 C 414.45 183.55 410.33 178.00 410.68 171.36 Z" />
<path fill="#000000" opacity="1.00" d=" M 219.16 235.35 C 227.82 230.33 239.94 236.37 241.66 246.08 C 243.17 254.91 237.42 262.56 233.96 270.20 C 212.95 308.95 183.83 342.63 152.72 373.59 C 149.89 371.19 147.42 368.40 144.66 365.93 C 144.68 356.26 144.43 346.59 144.78 336.94 C 146.58 334.09 149.30 331.98 151.51 329.47 C 172.80 305.88 192.92 280.80 207.52 252.44 C 210.85 246.44 212.20 238.39 219.16 235.35 Z" />
<path fill="#000000" opacity="1.00" d=" M 311.50 300.84 C 311.25 323.84 311.51 346.84 311.69 369.83 C 310.73 370.68 309.70 371.45 308.60 372.10 C 303.57 348.49 307.13 324.25 311.50 300.84 Z" />
<path fill="#000000" opacity="1.00" d=" M 261.00 367.10 C 263.79 361.61 269.78 357.75 276.03 358.28 C 284.83 358.37 292.18 367.13 291.09 375.77 C 290.39 380.56 287.13 384.42 285.93 389.06 C 284.97 391.38 285.04 394.31 283.09 396.11 C 272.93 405.33 262.66 414.44 252.66 423.83 C 249.36 404.70 251.86 384.34 261.00 367.10 Z" />
</g>
</svg>
