<?xml version="1.0" encoding="UTF-8" ?>
<!DOCTYPE svg PUBLIC "-//W3C//DTD SVG 1.1//EN" "http://www.w3.org/Graphics/SVG/1.1/DTD/svg11.dtd">
<svg width="614pt" height="602pt" viewBox="0 0 614 602" version="1.1" xmlns="http://www.w3.org/2000/svg">
<g id="#000000ff">
<path fill="#000000" opacity="1.00" d=" M 10.48 11.55 C 23.57 -3.06 48.89 -3.37 62.54 10.59 C 143.94 92.12 225.58 173.41 307.00 254.93 C 387.74 174.06 468.81 93.52 549.59 12.69 C 555.39 6.25 563.48 1.79 572.15 0.86 C 583.71 -0.88 595.99 3.46 603.86 12.12 C 613.95 22.96 616.32 40.22 609.38 53.32 C 605.73 60.65 599.27 65.93 593.68 71.73 C 573.80 91.79 553.49 111.46 534.01 131.91 C 477.63 188.20 421.45 244.69 365.08 301.00 C 441.57 377.52 517.95 454.14 594.50 530.59 C 601.37 537.47 608.84 544.59 611.74 554.16 C 614.73 564.26 613.74 575.79 607.82 584.67 C 602.12 594.00 591.87 600.33 580.98 601.26 C 569.60 602.74 558.00 598.07 550.03 589.98 C 469.12 508.91 387.99 428.06 307.00 347.07 C 225.02 429.09 142.95 511.01 60.80 592.85 C 55.47 597.27 48.95 600.37 42.02 601.12 C 28.79 603.19 14.54 597.19 7.09 585.99 C -0.94 574.65 -1.52 558.54 5.71 546.68 C 9.51 540.32 15.27 535.51 20.36 530.24 C 40.59 509.84 61.20 489.80 81.05 469.04 C 136.98 413.00 192.92 356.97 248.93 301.00 C 169.72 221.90 90.75 142.55 11.53 63.46 C -2.47 50.16 -3.56 25.22 10.48 11.55 Z" />
</g>
</svg>
